<svg xmlns="http://www.w3.org/2000/svg" viewBox="0 0 722.72 1274.09"><path fill="#feede5" fill-rule="evenodd" d="M374.29,369.93c6.58-13,30.48-18.16,42.92-19.82,18.75-2.5,36.86,1.35,54.47,7.7,22.83,8.25,42.95,17.59,57.6,38.22,4.4,6.19,13.8,18.76,16.55,26.8,9.15,26.9,11.95,55.35,12.83,83.56,1.41,45.48-3,89.68-9.7,134.6a340,340,0,0,1-11.12,49.91c-4.43,14.65-7.63,29.38-18.25,41.07C491.35,763,455.1,771.63,415.5,777.88c-8.75,1.38-15.32-1-23.67-3.13-24.73-6.33-45.5-22.87-61.32-42.5-8.14-10.11-19.75-19.25-20.34-33.1-.26-6,6.54-7.42,12-9.14,11.15-3.51,21.09-11,24.28-13.56,17-13.58,21.82-31.16,24.84-53.85,1.82-13.63-8.36-20.53-13-32.52-8.84-23-19.33-44.57-24.35-68.86-7.55-36.46-4.26-78.22,13.4-111.51C355.08,395.13,367.11,384.1,374.29,369.93Z"/><path fill="#feede5" fill-rule="evenodd" d="M41.94,990c8.71-4.86,16.82-3.23,26.81-4.3,7.71-.83,14.78,1.44,22.25,2.37,18.7,2.34,34.45,7,50.17,16.8,4.81,3,2.65,9.85,6.63,13.26,5,4.28,14.81,1.84,20.59,1.41,15-1.1,29.62-2.36,44.73-2.36,4.64,0,9.29-.71,14-.71,1.54,0,5.45-.44,6.15,1.66,1.66,5-6.69,12.75-9.46,15.85-12.78,14.29-21.07,21.54-37.63,40.47-19.09,21.82-39,45.21-61.54,64.38A157.18,157.18,0,0,1,64,1171.26c-23,6.48-33.26-5-39.53-16.85-15.72-29.73-27.87-61.14-17.86-95,5.16-17.45,9-22.13,21.63-43.41C32.27,1009.25,36.94,992.76,41.94,990Z"/><path fill="#feede5" fill-rule="evenodd" d="M612.21,1076.47c13.62-5.45,21-12.07,34.23-17,12.51-4.61,27.27-4.27,40.4-6.46,6.21-1,13.48-3,19.39,0,2.64,1.32,8.57,7.18,8.86,13.57s4.45,25.63,5.12,40.91c.19,4.47,1.57,28.22-.1,39.63-3.33,22.72-4.53,23.33-12,45-5.32,15.49-13,24.82-25.65,35.35s-31.44,20.33-59.7,12.8c-15.6-4.15-34.43-17.77-47.67-26.51-20.7-13.67-40.41-25.77-61.83-38.22-15.7-9.13-33-17.25-47.19-28.77-17.37-14.11-32.37-30.43-48.15-46.21-24.4-24.4-54.76-41.34-81.44-63-13.38-10.87-32.88-23.92-27.15-44,4.84-17,23.38-15.32,37.49-12.6,18.28,3.53,35.57,9.72,53,16.16,8.8,3.25,20.72,11.25,30.7,10.67,2.7-.17.41-5.6-.64-8.08-1.21-2.84-3.26-5.27-4.53-8.09-4.59-10.13-17.73-38.56-2.26-45.89,3.8-1.8,12.2,3.47,13.57,4.2,11,5.92,19.85,16.85,26.5,27.15,15.6,24.15,20,55.15,39.43,76.27,21.07,22.94,21.5,28.56,40,44,3.61,3,18.24,11,21.83,13.63,10.41,7.67,45.57,20.72,48.7,17.92,2.35-2.1.94-14.09.82-16.87C613.28,1097,608.51,1078,612.21,1076.47Z"/><path fill="#eac6b0" fill-rule="evenodd" d="M396.67,379.25c4-1.32,5.85-2.77,9.37-4.53,8.3-4.15,19.6-9.31,28.65-11.12,11.32-2.26,24.85,3.28,34.42,8.75,5.06,2.89,14.08,8.56,18.68,12.4a89.65,89.65,0,0,1,19.76,24.36c12.71,22.87,17,46.56,18.9,73.08,1.18,16.51-1.08,42.31-2.42,64.61-1.29,21.49,4.6,31.85,2.42,42.86-1,5-4.4,10.2-7.06,14.18-7.15,10.72-16.86,20.47-19.9,28.59-3,7.94-5.61,20.42-4.24,31.24,1.4,11.05,7.13,20.54,8.53,29,1.62,9.69-4,20-3.88,30.86.09,9.69,2.66,9.61,5,18.9,2.17,8.65-3.21,16.12-5.82,24-3.08,9.33-2.73,21.39.07,31.7,1.44,5.29-.11,5.54-2,10.29-1.1,2.77-6,7.7-6.61,10.55-2.1,9.08-.34,24.13,3.79,26.86,3.21,2.11,7.3,1.88,10.83,2.2,5.93.54,10.75,1.14,16.64,1.67,6.65.61,12.45,1.89,19.15,2.21,2.68.13,3.45-3.07,7.29-10.23s5.5-10.83,4.86-16.63c-.54-4.9-2.37-8.66-1.15-13.55,1.41-5.66,10.58-12.27,12.74-18.74,2-6,4.11-13.43,4-18.2-.1-6.41-1.23-11.71-1.34-15.61-.31-10.75,4.15-20.32,9.58-30,5.55-9.91,8.16-16.43,8.16-25.83,0-7.45-2.11-15.73-5-22.67-3-7.1-3.59-8.69-2.73-14.11,2.41-15.3,10.45-21.62,12.56-37.79,1.45-11.13.29-19.92-1.81-36.55-2.23-17.72-.45-32.42.43-47.5,1.3-22.43,2.46-37,4.46-58.93,3.13-34.33-1.06-78.94-14.71-109-9-19.85-13.12-27.84-28.06-43.31-13.78-14.28-35.77-23.43-55.43-29-14.6-4.18-33.55-3.18-49-3.1-19.18.11-39.14,2-59.25,13.22C354.92,332,329,358.61,316.18,393.77c-13.5,37.15-11,85.06-9.75,113.06.35,7.74-1.25,25.8-1.25,36.34,0,31.65,3.69,69.06,33.77,87.86,3.62,2.26,12,3.64,15.11,2.6s16.37-2,17-6,3.65-10.32-4.48-23.35C364.31,600.62,359,592,357.5,588s-5.11-13.73-6.67-17.82c-3.86-10.11-4.22-19-7.69-32.26-2.66-10.2-3.39-26.71-4.3-37.16-.79-9.09-1.61-26.27-1.66-29.29-.24-13.82,8-28.84,20.84-45.26,4.38-5.62,9.18-29.13,13.62-34.84,3.31-4.26,5.84-6.75,11.06-8.44C389.08,380.85,391,381.15,396.67,379.25Z"/><path fill="#ffc8bb" fill-rule="evenodd" d="M329.83,687.12s7.91,22,20.73,33.73,25.65,23.35,42.86,29.5,30.38,8.43,42.5,8.43a104.59,104.59,0,0,0,39.7-8.08C489,745.08,502.26,734,504,739.24s3.57,10.72-1.35,19.15a41.38,41.38,0,0,0-5.8,24,119.83,119.83,0,0,0,2.9,19.53c.84,3.94-2.21,7.38-4.84,11.8s-5.43,5.93-4.83,11.31-.42,8.29.77,11.51,1.86,6.28-.77,5.8-5.07-.64-11.86.19-24.8,3.24-32,6.78-17.4,7-23.66,14.07-8.9,10.43-11.31,13-2.53-.77-4.95-4.51S396,859.73,391.69,856.33s-18.18-8.5-24.22-10.71.74-5.31-22.11-5.61-16.52-1-26.54-.44-21.52,1.62-32.73,2.36-16.22,1.18-25.95,1.33-17.52.74-25.86.27-13.16-.14-19.3-1.41-7.79-3.43-10.6-.82-5.28,6.32-7,8.47-.24,6.16-4,6.5-4.51-2-8.74-.4-5.59,2.1-6.44,4.78-1.76,4.21-4.72,4.7-4.92-.92-7.52,2.58a50.48,50.48,0,0,0-4.68,7.91c-1.38,2.54-3.91,8.51-5.38,10.36s-5.37,1.15-7.49,1.5-3.25,2.75-3,8.46-2.53,112.09-2.53,112.09a53.81,53.81,0,0,0-8.43-5.35c-6.27-3.46-19.53-8.41-27.9-10.22s-14.34-4.9-27.45-4.6S43.7,989.7,41.4,990.81s-1.2-3,2.19-10.13S72.7,911.26,72.7,911.26l22.83-52.53,21.24-44.37L135.17,782,148,762.62s22.25-27.52,30.32-33.57S198.57,716,207.58,712.7a80.88,80.88,0,0,1,26.29-5.46c11-.65,18.43-1.74,26.57-2.9s13.23-3.69,23.07-5.54,11.36-1.85,17.9-2.81S329.83,687.12,329.83,687.12Z"/><path fill="#ffc8bb" fill-rule="evenodd" d="M561.22,847.76s-16.86-.53-14.85-3.31c3.48-4.83,6.93-15.56,6.77-19-.39-7.73-4.12-8.5-2.52-12.56s5.79-7.9,8.12-11.22,7.77-13.47,8.51-18.76a106.18,106.18,0,0,0,.78-17c-.39-7.93-1.36-16.25,0-20.31s12.5-23.63,13.34-25.91,30.45,12,33,13.49,13.25,7.23,19.57,10.06,18,8.06,23.27,11.55,15.52,11.23,19.56,16,12,18.54,14.6,24.5,4.25,8.32,7.37,19.78a227.67,227.67,0,0,1,7.22,43.54c1,16.37,3.52,33.34,4.26,46.58s2.59,61,1.24,76.36.27,33.58.36,42.14.61,22.37,1.63,29.11,3.44,11.32-1.27,10.65-13-2-21.14-1.61-20.09-.49-27.65.9-20.11,3.18-26.54,5.4-17.59,5.56-21.44,7-5.58,2.58-6.4-1.89-1.86-9.25-2.48-11.16-5.5,10.65-8.14,20.62-4.49,15.17-5.37,20.53-1.69,16.36-1.46,18.91-7-.06-11.8-2.33-20.82-11.33-25.08-14.22-16.76-11.58-19.38-13.75a64.14,64.14,0,0,1-9.84-10c-3.89-4.87-17.36-21.12-23.25-26.55s-19.12-21.78-16-22.23,10.13-.76,20.34.5,62.29,3.6,62.29,3.6l32,1.35s12.11.13,13.84-2.66,5.82-14.7,6.43-19.1,10.79-31.23,10.79-31.23L647.15,946l14.58-31.23,7.45-21.36s2.83-7.24,2.94-10-.66-4-3-4.39-4.46-1.29-4.26-4.16-3.63-7.91-5.66-9.15a42.94,42.94,0,0,0-6.08-2.58c-1.55-.66.63-4.77-1.73-7.36s-9.12-1.92-15.28-1.7-38.55-1.3-38.55-1.3Z"/><path fill="#ffc8bb" fill-rule="evenodd" d="M172.78,1272.92l10.72-60,5.1-42.7,3-39.72,1.49-33.35.64-30.59,29.44-34.3,10.35-12.46s2.1-1.09,10.66-1.52,28.77,1,33.73.47,20.23-1.27,25.26-.6,13.79,1.25,16.53,2,18.32,11.19,24.11,14.2a156.54,156.54,0,0,1,18.73,11.15c5.12,3.79,36.46,29.9,40.91,33.67s5.67,5.09,12.61,12.15,27.7,29.67,32.55,34.12,14.47,13.6,21.51,18,14.35,10.07,20.11,12.65,6.46,2,10,2.9,5.95.91,11.54,4.2,24.36,20,30,24.15,17.44,14.07,23,18.46,19.47,13.27,22.54,16.37,12.25,40.75,15,46.44,2,5.48,2,5.48Z"/><path fill="#f48184" fill-rule="evenodd" d="M147.5,887.72l12.41,0,77.23-2.12,68.12,0,36,2.25,30.79-.58s8.72.25,12.58,2.24,15,7.91,22.29,6.35,13.88-3.55,18.74-7.85,5.78-7.34,9.83-8.4,17.31-1.74,17.31-1.74l81.05,1.4,71,5.07,27.65,3.46,37.76,3.87a22.68,22.68,0,0,1-2.75,10.38c-2.86,5.14-9.49,21.9-13.38,28.82s-11.86,25-14.18,31.5-10,27.29-12.17,33.63-4.28,11.79-5,16.53-1.51,15-4.47,19.1-7.42,7.14-10.86,7.29-13.28-.5-17.55-1-104-4.25-104-4.25-7.89-12.76-10-17.86-9.49-22-12.68-28S450.16,966,446.85,963.05s-11.88-10-13.73-4.63-3.18,7-.74,13.08,10.74,27.1,12.87,32.89,5.63,17.44,6.21,22.11,1.75,7.8-1,7.94-5.55,1.15-8.84-1.72-19.68-11.31-21.88-12.61-34.46-19.54-38.46-21.6-36.91-18.85-43.08-16.64-13,4-10.23,9.31,8.18,9.5,7,11.14-5.05.64-7.88,0-9.19-1.18-11.07.74-3.63,4.42-2.08,7.65,4.91,8.5,4.91,8.5-6.24,1.39-9.79.5-74.1-1.05-74.1-1.05l-82.8,3.51s-8.75,3.19-9.19-2.75,2.82-110.9,2.82-110.9l-.65-14Z"/><path fill="#fff" fill-rule="evenodd" d="M407.58,873.06s1.73,4.8,4.73,1.17,14.47-15.06,17.76-17.42,18.9-9.46,27.87-11.41,27.05-2.61,32.55-2.75S525.28,843.94,532,845s27,4.33,31.93,4.43,35.86,2.86,42.06,3.3,24.61,1.86,29.4,1.16,10.64-2.28,13.84.09a13.29,13.29,0,0,1,4.78,8c.41,2,3.29,1.88,6.77,4.52s4.79,5.35,5.22,8-2.24,3.33,1.56,4.84,5.82,2.76,5.47,4.73a49.82,49.82,0,0,1-1.75,7.29c-.6,1.33-2.86,1.45-8.06.1s-36.73-4.55-36.73-4.55l-62.45-5.22L513.26,879,449.32,879s-10.16-.64-13.78,1.49-11.08,8.76-14,10.53-9.77,4.34-14.52,4.51-19.13-3.56-22.06-5.12-12-2.48-15.08-2.49-13.83.61-19.19.57-31.86-2-35.63-2.09-23.51-1.55-36.75-1.25-31.16,0-43.43.53-35.7.72-41.73,1.24-29.59,2-33.46,1.77-8.73,1.25-6.22-1.67,3.48-4.88,5.48-7.43,5.67-12,8.24-13.47,7.4-2.43,10.16-2.61,1.25-4.86,4-6.8,10.24-.77,12.33-.15,1.66-4.66,3.26-7.51,4.17-7.81,7.15-8.46,17.09,3.63,23.62,3.27,31.39-1.17,36.76-1.21,29.19-2,35.18-2.25,26.47-1.12,33.6-.78,26.83,3.83,32.28,4.78,20.73,8.54,25.13,11.64S407.58,873.06,407.58,873.06Z"/><path fill="#9b5750" d="M441.05,658.73c-20.28,0-39.24-9-57.52-27.32-26.59-26.59-42.12-66.71-46.16-119.25-.24-3.15-.51-6.31-.78-9.47-.86-10.06-1.75-20.47-1.75-30.74a2.78,2.78,0,1,1,5.55,0c0,10,.88,20.32,1.73,30.27.27,3.18.54,6.35.79,9.52,3.93,51.17,18.92,90.12,44.55,115.75,22.14,22.14,45.19,29.83,70.45,23.53,10.88-2.73,21-8.34,31.94-17.69,11.65-10,20.61-19.34,29.3-35.14a2.77,2.77,0,1,1,4.86,2.68c-9.06,16.47-18.77,26.58-30.55,36.67-11.59,9.93-22.46,15.93-34.21,18.86A74.73,74.73,0,0,1,441.05,658.73Z"/><path fill="#9b5750" d="M540.8,604.82a2.78,2.78,0,0,1-2.17-1c-4.21-5.26-8.56-10.7-11.68-17.23-7.8-16.3-6.06-36.81-4.52-54.91.47-5.63.93-10.95,1.1-16,1.29-37.22-.42-79.59-22.81-111.72-10-14.4-22-24-39.82-32.13-15.37-7-27.68-7.17-37.63-.54a2.78,2.78,0,0,1-3.08-4.62c11.51-7.67,26-7.64,43,.1,18.85,8.57,31.44,18.74,42.08,34,23.33,33.47,25.13,77,23.81,115.09-.18,5.19-.64,10.58-1.12,16.28-1.55,18.24-3.14,37.1,4,52,2.85,6,6.81,10.92,11,16.16a2.78,2.78,0,0,1-2.16,4.51Z"/><path fill="#9b5750" d="M315.16,455.51a2.78,2.78,0,0,1-.6-5.49c17.46-3.88,22.74-13.88,30.74-29a221.93,221.93,0,0,1,11.47-19.86c13.63-20.57,32.32-23.53,37.73-23.94a2.75,2.75,0,0,1,3,2.56,2.78,2.78,0,0,1-2.56,3c-4.77.36-21.28,3-33.53,21.47a218.43,218.43,0,0,0-11.18,19.38c-8.09,15.32-14.49,27.42-34.45,31.85A2.46,2.46,0,0,1,315.16,455.51Z"/><path fill="#9b5750" d="M324.07,505.88a2.88,2.88,0,0,1-1-.19,2.78,2.78,0,0,1-1.55-3.61c1.56-3.91,2.24-8.44,3-13.68,1.21-8,2.57-17.07,7.47-27.62,6.66-14.34,11.52-20.43,18.88-29.64,1.65-2.06,3.44-4.29,5.41-6.83a2.78,2.78,0,0,1,4.38,3.41c-2,2.56-3.79,4.81-5.45,6.88-7.36,9.22-11.81,14.78-18.19,28.52-4.56,9.83-5.86,18.48-7,26.11-.81,5.34-1.57,10.4-3.36,14.9A2.77,2.77,0,0,1,324.07,505.88Z"/><path fill="#9b5750" d="M406.75,368.29l-.35,0a2.78,2.78,0,0,1-2.41-3.1c3.3-26.4,25.37-58.89,51.77-63.29a2.78,2.78,0,0,1,.91,5.48c-23.3,3.88-44.12,34.09-47.17,58.5A2.78,2.78,0,0,1,406.75,368.29Z"/><path fill="#9b5750" d="M569,673.22a2.75,2.75,0,0,1-1.77-.65,2.78,2.78,0,0,1-.36-3.91,97.85,97.85,0,0,0,18.75-34.3c2.93-9.47,1.74-20.18.58-30.54-.25-2.2-.49-4.38-.69-6.51a280.48,280.48,0,0,1-.42-42.23c.64-11.48,1.62-23.18,2.56-34.49,3.66-43.72,7.44-88.93-7.73-131.7-7.56-21.29-18.46-45.29-42-61.79a128.65,128.65,0,0,0-28.09-14.84c-11.12-4.17-24.47-8.43-39.2-8.43a2.78,2.78,0,0,1,0-5.56c15.62,0,29.57,4.45,41.15,8.79a134.44,134.44,0,0,1,29.32,15.49C565.9,340,577.27,364.91,585.12,387c15.58,43.9,11.74,89.71,8,134-.95,11.27-1.92,22.92-2.55,34.33a273.51,273.51,0,0,0,.4,41.4c.2,2.1.44,4.25.68,6.42,1.22,10.92,2.48,22.21-.79,32.79a103.44,103.44,0,0,1-19.79,36.22A2.77,2.77,0,0,1,569,673.22Z"/><path fill="#9b5750" d="M305.33,481.31l-.27,0a2.77,2.77,0,0,1-2.49-3c.65-6.54,1-14.28,1.46-22.48.8-15.78,1.63-32.1,4.43-44.51,9.48-42,34.32-75.15,71.81-95.84,13.55-7.47,29.51-15.11,45.21-15.11a2.78,2.78,0,0,1,0,5.56c-14.52,0-30.35,7.7-42.53,14.41-36.06,19.9-59.95,51.79-69.07,92.21-2.7,11.94-3.55,28.74-4.3,43.56-.42,8.27-.82,16.08-1.49,22.75A2.78,2.78,0,0,1,305.33,481.31Z"/><path fill="#9b5750" d="M348.54,635.43c-5.87,0-11.84-2.37-17.49-6.95-16.1-13.08-27-41.41-27.88-72.17-.24-8.73.12-22.43.46-35.67.24-9.05.46-17.64.46-23.68a2.78,2.78,0,0,1,5.55,0c0,6.1-.22,14.71-.46,23.82-.34,13.17-.69,26.8-.46,35.38.78,28.76,11.17,56.09,25.83,68,5.6,4.54,11.42,6.43,16.86,5.44a2.78,2.78,0,1,1,1,5.47A21.82,21.82,0,0,1,348.54,635.43Z"/><path fill="#9b5750" d="M543.2,759.31a2.77,2.77,0,0,1-2.77-2.77,57.48,57.48,0,0,0-12.68-36.83,151.36,151.36,0,0,0-11.07-12c-6.24-6.27-12.69-12.75-17.47-21.42s-10.2-31.15-4.77-42a2.78,2.78,0,1,1,5,2.49c-4.11,8.21-.12,28.16,4.66,36.83,4.41,8,10.3,13.91,16.54,20.18a156.79,156.79,0,0,1,11.48,12.42A63,63,0,0,1,546,756.54,2.77,2.77,0,0,1,543.2,759.31Z"/><path fill="#9b5750" d="M526.92,789.74a2.78,2.78,0,0,1-2.77-2.53c-1.06-11.7-7.23-21.58-13.76-32-4-6.33-8-12.87-10.89-19.86-3-7.47-1.93-14.35-.86-21a61.85,61.85,0,0,0,1.08-10,2.78,2.78,0,0,1,5.56,0,68.4,68.4,0,0,1-1.15,10.92c-1,6.17-1.95,12,.51,18,2.67,6.55,6.63,12.89,10.46,19,6.59,10.55,13.4,21.46,14.58,34.48a2.78,2.78,0,0,1-2.51,3Z"/><path fill="#9b5750" d="M549.2,777.32a2.75,2.75,0,0,1-1.35-.35,2.79,2.79,0,0,1-1.08-3.78c3.74-6.73,8-13.21,12.16-19.48,6.69-10.14,13.61-20.62,18.11-32,.45-1.14.94-2.3,1.43-3.48,1.94-4.6,3.95-9.36,3.95-13.92,0-7.94-2.06-14.68-5.38-23a2.78,2.78,0,1,1,5.16-2.06c3.46,8.66,5.77,16.23,5.77,25,0,5.68-2.33,11.21-4.38,16.08-.48,1.14-1,2.26-1.39,3.36-4.71,12-11.79,22.68-18.64,33.06-4.08,6.18-8.3,12.57-11.94,19.12A2.77,2.77,0,0,1,549.2,777.32Z"/><path fill="#9b5750" d="M512.35,839.87a2.76,2.76,0,0,1-2.63-1.9c-1.41-4.21-3-8.45-4.55-12.73-7.82-21.21-15.91-43.15-6.51-65.08a2.78,2.78,0,1,1,5.1,2.19c-8.52,19.89-.83,40.77,6.62,61,1.6,4.33,3.18,8.64,4.6,12.9a2.77,2.77,0,0,1-1.75,3.51A3,3,0,0,1,512.35,839.87Z"/><path fill="#9b5750" d="M531.63,840.29a2.82,2.82,0,0,1-1.54-.46,2.77,2.77,0,0,1-.76-3.85c1.29-2,2.54-3.88,3.79-5.81a167.12,167.12,0,0,1,11.8-16.7c1.74-2.09,3.5-4,5.23-6,5.58-6.19,10.41-11.54,13.13-19.71,2.56-7.69,2.36-14.25,2.13-21.84-.07-2.22-.13-4.49-.13-6.85a2.78,2.78,0,1,1,5.55,0c0,2.31.07,4.52.13,6.68.24,7.79.46,15.14-2.41,23.76-3.09,9.28-8.53,15.3-14.28,21.68-1.68,1.86-3.39,3.76-5.08,5.79a161.09,161.09,0,0,0-11.41,16.17c-1.26,1.95-2.53,3.9-3.84,5.87A2.76,2.76,0,0,1,531.63,840.29Z"/><path fill="#9b5750" d="M491.54,842.79a2.77,2.77,0,0,1-2.68-2.08c-1.8-7-2.53-17.77,1.3-25.43a2.78,2.78,0,1,1,5,2.49c-2.95,5.88-2.57,15.06-.9,21.55a2.76,2.76,0,0,1-2,3.38A2.8,2.8,0,0,1,491.54,842.79Z"/><path fill="#9b5750" d="M547.35,845.85a2.79,2.79,0,0,1-2.42-4.14c4.12-7.34,6.39-13.6,5-22.16a2.78,2.78,0,0,1,5.48-.91c1.69,10.12-1,17.63-5.59,25.79A2.77,2.77,0,0,1,547.35,845.85Z"/><path fill="#9b5750" d="M310.17,696.26a2.78,2.78,0,0,1-1.24-5.26,48.8,48.8,0,0,1,6-2.18c16.6-5.43,55.48-18.15,53.44-71.92a2.78,2.78,0,0,1,5.55-.21c2.2,58-41,72.09-57.26,77.4a53.61,53.61,0,0,0-5.22,1.87A2.76,2.76,0,0,1,310.17,696.26Z"/><path fill="#9b5750" d="M0,1092.63c-.32-24.06,5.5-44.91,17.28-62.22,4.89-7.19,19-36,58.3-132.14l1.26-3.09a964.59,964.59,0,0,1,52.08-107.69c9.7-17.13,21-32.15,36.61-48.68l1.52-1.62c5.29-5.64,11.29-12,18.26-15.71l4.07-2.17c9.22-4.95,18.76-10.06,29.3-12.15,8-1.58,16.35-2.42,24.46-3.24,10.55-1.06,21.46-2.16,31.29-4.89a188.58,188.58,0,0,1,29.77-5.83,2.78,2.78,0,0,1,.59,5.52,183.23,183.23,0,0,0-28.88,5.66c-10.28,2.85-21.43,4-32.21,5.06-8,.81-16.24,1.64-23.94,3.17-9.72,1.93-18.89,6.84-27.76,11.59l-4.1,2.19c-6.14,3.24-11.8,9.28-16.8,14.6l-1.54,1.64c-15.3,16.19-26.34,30.87-35.81,47.6A958.54,958.54,0,0,0,82,897.29l-1.26,3.08C41.23,997,26.92,1026.12,21.88,1033.54c-11.13,16.34-16.62,36.12-16.32,58.79Z"/><path fill="#9b5750" d="M52.17,1175.16a31.73,31.73,0,0,1-15.36-3.56c-10-5.49-16.72-19.43-21.61-29.6l-.94-2c-4.67-9.65-9.27-20-11.29-30.18a2.77,2.77,0,1,1,5.44-1.08c1.91,9.59,6.34,19.53,10.85,28.84l.95,2c4.3,9,10.79,22.49,19.26,27.12,10.94,6,26.63,1.53,39.09-3,30.66-11.2,51.75-33.39,74.08-56.88,4.69-4.93,9.4-9.89,14.24-14.78,5.08-5.13,9.76-10.8,14.3-16.29,2.25-2.73,4.51-5.47,6.84-8.16,4.69-5.44,9.63-10.7,14.42-15.78,6.2-6.59,12.62-13.41,18.42-20.58a2.77,2.77,0,1,1,4.32,3.48c-5.94,7.34-12.42,14.24-18.7,20.9-4.74,5.05-9.65,10.26-14.25,15.6-2.31,2.67-4.54,5.38-6.78,8.08-4.61,5.58-9.37,11.35-14.62,16.66-4.82,4.86-9.5,9.8-14.16,14.69-22.79,24-44.32,46.63-76.21,58.27C71.83,1172.07,61.71,1175.16,52.17,1175.16Z"/><path fill="#9b5750" d="M52.5,1056.78a2.73,2.73,0,0,1-1.74-.62,2.77,2.77,0,0,1-.41-3.9c4.35-5.38,10.45-8.87,16.35-12.24,1.28-.73,2.54-1.45,3.76-2.18,20.69-12.37,39.94-20.85,57.21-25.22a2.8,2.8,0,0,1,3.37,2,2.76,2.76,0,0,1-2,3.37c-16.52,4.17-35.78,12.67-55.72,24.59-1.25.75-2.54,1.49-3.85,2.24-5.46,3.12-11.1,6.34-14.8,10.91A2.77,2.77,0,0,1,52.5,1056.78Z"/><path fill="#9b5750" d="M175.27,1266.22a2.57,2.57,0,0,1-.55-.06,2.77,2.77,0,0,1-2.18-3.26c3.38-16.9,10.76-65.78,12.43-84.07,2.81-31,5.83-74,5.83-101.94a2.78,2.78,0,0,1,5.55,0c0,28.08-3,71.34-5.85,102.45-1.68,18.41-9.11,67.64-12.51,84.65A2.79,2.79,0,0,1,175.27,1266.22Z"/><path fill="#9b5750" d="M719.94,1109.51a2.77,2.77,0,0,1-2.75-2.44c-.55-4.49-1.13-9-1.7-13.5-2.86-22.43-5.81-45.62-6.3-68.45-.3-14.47-.33-29.14-.35-43.34-.06-30.32-.11-61.67-2.94-92.42-.3-3.28-.59-6.62-.89-10-3-34.09-6.32-72.73-25.24-100.51-12.88-18.91-39-30.55-66.64-42.88-8.28-3.7-16.84-7.52-25-11.55a2.78,2.78,0,0,1,2.45-5c8.09,4,16.6,7.78,24.83,11.46,28.39,12.66,55.2,24.62,69,44.82,19.74,29,23.16,68.39,26.19,103.15q.44,5.1.88,10c2.85,31,2.91,62.47,3,92.91,0,14.17.05,28.82.36,43.23.47,22.54,3.41,45.58,6.25,67.87.57,4.52,1.15,9,1.7,13.52a2.77,2.77,0,0,1-2.42,3.1Z"/><path fill="#9b5750" d="M659.66,1243.27a2.78,2.78,0,0,1-.87-5.41c31.87-10.56,51-40.41,58.32-91.28a2.78,2.78,0,0,1,5.5.79c-7.7,53.16-28,84.48-62.08,95.76A2.88,2.88,0,0,1,659.66,1243.27Z"/><path fill="#9b5750" d="M631.26,1244.14c-11.41,0-24.34-7.51-34-13.12l-2.88-1.66c-21.78-12.46-41.21-28.64-60-44.29-8-6.7-16.38-13.63-24.73-20.14a2.78,2.78,0,1,1,3.41-4.38c8.42,6.56,16.79,13.53,24.87,20.26,18.61,15.49,37.86,31.52,59.21,43.73l2.92,1.68c9.81,5.7,23.24,13.51,33.47,12.24a2.78,2.78,0,0,1,.69,5.51A24.09,24.09,0,0,1,631.26,1244.14Z"/><path fill="#9b5750" d="M622.11,1133.21a61.84,61.84,0,0,1-12.78-1.19c-25-5.35-51.39-18.65-76.2-38.47a2.78,2.78,0,0,1,3.47-4.34c24.13,19.28,49.69,32.21,73.89,37.38,11.65,2.49,26.91.14,40.37-1.93,4.7-.72,9.22-1.41,13.36-1.88a2.78,2.78,0,0,1,.62,5.52c-4.08.46-8.52,1.14-13.14,1.85C642.17,1131.62,631.78,1133.21,622.11,1133.21Z"/><path fill="#9b5750" d="M525.83,1084a2.77,2.77,0,0,1-2.2-1.08,217.57,217.57,0,0,0-16.85-18.66c-8.28-8.5-16.85-17.29-23.25-27.81-5.51-9.07-9.87-19-14.08-28.52-3.64-8.24-7.39-16.76-11.84-24.62-4.09-7.22-8.9-15.73-15.31-20a2.78,2.78,0,0,1,3.1-4.61c7.5,5,12.67,14.19,16.82,21.53a282.35,282.35,0,0,1,12.31,25.51c4.14,9.39,8.42,19.11,13.74,27.86,6.08,10,14.42,18.55,22.48,26.82A221.44,221.44,0,0,1,528,1079.49a2.76,2.76,0,0,1-2.2,4.46Z"/><path fill="#9b5750" d="M452.05,1035.6a2.78,2.78,0,0,1-2.76-2.45c-1.67-14.29-6.72-28.16-11.61-41.58-1.73-4.75-3.46-9.5-5.05-14.26-.31-.93-.78-2-1.29-3.23-2.34-5.51-5.88-13.84.33-18.63a2.78,2.78,0,0,1,3.39,4.4c-2.6,2-.91,6.65,1.39,12.06.57,1.34,1.09,2.59,1.45,3.64,1.57,4.72,3.28,9.42,5,14.12,5,13.72,10.16,27.9,11.91,42.84a2.77,2.77,0,0,1-2.44,3.07A1.77,1.77,0,0,1,452.05,1035.6Z"/><path fill="#9b5750" d="M444.48,1036.53a2.78,2.78,0,0,1-1.72-.59c-3.71-2.93-8.56-5.33-13.25-7.65-3.06-1.5-6.23-3.07-9.08-4.78-17.25-10.36-36.31-20.56-58.27-31.18-5.32-2.57-10.76-4-16.52-5.5-1.66-.43-3.31-.86-5-1.33a11.86,11.86,0,0,0-4.52-.47,2.78,2.78,0,0,1-4.76-2.82c1.94-4,8.18-2.77,10.76-2.06,1.64.46,3.27.89,4.9,1.31,5.76,1.51,11.73,3.06,17.53,5.87,22.12,10.69,41.33,21,58.72,31.42,2.65,1.6,5.58,3,8.67,4.57,5,2.44,10.08,5,14.24,8.26a2.77,2.77,0,0,1-1.72,5Z"/><path fill="#9b5750" d="M415.69,1056.89a2.78,2.78,0,0,1-1.89-.74c-16.24-15.09-35.56-27.05-54.24-38.61l-3.91-2.43c-2.6-1.6-5.61-3.07-8.8-4.63-8.66-4.21-18.46-9-22.56-18.37a2.78,2.78,0,0,1,5.09-2.23c3.28,7.52,11.73,11.63,19.9,15.61,3.32,1.62,6.46,3.15,9.3,4.91l3.91,2.42c18.9,11.7,38.45,23.8,55.09,39.26a2.78,2.78,0,0,1-1.89,4.81Z"/><path fill="#9b5750" d="M499,1162.6a2.17,2.17,0,0,1-.36,0c-6.75-.87-13.38-5.15-19.22-8.93-1.34-.87-2.62-1.69-3.83-2.43-19.67-12-34.07-27.29-48.29-43.25-2-2.2-4.16-4.28-6.29-6.3a81.41,81.41,0,0,1-8.81-9.3,2.77,2.77,0,0,1,4.39-3.39,77,77,0,0,0,8.24,8.66c2.21,2.1,4.5,4.26,6.61,6.64,13.94,15.63,28,30.62,47,42.19,1.26.77,2.58,1.62,4,2.51,5.35,3.46,11.42,7.38,16.92,8.1a2.77,2.77,0,0,1-.35,5.52Z"/><path fill="#9b5750" d="M403,1082.28a2.74,2.74,0,0,1-1.58-.5,47,47,0,0,1-5.45-4.67c-1.08-1-2.15-2-3.28-3-3-2.48-6-5.05-9.05-7.61-4.13-3.52-8.26-7-12.48-10.39-8.7-6.87-18.49-12.7-28-18.33-7.76-4.61-15.78-9.37-23.25-14.74-3.1-2.22-10.2-10.23-9.39-16.87a7.86,7.86,0,0,1,5.26-6.42c6.91-2.73,17.7,2,20.85,3.53a2.78,2.78,0,1,1-2.42,5c-5.58-2.7-12.8-4.78-16.38-3.37-1.44.58-1.72,1.3-1.79,1.93-.43,3.44,4.48,9.81,7.1,11.69,7.28,5.23,15.2,9.93,22.86,14.48,9.63,5.73,19.59,11.64,28.57,18.74,4.28,3.39,8.46,7,12.65,10.52,3,2.55,6,5.09,9,7.55,1.24,1,2.41,2.13,3.59,3.25a43.06,43.06,0,0,0,4.79,4.14,2.77,2.77,0,0,1-1.59,5Z"/><path fill="#9b5750" d="M591.82,1119.75h-.05a2.77,2.77,0,0,1-2.73-2.82c.26-14.24,4.74-28.18,9.07-41.65,2.61-8.14,5.32-16.55,7-24.73a2.77,2.77,0,0,1,5.44,1.09A236.18,236.18,0,0,1,603.4,1077c-4.21,13.09-8.56,26.63-8.81,40A2.77,2.77,0,0,1,591.82,1119.75Z"/><path fill="#9b5750" d="M603.3,1274.07a2.78,2.78,0,0,1-2.51-1.58c-2.34-4.91-5.13-14.14-7.83-23.08-2.14-7.1-4.17-13.8-5.74-17.59a2.77,2.77,0,0,1,1.5-3.63,2.81,2.81,0,0,1,3.63,1.5c1.68,4,3.74,10.88,5.93,18.12,2.63,8.73,5.36,17.76,7.52,22.28a2.78,2.78,0,0,1-1.3,3.71A2.87,2.87,0,0,1,603.3,1274.07Z"/><path fill="#9b5750" d="M435.92,761.66a115.82,115.82,0,0,1-43.13-8.5c-30.26-12.14-54-35.88-65.24-65.15a2.77,2.77,0,0,1,5.18-2c10.66,27.83,33.3,50.41,62.13,62,28.39,11.39,58.6,10.74,85.09-1.8a157.21,157.21,0,0,0,20.29-11.28,2.78,2.78,0,1,1,3.09,4.62,164.67,164.67,0,0,1-21,11.68A108,108,0,0,1,435.92,761.66Z"/><path fill="#9b5750" d="M405.58,898.48c-7.74,0-15-2.63-21.52-5.63a2.77,2.77,0,0,1,2.32-5c14.63,6.71,24.71,6.81,34.81.31a42.39,42.39,0,0,0,5.58-4.61c2.69-2.48,5.48-5,8.93-6.64a2.78,2.78,0,0,1,2.32,5c-2.66,1.22-5,3.38-7.48,5.67a48.34,48.34,0,0,1-6.34,5.2A33.75,33.75,0,0,1,405.58,898.48Z"/><path fill="#9b5750" d="M669.49,895.35a2.48,2.48,0,0,1-.54-.06c-9.75-1.95-19.85-2.87-29.61-3.76-5.27-.48-10.54-1-15.8-1.6-30.54-3.69-60.27-5.76-87.84-7.45-12.26-.75-24.78-.9-36.89-1.05-6.15-.07-12.29-.15-18.44-.29-2,0-4-.13-6.15-.21-7.63-.29-16.28-.61-23.34.43a2.78,2.78,0,0,1-.8-5.5c7.56-1.1,16.48-.77,24.35-.48,2.09.08,4.13.16,6.08.21,6.12.15,12.24.22,18.37.29,12.17.15,24.77.3,37.16,1.06,27.66,1.69,57.48,3.77,88.17,7.48,5.21.63,10.42,1.1,15.63,1.58,9.91.9,20.16,1.84,30.19,3.85a2.78,2.78,0,0,1-.54,5.5Z"/><path fill="#9b5750" d="M602.32,1041.54c-3.59,0-7.31-.3-10.71-.59-2.4-.2-4.53-.38-6.11-.38h-.29c-16.63,0-33.41-1.23-49.64-2.42-16.4-1.2-33.43-2.45-50-2.4h0a2.78,2.78,0,0,1,0-5.55c17-.22,34,1.2,50.45,2.41,16.13,1.19,32.81,2.41,49.23,2.41h.28c1.71,0,4,.18,6.58.4,7,.57,17.64,1.46,21.08-1.82,3.2-3,4.8-11.09,6.1-17.55.59-2.95,1.14-5.73,1.81-7.88,5.27-16.85,11.72-34.53,20.31-55.62,2.81-6.9,6.21-13.65,9.5-20.19,5.08-10.1,10.34-20.54,13.35-31.48a2.78,2.78,0,0,1,5.36,1.47c-3.16,11.48-8.54,22.17-13.75,32.51-3.24,6.44-6.59,13.09-9.32,19.79-8.53,20.94-14.93,38.47-20.15,55.18-.58,1.86-1.11,4.51-1.67,7.31-1.52,7.6-3.24,16.22-7.71,20.48C613.73,1040.72,608.2,1041.54,602.32,1041.54Z"/><path fill="#9b5750" d="M142.83,1024a2.65,2.65,0,0,1-2.55-1.79c-.91-2.6-.71-13.77.13-39.48.21-6.45.4-12.32.47-16.32.32-18.81,1-37.81,1.93-56.46.07-1.43.05-3.29,0-5.34-.05-6.25-.11-13.34,1.81-17.31,1.25-2.6,4.71-2.66,11.79-2.16.81.05,1.45.1,1.76.1,11.55-.67,25.2-1.37,38.78-1.56,8.89-.13,17.79-.31,26.69-.48,22.08-.44,44.92-.9,67.41-.5,9.63.16,19.38.8,28.81,1.42,16.83,1.09,34.23,2.23,51.2.68a2.78,2.78,0,0,1,.51,5.53c-17.41,1.59-35,.44-52.07-.68-9.37-.61-19-1.24-28.55-1.41-22.38-.39-45.16.07-67.2.51q-13.36.27-26.73.48c-13.46.19-27,.89-38.55,1.55a24.21,24.21,0,0,1-2.44-.1,51,51,0,0,0-6.74-.15c-1,3.17-1,9.39-.92,14,0,2.18,0,4.16-.05,5.67-.95,18.59-1.6,37.53-1.92,56.28-.07,4-.26,9.92-.47,16.4-.42,13-1.14,34.83-.42,37.53a2.85,2.85,0,0,1-1.86,3.44A3.12,3.12,0,0,1,142.83,1024Z"/><path fill="#9b5750" d="M151.56,1024.49a2.78,2.78,0,0,1,0-5.55c14.11-.2,28.42-.82,42.26-1.42,21.76-.95,44.25-1.92,66.62-1.29,6.9.19,13.94.17,20.75.13s13.88-.07,20.83.13c1.37,0,3.15.26,5.07.51,3.51.46,7.89,1,10.07.27a2.78,2.78,0,1,1,1.83,5.24c-3.42,1.19-8.31.56-12.62,0-1.71-.22-3.29-.44-4.51-.47-6.86-.19-13.86-.17-20.64-.13s-13.94.06-20.94-.14c-22.16-.61-44.56.35-66.22,1.29-13.88.61-28.23,1.23-42.42,1.43Z"/><path fill="#9b5750" d="M413.75,887a2.77,2.77,0,0,1-.68-5.46c1.5-.39,3-1.81,4.58-3.32a26.21,26.21,0,0,1,3.79-3.17c4.08-2.64,10.31-6,16.81-7,30.5-4.66,64.48-5.87,101-3.61,11.5.71,23.08,2.24,34.27,3.71,10.36,1.37,21.08,2.79,31.62,3.54,13,.92,26.09,2.19,38.78,3.42q6.93.69,13.87,1.34c.3,0,.91,0,1.7,0,8.31.06,13.13.66,14.82,3.64a4.36,4.36,0,0,1-.18,4.44A2.78,2.78,0,0,1,669,882.8c-1.2-.38-3.85-.73-9.53-.78-1,0-1.79,0-2.18,0l-13.88-1.34c-12.66-1.23-25.74-2.5-38.64-3.41-10.71-.76-21.51-2.19-32-3.57-11.1-1.47-22.57-3-33.88-3.68-36.13-2.24-69.72-1-99.83,3.56-5.52.84-11,3.8-14.63,6.14a22.17,22.17,0,0,0-3,2.53c-1.94,1.85-4.14,3.93-7,4.67A2.72,2.72,0,0,1,413.75,887Z"/><path fill="#9b5750" d="M411.36,884.21a2.77,2.77,0,0,1-1.82-4.87c1.29-1.12,2.55-2.26,3.81-3.39,4.64-4.19,9.44-8.53,15.45-11.61,32.6-16.75,68.83-15,106.19-11.42,5.76.54,11.58,1,17.4,1.35,10.11.7,20.58,1.42,30.72,2.93,21.81,3.24,45.88,3.76,66.55,3.85,4.79,0,10.3.76,14.92,6.08l.39.42c1.11,1.16,2.62,2.76,2.52,4.82a3.74,3.74,0,0,1-1.31,2.68,2.77,2.77,0,0,1-4.49-2.86c-.25-.29-.56-.62-.74-.81l-.56-.61c-2.59-3-5.6-4.15-10.75-4.17-20.86-.09-45.19-.62-67.35-3.91-9.92-1.48-20.28-2.19-30.28-2.88-5.87-.41-11.74-.81-17.55-1.36-37.89-3.59-71.81-5.26-103.13,10.83-5.36,2.75-9.68,6.65-14.26,10.79-1.29,1.16-2.57,2.32-3.89,3.46A2.75,2.75,0,0,1,411.36,884.21Zm251.17-13.34Z"/><path fill="#9b5750" d="M410.35,881.38a2.81,2.81,0,0,1-1.41-.39,2.77,2.77,0,0,1-1-3.8c26.93-45.51,92.19-38.3,127.26-34.42,4.14.46,8.27,1,12.4,1.63,4.57.65,9.14,1.3,13.71,1.77q7.45.75,14.9,1.43c5.11.48,10.22,1,15.33,1.49a338.24,338.24,0,0,0,45.6,1.94c.76,0,1.6-.09,2.48-.15,4.83-.38,13-1,14.77,6.11a2.78,2.78,0,0,1-5.38,1.37c-.57-2.2-3.34-2.38-9-2-1,.08-1.88.14-2.72.17a346.22,346.22,0,0,1-46.35-2c-5.09-.53-10.18-1-15.28-1.48s-10-.93-14.94-1.44c-4.65-.48-9.29-1.13-13.93-1.79-4.07-.58-8.14-1.16-12.23-1.61-46.82-5.17-98.71-7.42-121.87,31.73A2.8,2.8,0,0,1,410.35,881.38Z"/><path fill="#9b5750" d="M397.46,886.3a2.47,2.47,0,0,1-.54,0c-46.51-9.2-91-8.17-132.08-5.71-8.51.51-17.15.47-25.51.44-7.76,0-15.79-.07-23.64.35-2.54.13-5.1.3-7.67.46-10.86.7-22.1,1.42-33,0a37,37,0,0,1-5.56-1.35c-5.91-1.75-7-1.58-8,1.23a2.78,2.78,0,1,1-5.24-1.83c2.9-8.27,10.09-6.13,14.85-4.72a32.2,32.2,0,0,0,4.73,1.16c10.38,1.4,21.33.7,31.92,0,2.59-.17,5.18-.33,7.74-.47,8-.42,16.1-.39,23.95-.35,8.28,0,16.82.08,25.16-.43,41.48-2.49,86.36-3.51,133.48,5.8a2.78,2.78,0,0,1-.53,5.5Z"/><path fill="#9b5750" d="M393.79,879a2.48,2.48,0,0,1-.54-.06,654.48,654.48,0,0,0-114-12.71c-11.76-.2-23.71.95-35.24,2.08-9.07.88-18.45,1.8-27.78,2.05l-5,.16c-2.38.08-4.76.16-7.14.2a63.69,63.69,0,0,1-7.5-.4c-1-.09-2-.18-3-.25a66.27,66.27,0,0,1-9.14-1.52c-8.85-1.9-14-2.68-17.52,3.46a16.75,16.75,0,0,1-1.15,1.68c-.31.41-1,1.35-1,1.6a2.79,2.79,0,0,1-2.41,3.11,2.76,2.76,0,0,1-3.1-2.4c-.32-2.5,1.06-4.32,2.07-5.66a10.61,10.61,0,0,0,.76-1.08c5.67-10,15.15-7.94,23.51-6.14a61.34,61.34,0,0,0,8.36,1.41c1,.08,2.07.17,3.11.27a65,65,0,0,0,6.88.38c2.35,0,4.71-.13,7.06-.21l5-.16c9.13-.24,18.41-1.15,27.39-2,11.69-1.14,23.82-2.37,35.89-2.1a660,660,0,0,1,115,12.81,2.78,2.78,0,0,1-.54,5.51Z"/><path fill="#9b5750" d="M391.51,870.26a2.77,2.77,0,0,1-1.7-.58c-7.08-5.48-19.32-8.11-29.15-10.22-1.86-.4-3.63-.78-5.27-1.16-30.15-6.94-61.36-3.89-91.55-.92-10.38,1-21.13,2.08-31.68,2.71-10.72.64-23.15,1.26-35,.51a39.91,39.91,0,0,1-6.72-1.18c-5.85-1.39-7.61-1.6-9.18,2.88a2.78,2.78,0,1,1-5.24-1.83c3.3-9.41,10.47-7.7,15.71-6.45a35.08,35.08,0,0,0,5.78,1c11.59.74,23.81.12,34.36-.51s21.15-1.68,31.48-2.69c30.63-3,62.31-6.11,93.33,1,1.62.37,3.37.75,5.2,1.14,10.38,2.23,23.3,5,31.38,11.26a2.77,2.77,0,0,1-1.7,5Z"/><path fill="#9b5750" d="M406.62,875.37a2.76,2.76,0,0,1-2.31-1.23c-24.71-36.87-80.45-32.61-121.15-29.52l-7.55.57a198.86,198.86,0,0,1-20.15.77H250.9c-3.19,0-6.4.12-9.61.22-4.09.14-8.19.29-12.26.21a116.43,116.43,0,0,1-14-1.32c-1.62-.21-3.24-.43-4.87-.63a17.31,17.31,0,0,1-1.86-.35,9,9,0,0,0-2.75-.36c-1.85,1.13-3.23,3.56-4.58,5.9l-.77,1.34a2.78,2.78,0,1,1-4.78-2.83l.73-1.26c1.62-2.82,3.45-6,6.6-7.93,2.16-1.32,4.82-.72,6.77-.28a12.26,12.26,0,0,0,1.29.26c1.66.2,3.31.42,5,.64a112.81,112.81,0,0,0,13.37,1.27c4,.06,8-.07,12-.2,3.27-.12,6.54-.23,9.79-.23h4.57a192.28,192.28,0,0,0,19.75-.76l7.53-.57c42.06-3.21,99.67-7.6,126.18,32a2.78,2.78,0,0,1-2.3,4.32Z"/><path fill="#9b5750" d="M614,1131.43a2.78,2.78,0,0,1-2.78-2.77c0-19.85-1.3-36.25-4.09-51.63-.31-1.68-.53-3.64-.75-5.71-.46-4.17-1-8.89-2.45-11.85a2.77,2.77,0,1,1,5-2.48c1.92,3.84,2.5,9.1,3,13.73.21,1.92.41,3.75.69,5.31,2.86,15.72,4.19,32.45,4.19,52.63A2.78,2.78,0,0,1,614,1131.43Z"/><path fill="#9b5750" d="M613,1079.47a2.78,2.78,0,0,1-.81-5.44c3.7-1.13,7.24-2.5,11-4,4.32-1.67,8.78-3.4,13.45-4.7a183.91,183.91,0,0,1,78.38-4.23,2.77,2.77,0,0,1-.92,5.47,178.31,178.31,0,0,0-76,4.11c-4.41,1.23-8.74,2.9-12.93,4.53-3.68,1.43-7.48,2.9-11.38,4.1A2.84,2.84,0,0,1,613,1079.47Z"/><path fill="#9b5750" d="M140.87,1009.52a2.75,2.75,0,0,1-1.92-.77c-2.38-2.28-12.87-6.77-21.18-9.53a153.38,153.38,0,0,0-75.42-5.58,2.78,2.78,0,0,1-1-5.47A159.12,159.12,0,0,1,119.52,994c5.12,1.7,19.27,6.95,23.27,10.79a2.78,2.78,0,0,1,.08,3.93A2.74,2.74,0,0,1,140.87,1009.52Z"/><path fill="#9b5750" d="M400.93,502.82a45.42,45.42,0,0,1-15.83-3.37c-3.89-1.56-5.16-1.1-5.38-1a2.77,2.77,0,0,1-2.48-5c3.16-1.58,7.17-.3,9.92.81,4.67,1.87,11.9,3.69,16.86,2.7l1.61-.36c3-.7,6.81-1.56,9.7-.61a2.78,2.78,0,0,1-1.76,5.27c-1.4-.47-4.72.29-6.7.75l-1.77.39A21.56,21.56,0,0,1,400.93,502.82Z"/><path fill="#9b5750" d="M396.89,505.8a8.17,8.17,0,0,1-1.31-.11,7.33,7.33,0,0,1-5.49-4,2.77,2.77,0,1,1,5-2.48,1.85,1.85,0,0,0,1.42,1,2.62,2.62,0,0,0,2.23-.66,2.78,2.78,0,1,1,3.92,3.93A8.17,8.17,0,0,1,396.89,505.8Z"/><path fill="#9b5750" d="M498.64,507.16a20.49,20.49,0,0,1-4-.37l-2.63-.56c-4.7-1-10-2.15-14.14-1.12a2.78,2.78,0,0,1-1.34-5.39c5.35-1.33,11.35-.05,16.64,1.09l2.55.53c3.29.66,6.85,0,10.6-.75a46.11,46.11,0,0,1,8.65-1.1,2.78,2.78,0,0,1,0,5.56,41.74,41.74,0,0,0-7.6,1A45.76,45.76,0,0,1,498.64,507.16Z"/><path fill="#9b5750" d="M496.09,510.73a11.14,11.14,0,0,1-1.74-.14A6.92,6.92,0,0,1,489,507a2.77,2.77,0,1,1,5-2.48c.21.43,1,.59,1.28.64a5.81,5.81,0,0,0,4.16-.91,2.78,2.78,0,1,1,3.93,3.93A10.69,10.69,0,0,1,496.09,510.73Z"/><path fill="#9b5750" d="M479.46,472.61a2.77,2.77,0,0,1-1.5-5.11c10.18-6.52,22.6-4.95,33.56-3.57,2.29.29,4.53.58,6.69.77a2.78,2.78,0,0,1-.51,5.54c-2.22-.21-4.52-.5-6.87-.8-10.51-1.32-21.38-2.7-29.88,2.74A2.8,2.8,0,0,1,479.46,472.61Z"/><path fill="#9b5750" d="M421.72,471.49a2.74,2.74,0,0,1-1.63-.53c-2.15-1.23-27.82-10.48-40.75-7.37a2.77,2.77,0,1,1-1.3-5.39c15.13-3.67,42.84,6.47,45.31,8.27a2.77,2.77,0,0,1-1.63,5Z"/><path fill="#9b5750" d="M435.57,554.58a2.79,2.79,0,0,1-2.32-1.23c-3.39-5.1-8.52-12.8-5.77-21a20,20,0,0,1,4.33-6.69c1.63-1.9,3.17-3.68,3.6-5.82,2.09-10.45,1.33-20.2-2.48-31.63a2.78,2.78,0,0,1,5.27-1.76c4.07,12.23,4.92,23.18,2.65,34.48-.71,3.56-2.9,6.11-4.84,8.35a16,16,0,0,0-3.27,4.82c-1.74,5.23,1.44,10.65,5.14,16.2a2.77,2.77,0,0,1-2.31,4.31Z"/><path fill="#9b5750" d="M444.14,603.12a58.1,58.1,0,0,1-17.27-2.66c-7.1-2.24-11.86-4.27-13.35-7.26a2.77,2.77,0,0,1,5-2.49c.31.48,1.88,1.87,9.66,4.33,11.47,3.65,27.43,4,36.35-3.69a2.78,2.78,0,0,1,3.61,4.22C461.81,601,453,603.12,444.14,603.12Z"/><path fill="#9b5750" d="M376.8,989.14h-.13a2.77,2.77,0,0,1-2.64-2.9l4.25-92a2.81,2.81,0,0,1,2.9-2.65,2.77,2.77,0,0,1,2.65,2.9l-4.26,92A2.77,2.77,0,0,1,376.8,989.14Z"/><path fill="#9b5750" d="M421.26,1003.44H421a2.78,2.78,0,0,1-2.54-3L427,897.23a2.71,2.71,0,0,1,3-2.54,2.77,2.77,0,0,1,2.54,3L424,1000.89A2.78,2.78,0,0,1,421.26,1003.44Z"/><path fill="#fff" fill-rule="evenodd" d="M207.57,270.32c-5.69,6-18.06,24-6.47,29.76,10.64,5.32,33.12-4.19,40.12-12.94,5.66-7.09,9.56-30.18-2.59-33.65C224.46,249.44,216,261.42,207.57,270.32Z"/><path fill="#9b5750" d="M208.64,304.36a19.64,19.64,0,0,1-8.78-1.8,10.82,10.82,0,0,1-6.13-8c-1.67-9.46,8-22.1,11.82-26.17,1-1.05,2-2.14,3-3.24,7.45-8.2,16.73-18.37,30.85-14.35,4.26,1.22,7.32,4.41,8.86,9.24,2.92,9.15-.22,23-4.86,28.81C237.35,296.42,221.1,304.36,208.64,304.36Zm24.46-48.9c-8.23,0-14.2,6.56-20.45,13.44-1,1.13-2.05,2.25-3.06,3.32h0c-4.81,5.09-11.44,15.4-10.38,21.4a5.27,5.27,0,0,0,3.14,4c9.35,4.68,30.6-4.57,36.71-12.19,3.3-4.13,6.39-15.88,3.91-23.66-1-3.06-2.64-4.89-5.09-5.59A17.27,17.27,0,0,0,233.1,255.46Zm-25.53,14.86h0Z"/><path fill="#fff" fill-rule="evenodd" d="M272.93,311.53c-2.15,2.88-5.12,16.06-.65,19.41,6.12,4.59,16.86-.09,19.41-6.47C297.79,309.23,284.22,296.35,272.93,311.53Z"/><path fill="#9b5750" d="M278.25,335.55a12.61,12.61,0,0,1-7.64-2.39c-6.35-4.77-2.53-19.78.09-23.29,6.48-8.71,13.7-9.08,18.28-6.51,5.6,3.13,9.36,12,5.29,22.14-1.7,4.23-6.19,7.92-11.46,9.4A17.13,17.13,0,0,1,278.25,335.55Zm5.38-28c-2.71,0-5.72,2-8.48,5.68h0c-1.78,2.39-3.73,13.63-1.21,15.53,1.79,1.34,4.48,1.64,7.37.84,3.55-1,6.76-3.52,7.8-6.12,2.8-7,.75-13.23-2.84-15.24A5.39,5.39,0,0,0,283.63,307.51Zm-10.7,4h0Z"/><path fill="#fff" fill-rule="evenodd" d="M83.62,97.25C82.79,83,80.29,68,87,54.6c11.48-22.94,35.75-32.42,59.82-26,8.19,2.19,18.57,6.09,25.48,10.93.46.32,10.79,9.49,12,8.32,4.55-4.56,6.11-14.44,11.44-19.76,20.7-20.71,65.71-40.81,86.34-7.81a67.26,67.26,0,0,1,10.4,29.65c.21,2.35-2.43,16.29-1.56,17.16.34.34,7.6-3.75,8.84-4.16,5.19-1.73,11.88-2.36,17.16-1,33.24,8.31,52.18,43.61,48.89,76.46-3.73,37.34-35,69.17-72.81,69.17-9.59,0-19.41-3.94-28.61-6.24-1.58-.4-8.58-2.43-9.88-1.56-.87.58-.85,4.52-1,5.2-1.38,4.82-3.72,11.55-6.76,15.61-8.79,11.72-29.87,21.85-44.21,22.88-12.56.9-25-.57-34.33-9.88-1.73-1.73-8.94-15.89-10.92-14.56-3,2-4.22,7.84-7.8,10.4-20.84,14.88-58.75,15.78-78-1.57C62.63,219.9,58.52,207.06,60,195.55c.24-1.89,4.56-9.76,3.49-10.83-.12-.12-6.61-3-8.69-4.26-13.16-7.89-21.49-29.2-19.31-44.17C40.74,99.91,83.78,100,83.62,97.25Z"/><path fill="#9b5750" d="M196.39,246.41c-9.57,0-21.18-1.9-30.21-10.93a34.49,34.49,0,0,1-3.54-5.3c-1.23-2-3.51-5.79-5-7.69a28.62,28.62,0,0,0-1.53,2.57c-1.27,2.28-2.71,4.87-5.08,6.56C130.1,246.57,90.8,249,69.54,229.86c-9.1-8.2-13.94-21.8-12.34-34.66a21.76,21.76,0,0,1,1.74-4.81c.45-1.06,1.19-2.78,1.61-4h0c-2.87-1.33-5.78-2.7-7.2-3.56-14.89-8.93-22.82-31.91-20.63-47,4.41-30.3,32.89-36.78,45.05-39.55,1-.23,2.16-.49,3-.71-.1-1.55-.22-3.11-.34-4.67-.94-12.54-1.92-25.52,4.12-37.6,11.68-23.35,37-34.38,63-27.45,3.86,1,17.16,4.89,26.37,11.33l1,.84a84.31,84.31,0,0,0,8.41,6.59A40.42,40.42,0,0,0,187,37.56c1.79-4.08,3.64-8.31,6.78-11.45C208,11.9,233.4-2.22,255.6.29c12.31,1.4,22,7.63,28.8,18.51a69.91,69.91,0,0,1,10.81,30.87c.12,1.25-.21,3.73-.8,8-.2,1.45-.47,3.41-.66,5.11l1.16-.6a35.87,35.87,0,0,1,3.95-1.9,35.45,35.45,0,0,1,18.7-1.1c36,9,54.18,47.45,51,79.42-4,40.19-37.22,71.68-75.58,71.68-7.37,0-14.66-2.14-21.72-4.21-2.56-.75-5.08-1.5-7.56-2.12l-.84-.22a53.53,53.53,0,0,0-6.35-1.41c-.07.56-.12,1.18-.15,1.54a12.86,12.86,0,0,1-.24,1.81c-1.45,5.07-3.88,12.06-7.21,16.5-9.66,12.88-32.12,23-46.23,24C200.72,246.31,198.61,246.41,196.39,246.41ZM157.7,216.12a2.49,2.49,0,0,1,.57.06c2.35.51,4.33,3.23,9.12,11.12,1,1.7,2.32,3.82,2.73,4.27,7.33,7.33,17.25,10.13,32.15,9.06,12.9-.92,33.68-10.43,42.19-21.78,3-4,5.23-10.91,6.31-14.7a7.06,7.06,0,0,1,0-.72c.2-2.4.39-4.88,2.13-6s4.33-.89,11.34,1l.76.2c2.55.63,5.15,1.4,7.77,2.17,6.68,2,13.59,4,20.16,4,35.54,0,66.31-29.29,70-66.68,3-29.63-13.73-65.22-46.8-73.49a30.31,30.31,0,0,0-15.61,1c-.49.19-1.76.86-3.15,1.57-5.71,2.95-6.9,3.56-8.54,1.92-1.36-1.37-1.25-3.08,0-12.12.35-2.52.82-6,.77-6.76a64.52,64.52,0,0,0-10-28.41C273.83,12.37,265.52,7,255,5.81,235.49,3.59,211.39,16.32,197.67,30c-2.4,2.4-4,6.14-5.62,9.75-1.68,3.83-3.26,7.45-5.82,10-2.29,2.29-5.08.88-14.92-7.49l-.69-.59C165,37.79,155.8,33.86,146.1,31.27,122.71,25,100,34.91,89.49,55.84c-5.36,10.71-4.44,22.91-3.55,34.7.17,2.2.33,4.38.46,6.54h0c.17,2.94-2.53,3.55-7.42,4.66-11,2.52-36.92,8.41-40.79,34.94-1.93,13.28,5.35,33.81,18,41.39,1.28.78,4.79,2.41,6.68,3.28,2.16,1,2.16,1,2.55,1.39,2,2,.65,5.12-1.39,9.84a30.83,30.83,0,0,0-1.32,3.35c-1.38,11.06,2.75,22.78,10.55,29.79,19,17.15,55.71,14.82,74.55,1.37,1.34-1,2.41-2.88,3.44-4.74,1.21-2.16,2.45-4.4,4.43-5.72A4.09,4.09,0,0,1,157.7,216.12Z"/></svg>