<svg xmlns="http://www.w3.org/2000/svg" viewBox="0 0 2745 1830"><path fill="#ffe5d0" fill-rule="evenodd" d="M187.92,1089.31l2362.9,24.92S2496.69,1585.92,1363.58,1604c-320.88,5.11-587.32-6.42-754.49-70.84C199.34,1375.25,187.92,1089.31,187.92,1089.31Z"/><g><path fill="#feede5" fill-rule="evenodd" d="M1648,774.84c0-58.83-53.73-55.82-97.34-55.82s-85.33,35.15-85.33,94,56.73,134.27,100.35,134.27c21.43,0,36-31.67,51.07-66.55C1632.34,844.61,1648,804.77,1648,774.84Z"/><path fill="#feede5" fill-rule="evenodd" d="M1798.68,1172.18c-4.7-6.14-13.91-18.61-18.07-25.65-4.49-7.62-11.79-14.36-14.82-19.7s-13.36-13.19-17.7-15.54-7.13-4.53-14.32-5.69-10.91-1.86-21.36,2.55-26.69,9.75-36.9,10.22-22.75-1.86-32.49,4.87-25.77,22.28-28.32,30.87,0,9.74,8.36,11.6,13.92,9.28,26.46,12.77,22.51-2.32,30.63,2.09,5,8.24,14.86,10c11.83,2.08,15.78,1.85,24.13-1.16s14.16-.7,20.66-5.11,21.35-6.73,22.28-15.55-4.87-22,.93-14.16,12.3,16.94,21.81,23.21,20.66,17.41,21.13,10.44S1803.38,1178.32,1798.68,1172.18Z"/><path fill="#feede5" fill-rule="evenodd" d="M1052,780.91c0-58.84,50.88-51.83,94.5-51.83s95.39,73.15,93.2,91.59-12.13,16.73-22.63,24.13c-9.12,6.43-7.72,21.49-7.16,28.54,5,63.85-51.75,90.54-81.44,90.54-10.13,0-21.54-22.29-27.2-35.68-6.32-15-3.84-28.48-15.63-44.69-11.12-15.29-14.33-30.39-19.56-51.35C1061.84,815.06,1052,794.35,1052,780.91Z"/><path fill="#feede5" fill-rule="evenodd" d="M1027.17,1096.43c1.83-8.32,2.83-15.4,8.88-23.4s12.76-16.51,20.4-19.75,18.21.25,28.84,1.88,39.72,6.27,49,8.94,27.11,3.43,40.23,4.14,24.75,3.17,30.44,9.43,10.62,14.67,16.6,19,6.59,5.94,16,9.08,17.36,2,17.29,8.47-8.49,13.45-13.51,14-4.15,3.32-4.2,10-6.79,10.24-10.19,6.68-5.91-9.83-9.84-15.81-9.55-10-12.55-12.49-3.64,7-5.76,10.43-3.59,10.35-10.83,8.9-7.86,1.82-16.25-.61-10.69-.92-18.55-1.13-15.9-.19-18-4.51,3.71-6.12-.24-10-11.71-6.54-16.74-6.32a38.74,38.74,0,0,1-18.29-3.45c-6.65-3.14-19.88-5.88-28.77-5.51s-13.21,2.81-19.93,1.08S1025.34,1104.75,1027.17,1096.43Z"/><path fill="#feede5" fill-rule="evenodd" d="M511.77,786.82c0-64,57.1-60.69,103.44-60.69s90.67,38.21,90.67,102.18-60.28,146-106.63,146c-22.77,0-38.28-34.43-54.27-72.35C528.42,862.67,511.77,819.35,511.77,786.82Z"/><path fill="#feede5" fill-rule="evenodd" d="M2277.94,784.35c0-64-58.81-83-105.16-83-38.8,0-46.25,40.43-76.35,74.85-6.71,7.67-8.32,11.2-8.32,21.6,0,12.38,12,19.95,18.17,31.88,2.41,4.69,5,14.9,4.56,20.77-2.79,34.16-30.79,15.69-11.46,50.06,21.07,37.46,61.76,49,89.36,49,22.77,0,39.64-50.43,55.64-88.35C2260.93,821.94,2277.94,816.88,2277.94,784.35Z"/><path fill="#eac6b0" fill-rule="evenodd" d="M1046.39,780.84c-4.08-13.14-3.16-17.45-1.8-33.76s3.86-31,12.92-45.32,22.88-29.91,33.3-36,17.9-3,25.38-4.54,16.77-6.34,27.42-7.93,26.28-.68,36.25,1.36,26.28,5.89,35.57,13.82,16.54,10.2,20.4,22.43,5.88,22.21,8.61,40.11,2.49,41.46,1.58,52.79-4.31,32.41-7.93,26.51-7-10.2-12.23-8.15-13.14-7.48-25.84-8.84-29.9-1.36-39.42-5.44-29.23-15-36.93-22.2-14.5-19.49-20.85-28.55-29.4-1.14-32.34,11.32-8.67,20.17-11.61,27.42a45.36,45.36,0,0,0-3.75,17C1055.12,796.88,1050.47,794,1046.39,780.84Z"/><path fill="#bf8f8b" fill-rule="evenodd" d="M2318.14,772.43c2.84-9.12-1.35-6.15-5-12.81-1.59-2.93-.36-28.09-.77-33.08-1.36-16.31-6.81-24.57-15.88-38.84s-23.05-21.13-33.47-27.25-20.25-7.94-27.73-9.52-14.41-1.35-25.07-2.94-25.55-7.29-35.52-5.26-31.88,3.92-41.17,11.85-17.9,16.79-21.75,29-11.08,23.93-19.17,49.6c-5.44,17.27-4.6,29.84-3.69,41.16s6.15,2.64,8.44,1.06c5.69-3.94,14.07,10.55,20.22,10,5.58-.48,15.66-8.1,29.55-30.08s19-26.53,28.5-30.61c4.14-1.77,21.08-6.92,31,1.94,12.91,11.53,19.06,31.79,22.64,36.59,15.82,21.2,24.45,34.47,55.58,35.7C2296,799.43,2314.07,785.57,2318.14,772.43Z"/><path fill="#ffdfac" fill-rule="evenodd" d="M1614.64,875.73c-7.1,5.77,12.24,1.79,19.63-6.88s15.82-21.93,18.88-37,8.41-43.09,7.13-55.84-2-39.78-6.12-52.27-9.94-26.53-17.59-35.19-21.93-24.23-31.11-27.29-21.16-1.27-30.6-3.82-25.5-3.06-35.19-4.09-26,0-35.7,6.13-24.22,19.89-28.3,30.08-11,18.11-13.77,36.47-3.57,44.88-5.87,59.67-4.33,28.56-7.14,36.72-6.63,23.46-6.63,33.66-.25,21.16,5.87,29.07,15.81,16.32,21.93,22.44,4.59,7.9,3.32,17.33-1.79,14.29-5.11,23.47-7.65,19.12-5.6,28.81,5.35,22.18,12,30.85,10.2,17.85,18.36,20.66,11-2.55,16.06-10.46,12.24-24.73,13-34.93,2.29-21.68-2.55-32.13-12-20.15-12.75-27-1-11.48.76-23.71-1.27-24.48-3.82-34.43-4.85-22.18-9.44-26.52-11.47-4.08-16.83-10.2-10.19-12.24-10.19-18.87,3.06-14.28,7.39-15.55,7.39-2,13.26,5.1,2.55,14.79,12.75,8.16,12-14.54,23.2-22.69,25.5-19.39,34.43-28.82,17.85-25.75,31.62-26.77,21.67-3.06,31.11,2.29,15,18.87,16.57,29.83,4.08,25,3.06,33.66S1634,813.26,1633,825s-.51,15-5.35,23.2S1618.72,872.42,1614.64,875.73Z"/><path fill="#f3877d" fill-rule="evenodd" d="M547.61,892.51c2.65,2.16,5,10.12,14.12,18.69,4,3.79,32.5,129.31-11.81,133.36-39,3.56-36.73-145.08-38.52-148-11-17.63-.67-49-3.81-64.56s-7.74-46.87-6.43-60,1.65-23.52,5.84-36.42,10.22-27.39,18.08-36.34,22.53-25,32-28.17,21.75-1.32,31.44-4,26.21-3.16,36.16-4.21,26.73,0,36.68,6.31,24.9,20.54,29.08,31.07S701.67,719,704.56,738s6.89,43,9.25,58.32,4.33,28,7.21,36.42,3.8,18.49,3.8,29S713.05,883,707.36,887.33c-8.18,6.26-4.9,31.77-11.19,38.09s-4.72,8.16-3.4,17.9,1.83,14.75,5.23,24.23,7.87,19.74,5.77,29.75-5.5,22.9-12.32,31.86-10.48,18.43-18.86,21.32-11.27-2.63-16.51-10.79-12.57-25.54-13.36-36.07-2.36-22.38,2.62-33.18,11.65-25.09,12.43-32.19,3.38-13.21,1.54-25.85c-1.18-8.13,1-6.73,3.29-14.15,1.3-4.11,1-11.81,1.89-15.48,2.62-10.26,6.88-16.57,11.6-21s9.08-2,14.58-8.35,11.38-9.85,11.38-16.7-1.61-19.73-6.07-21-8.77-2.82-14.79,4.55-6,9.41-16.46,2.57-12.32-15-23.84-23.44-26.2-20-35.37-29.75S587.17,743,573,741.91s-22.27-3.16-32,2.36-15.46,19.49-17,30.81-3.41,31.3-2.36,40.24,6,12.68,7.08,24.79.52,15.54,5.5,24S543.42,889.09,547.61,892.51Z"/><path fill="#fff" fill-rule="evenodd" d="M1771.94,1134.78c2.11,2,10-3.29,19.2-8.35s12.48-12.47,15.74-21.69c5.15-14.55-2.18-32-6.72-38.2-7.34-10.06-12.33-28.73-25.34-44.92-10.27-12.78-6.14-14.2-17.27-33.4s-10.75-19.06-19.45-34c-8.06-13.83-11.43-18-21.29-28.37s-6.9-7.77-20.93-18.59-31.51-17.68-44.91-21.63-18.7-5.89-29.71-7.92-9.53.13-17,6.14-5.35,7.24-11.77,19.13-9.3,20.64-14,27.79-3.92,7.5-13,.75-19.7-14.4-28.67-21.76a280.44,280.44,0,0,1-23.26-21.39c-5.66-5.9-3.54-.23-4.53,7.39s-.92,9.53-3.19,16.08-1.1,8.23,2.47,16.27,11.45,18,12.52,24.68,5.89,16.07,3.11,26.53-4.06,17.39-10.2,28.91-13.86,25.91-23.5,17.59-18.62-18-20.61-26.59-5.88-24.09-5.07-33,4.2-13.57,7.68-25.58,3.1-10.71,2.47-19,.78-9.32-5.19-14.56-13.09-10.55-17.64-17.8-6.66-14.12-10.64-13.67-21,3.73-27.85,7.39-18.21,11-23,21.87-9.72,27.24-9,41,.9,26.56,4.32,43.82,5.87,30.23,6.48,42,5.34,31.32,7.46,44.37,8.46,34.15,16.8,41.26,16.2,13.47,31.72,20.84,33.52,15,66,22,47.84,11.14,66.52,14.24,38.18,10.69,35.4,2.52-3.24-16.88.29-23.67,16-20.46,23.24-24.9,22-8.88,30.5-9.3,31.16-6.8,31.16-6.8a91.35,91.35,0,0,1,26-7C1743.57,1103.52,1769.06,1132.06,1771.94,1134.78Z"/><path fill="#fff" fill-rule="evenodd" d="M1952.49,1178.43c-2.55-.72-22.38-5.09-31.11-9.64s-34.74-12.19-45.3-16.37-32.92-10.74-44.56-13.64-34.87-11.37-41.14-9-16.88.87-15.46,6.55c2.79,11.14,21.13,31.38,25.13,37.93s11.46,20.37,3.64,15.28-19.65-9.46-24.93-15.28-13.37-16.49-17.31-19.55.58,8.75,1.31,11.52.73,8.44-6.26,11.07-14,7.87-18.65,9a59.54,59.54,0,0,1-13.85,2c-7.14.44-6.26,4.22-13.11,3.79s-9,3.06-19.23-3.06-7.43-9.33-17.63-9.47-22.44,2.62-29.58-2.33-10.2-6.71-18.65-9.77-15.13-6.32-13.43-1.22,9,15.74,3.28,13.48-21-3.18-37.25-7-43.75-10.64-52.28-11.82-19.27,3.18-24.45,3.7-59.37,12.56-66.46,12.74,23,16.39,43.47,22.54,66.65,22.11,85.17,28.58,26.73,12.15,39.33,11.52a222,222,0,0,0,37.68-5c15.36-3.18,38.7-6.72,57.39-8.89s42.65-6.51,54.14-6.74c10.09-.21,17.35,1.69,26.53-1.27s26.93-4.65,39.79-7.32,20.51-2.14,42.69-5c19.26-2.47,13.72-1.56,33.78-7.25S1955,1179.16,1952.49,1178.43Z"/><path fill="#fff" fill-rule="evenodd" d="M784.12,1146c13-4,25-7.56,39-14.78s27.38-14.6,35.24-18.81,11.75-4.08,17.14-.87,22,4.48,30.23,4.48,23.83.4,36.5-3.23,36.35-10.07,48.1-12.49a88.53,88.53,0,0,1,36.06.16c12.57,2.53,22.71,4.87,31.58,11.43s9.12,9.71,17.56,13.89,16.06,8.35,25.48,3.7,21.85-13.92,27.72-13.48,6.52,4.67,5.48,8a6.73,6.73,0,0,0,5.31,8.57c4.47.74,10.3,3,16,1.47s10.8.23,15.16.24,12,2.37,16.84,2,7.86-2.54,10.28-8a73.32,73.32,0,0,0,4-11.66c.88-3,2.16-3.35,6.09,1.68s7,7.68,11.27,15.66,7.61,12.49,11.57,13,6.29-1.24,6.15-4.9-2.66-11.92-.27-12.5,12-7.63,15.46-7,5.23,1.4,16.71,3.34,19.28,4.88,30.93,5.56,30.47-.17,40.13.26,15.58.08,19.52,1.18,3.76.66-1.26,8.62-18.37,29.2-23.7,40.23-12.46,19-13.06,31.66,2.66,17.61-3.5,18.12-15.42,3.41-33.89,2.52-30.76-1.86-49.67-8.61-24.23-9.32-42.7-15.57-67.24-18.4-86.56-19.4-100.22,2.72-107.23,4,.73,1-19.3-3.74-103.7-13.6-127.77-15.94-30.86,5.2-48.14-.78S771.16,1150,784.12,1146Z"/><path fill="#fff" fill-rule="evenodd" d="M817.27,1130.66c.74-8.18,3.61-20.46-7.48-21.13s-289.17-21.74-310.35-20.88-175.32,24.26-183.37,27.9a171.1,171.1,0,0,0-31.66,18.6c-12.54,9.25-31.08,24.66-44.16,31.4s-17.95,9.27-23.32,12.83,8.36,1.16,19.3,1.94,24.58-1.41,49.64-.44,164.33,12.46,175.55,14.47,13.31,3.78,26.46-1.43,64.27-7.52,87.73-5.14,99.17,17.31,130.48,20.1,98.67.92,104.61.17,3-16.39,2-26S816.52,1138.84,817.27,1130.66Z"/><path fill="#feede5" fill-rule="evenodd" d="M835.34,1051c-2.59-9.88-8.91-17.84-12.2-28.67S812.31,988,808.55,975.72s-.94-22.82-9.18-23.29-57.88,33.17-60.71,45.41-1.41,21.41,1.18,32.94,10.35,18.59,1.65,21.18-41.18,18.83-53,19.77-33.65,6.58-44.47.7-22.36-4.94-37.42-12.47-24.94-6.35-38.59-8-26.46,1.56-42.31,1.92-37,3-52.82.72-26.52-4-32.85-5.37-1.57-5.53,2.16-11.23,7.13-16.78,15.63-22.69,13.7-8.94,12-17.32-14.88-38.84-23-52.37-19.65-26.43-24.33-18.7-16.51,27.77-22.12,35.46-24.12,30.79-33.27,40.61-25.64,25.68-33.74,34.88-22.65,23.25-26.69,34.65-9.36,15.91-4.49,27.14,8.73,19.06,17.82,22.09a122,122,0,0,0,34.13,6.13c14.42.68,30.92-1.57,43.95-4s40.25-8.67,49.65-11.92,34-8.32,44.37-9.85,26.7-5.46,24,2.14a156.88,156.88,0,0,0-6.45,21.54c-1.68,7.92.89,15,7.55,6.73s11.07-13.79,14.58-20.23,6.46-9.75,10.57-2.79,2.09,13.84,8.34,16.38,6.77,3.16,12,5.26,8.94.93,16.83,2,2.21,5,12.53,5.89,11.73-1.82,13.3-6.31,2.84-1.94,8.79,1.26,14.15,7.19,23.5,4.92,10.22-1.66,28.14-2.16,50.14.76,72.91-4.9,36.71-5.61,56.85-13.86,32.64-12.78,41.59-19.27,6.16-10.34,7.68-18.59S837.93,1060.86,835.34,1051Z"/><path fill="#fff" fill-rule="evenodd" d="M1977,1182.59c-13.5-10.56-44.82-23-62-35.65s157.12-28.55,174.6-30.8,45.16-7.09,67.48-9.51,31.5-4,47.42,2.24,21.11,10.56,37.37,18.52,12.81,4.5,28.55,2.6,33.52-5.7,51.09-.72,54.51,13.52,63.9,16.31,20.38,5.52,31.24,5.34,16.67-.69,23.81,5.38,16.69,9.25,30.56,17.69,26,15.5,11.54,19.54-17.5,12.65-41.65,8.74-127.79-15.26-136.33-15.51-47.67-.12-68.07.5-102.91,9.6-112,9.86-63.68.14-73.69,2.3-39,3.21-46.76,1.21S1990.54,1193.15,1977,1182.59Z"/><path fill="#728bad" fill-rule="evenodd" d="M1616,1239.56l143.09-21.6s6.59,3.42,11.79,2.59,25.58-6.16,36.47-8.12,79.05-3.53,88.35-7.55,39.27-16,25.15-12.69-79.63,8.73-94.1,11-62.39,13.3-67.51,12.07-44.91,2.67-56,4.91-64.85,8.62-72.22,11.18S1616,1239.56,1616,1239.56Z"/><path fill="#f3877d" fill-rule="evenodd" d="M791.64,1179.06,991.73,1197a62.2,62.2,0,0,0,16.87-2.21c10.11-2.57,39,2.56,59.49,5.24s152.75,22.65,152.75,22.65-12.85-7.09-21.36-10.65-32-12.83-43.77-14.89-81.66-11.53-97.46-11.06-53.29,4.5-60,5-9.62-.6-19.68-2.85-52.38-6.26-74.87-9.45-68.74-7.67-86.74-8S791.64,1179.06,791.64,1179.06Z"/><path fill="#728bad" fill-rule="evenodd" d="M725.48,1217.25c16.53,2.09,72-6,57.29-8.66s-36.39-1.79-68.42-6.25-79.29-7.91-102.29-12-58.13-9-78-9.16-41.76,7.47-55.26,8.14-37.12-2.2-68.6-5.56-93.61-4.91-108.84-5.22-43.3,4.35-33.92,5.2,40.95,5.38,58.15,6,99.91,4.29,116.72,6.42,43,.65,53.28-1.67,33.51-4.4,45.61-1.54,47.4,6.65,63.22,7.76,65.58,10.72,77.85,12.45S708.94,1215.16,725.48,1217.25Z"/><path fill="#f3877d" fill-rule="evenodd" d="M2025.49,1204.83c3.67,4.3,5.85,2.32,21.67,1.91s40.9-.9,62.94-2.71,57.61-5.76,74.41-6,46.11-1.55,62.07-4.42,53.92-1.83,65.37-1.64,55.4,5.21,70.35,7,23.48,4.43,40.68,4.88,31-.92,18.51-2.29-53.62-10-73.63-11.68-58.8-5.89-76.16-5.27-60.29-1.44-84.85,1.74-96.32,7.65-117.28,8.78-33.82,2.5-44,4.64S2021.82,1200.53,2025.49,1204.83Z"/><path fill="#feede5" fill-rule="evenodd" d="M2004.66,1063.2c17.36.59,26.91,6.14,50.86,2.64s29.65-11.74,37.57-5,19.12,16.68,16.38,31.78,7.86,19.66-5.87,21.46-33.55,2.79-25.17,5.68,18.34,9.58,30,16.66,20.3,10,24.23,12.45,2.58,4.85-5.79,7.38-15.16,4.74-25.44,1.9-14.72-12.61-15-2.91,5.32,21.85-2.27,23.42-14-1.11-16.49-7.29-2.41-19.38-6.82-26.23-8.72-14-14.07-17.37-7.35-2.86-6.12,4.34,4.36,23.85,1.41,29-7.85,8.63-13.25,2.19-11.15-17.55-14.13-24.7,1.71,18.29-6.16,16.07-11-1.15-15.65-11.78-9.33-23.61-10.28-14.85.52,27-7.54,24.86c-5.44-1.45-10.32-4.59-15.61-19.4s-5.41-17.29,1.46-26.84,15.25-20.13,22.91-19.8S1987.3,1062.6,2004.66,1063.2Z"/><path fill="#ffdfac" fill-rule="evenodd" d="M868.19,1102.81c-2.68-8.22-2.8-13.84-2.85-26.56s4.47-32,13.46-43.72,20.49-24.37,28.84-30.59,42.92-28.9,49.87-35S984.74,939.1,991,931s20.84-23.23,27-27.83,19.19-6.33,32.18-10.89,23.22-8.37,30.51-11,7.5,4.46,11.67,8.53-.53,4.29,3,16.44,3.44,20.88,9.41,29,7.29,12,12.87,18.55,7.09,9.92,14.26,1.21,18.17-19.19,27.47-25.28,27.3-17.49,34.93-23.88,13.65-12.47,14.37-18.63a130,130,0,0,0,.56-16.16c0-4.65,4.66-6,13.11-.16,3.79,2.61,3.64,5.6,7.65,8.24,5,3.25,14.27,6.16,21.56,9.32,13.21,5.72,27.77,11.66,35.92,15.86s20.75,12.77,27.76,22.65,14.44,22.09,19,34.87a223.5,223.5,0,0,1,10.49,39.82c1.89,12.41,4.45,30.05,6.11,42.33s6.12,25.85,4.27,39.65-1.31,22.63-9.66,27.72a88.78,88.78,0,0,1-27,11.49c-11.9,3.05-30.1,2.21-42,3.21s-29.32,1.63-26.08-3,4.08-11.79.2-13-11.6-1.33-18.25-5.13-9.74-4.83-16.41-13.5-15.77-16.66-23.24-19.3-35.24-1.67-47.27-4.56-17.78-3.82-32.46-8-21.32-1.18-34.68-5.08-16.32-4.4-22.15-.55-12.43,7.7-16.55,14.71-7.58,16-9.52,21.57-1.74,9.89-7.54,8.82-10.65-2.78-21-1.09a339,339,0,0,0-38.35,8.66c-12.18,3.67-23.67,8.29-37.22,8.76s-31.68,0-39.61-1.7S870.87,1111,868.19,1102.81Z"/><path fill="#ffc8bb" fill-rule="evenodd" d="M727.28,1055.55c.79-9.68,6.59-26,8.72-34.71s12.22-33.74,20.17-41.11,18.42-17.06,28.12-20,17.06-4.46,22.69-3.87,6-4.46-.39-11.25-10.08-16.48-16.68-28.31-8.92-18-20.17-23.86-30.63-6.78-39.36-11.05-12.8-2.91-18.81.58-13.38,6.6-10.47,12.42,1.36,9.88-3.68,13.18-9.31,9.7-8,12.8,3.69,6.21-1.74,13.19-16.29,10.47-13.19,17.64,8.34,14.35,7.37,25.21-2.52,16.68-9.89,24.24-12,23.85-19,17.46-14.93-9.51-13.37-17.85,3.49-19.78,10.08-27.34,14.35-18.23,12-22.69-4.46-12.6-7.56-8S642,957.43,633.23,960s-22.3,7.76-32.39,5.24-18.23-4.08-22.88-12.8a122,122,0,0,1-8.92-20c-3.3-8.92-7-19-8.92-12.6s-2.91,8.72-1.17,14.54,3.11,12,0,19-8.14,18.22-5.42,20.94,9.5,11.25,11.44,19,1.94,15.13-3.49,23.08-10.48,11.25-8.34,16.87-4.66,8.15-10.47,2.52-14-10.86-13.77-18.61,5.23-14.16,8.53-24.24,3.49-14.94.19-20-10.27-15.51-10.47-21.72,1.55-7.56-1.35-11.63-8-15.51-8-22.89,1.83-11.81-1.79-16.26-6-10.94-8.54-15.28-9-2.29-14.24-2.45S475,884.63,467,886.93s-13,6.12-25.11,15.1-14.36,11.25-19,13.89-.31,7.88,5.67,12.26,28.49,37,31.56,47.1,9.43,25.32,13.06,30.39A91.72,91.72,0,0,1,485,1029.38c3.24,10,4.26,24.09,8,25.3s9.85,0,23,.33,27.85.16,34.13-2,13.38-1,19.81-.23,13.55-.88,23.54,2.19,16.13,4.56,24.76,6.72,12.82,6.86,21.81,9.66,14.78,6.75,24.16,4.62,34.72-6.43,42.23-9.94S727,1058.63,727.28,1055.55Z"/><path fill="#fff" fill-rule="evenodd" d="M1949.66,1118.67c-8.38-3.35-34.28-19.5-38.58-23.33s-14.12-12-20.1-22.49-7.9-14.59-3.59-27.51,12.2-24.65,20.81-34.46,28.72-37.8,33.26-45,22.73-35.17,32.3-49.28,19.14-24.64,26.8-29.91,29-10.52,39-11.24,34.74-.05,45.11-3.24,17.26-3.42,15.11,1.16-3.4,11.81.31,17.82,7.54,14.91,18.36,22.32,22.55,15.4,31.94,18.29,21.29,7,28.54,3.24,17.23-5.77,23-14.43,8.33-22,15.26-28.94,16.79-20.9,24.47-24.81a73.68,73.68,0,0,1,29.36-7.41c11.42-.56,34.41-1.28,48,5.23s27.42,15.53,32.65,24.88,10.83,28,13.27,42,1.76,37.3,5.65,50.47,7.44,39.45,10.71,53.31.56,25.91-.23,41.16-3.73,25.62-13.77,33.54-16.59,10.68-25.31,12.78-15.7,6.5-23.22,6.36-36.83-1.22-44.57.91-13.89,7.44-20.37,3.75-40.08-19.86-47.05-22.46-40.09-7.47-52.28-5-32.93,6.24-39.37,6-6.14-7.3-5.19-12.31-7.82-29.19-11.65-34.2-8.07-6-16.32-4-33.58,4.61-41.13,4.09-7.74-5.17-7.54-14.57-.72-26.35-2.06-31.82-2-12.81-9.2-3.93-15.7,21-22.42,29-4.44,9.81-.41,13.43,14.57,12.5,23.25,20.14,20.55,20.25,14.87,16.64-7.23-6-13.12-4.86-11.57,2.17-20.14.83-25.83-3.1-31.31,1.24-14,15.29-15.71,20.66S1958,1122,1949.66,1118.67Z"/><path fill="#ffc8bb" fill-rule="evenodd" d="M578.17,883.41c-2.23-6.28,8.31-1.42,9.84,2.34.54,1.32,2.88,18.22-3.12,12.82C580.68,894.78,579.92,888.35,578.17,883.41Z"/></g><g><path fill="#6a3b35" d="M1059.56,812.53a3.26,3.26,0,0,1-3.1-2.26c-2-6.25-3.57-11.75-4.76-16.82a3.26,3.26,0,0,1,6.35-1.49c1.14,4.89,2.66,10.23,4.61,16.31a3.25,3.25,0,0,1-2.1,4.1A3.17,3.17,0,0,1,1059.56,812.53Z"/><path fill="#6a3b35" d="M1129.28,913.38a54.11,54.11,0,0,1-9.9-.91c-25.16-4.68-52.65-46.94-51.61-65.81a5.88,5.88,0,0,0-.22-1.29,3.26,3.26,0,1,1,6.35-1.49,11.12,11.12,0,0,1,.38,3.15c-.86,15.66,25.23,55.11,46.29,59,34.35,6.38,65.24-26.65,78.08-47.17a3.26,3.26,0,0,1,5.52,3.46C1191.68,882.33,1162.9,913.38,1129.28,913.38Z"/><path fill="#6a3b35" d="M1115.23,851.66a3.24,3.24,0,0,1-1.73-.5c-.53-.33-1.09-.63-1.64-.95-2.31-1.28-5.18-2.89-6.74-6.1-1.82-3.74-.18-7,.9-9.13a15.92,15.92,0,0,0,.88-1.93c1.06-3.06.85-5.62-.74-9.14a3.26,3.26,0,1,1,5.94-2.69c2.26,5,2.56,9.32,1,13.95a24.06,24.06,0,0,1-1.23,2.75c-1,2-1.22,2.61-.86,3.34.66,1.37,2.24,2.25,4.06,3.26.65.37,1.3.73,1.92,1.12a3.26,3.26,0,0,1-1.73,6Z"/><path fill="#6a3b35" d="M1085.92,826a23.55,23.55,0,0,1-9-1.83,3.26,3.26,0,0,1,2.67-6c2.82,1.27,7.83,1.81,9.84.59a3.26,3.26,0,1,1,3.39,5.57A13.31,13.31,0,0,1,1085.92,826Z"/><path fill="#6a3b35" d="M1085.88,829.85c-1.5,0-3.17-.75-4.58-3.4a3.26,3.26,0,0,1,5.38-3.62l.67-.34a3.26,3.26,0,0,1,2.8,5.89l-.88.44A7.55,7.55,0,0,1,1085.88,829.85Z"/><path fill="#6a3b35" d="M1135.79,823.63a3.34,3.34,0,0,1-3.36-3.17,3.17,3.17,0,0,1,3.07-3.34h.21c3.94-.1,10.53-.26,13.24-2.81a3.26,3.26,0,0,1,4.46,4.75c-4.52,4.26-12.36,4.45-17.54,4.57Z"/><path fill="#6a3b35" d="M1143.88,826.13a6.67,6.67,0,0,1-3.05-.79,3.26,3.26,0,0,1,3-5.79c0-.11.3-.35.66-.87a3.26,3.26,0,0,1,5.31,3.78C1147.77,825.3,1145.66,826.13,1143.88,826.13Z"/><path fill="#6a3b35" d="M1119.74,876.26a51.9,51.9,0,0,1-8.56-.73,3.26,3.26,0,0,1-2.68-3.76,3.23,3.23,0,0,1,3.75-2.67c10,1.67,19.58,0,30.14-5.21a3.26,3.26,0,0,1,2.9,5.84C1136.42,874.12,1128.13,876.26,1119.74,876.26Z"/><path fill="#6a3b35" d="M1069.86,797.2a3.26,3.26,0,0,1-1.41-6.2c8-3.81,16.82-4.25,24.2-1.21a3.26,3.26,0,1,1-2.49,6c-5.59-2.31-12.65-1.91-18.9,1.07A3.35,3.35,0,0,1,1069.86,797.2Z"/><path fill="#6a3b35" d="M1127.93,791.64a3.26,3.26,0,0,1-1.78-6c7.41-4.83,18.42-4.4,25.52-1.95a3.26,3.26,0,0,1-2.12,6.17c-5.83-2-14.52-2.23-19.84,1.24A3.24,3.24,0,0,1,1127.93,791.64Z"/><path fill="#6a3b35" d="M1220.26,846.25a8.94,8.94,0,0,1-2.64-.39,3.26,3.26,0,1,1,1.91-6.23c1.79.54,5.21-1.27,8.67-4.64,6.4-6.24,8.51-12.85,6.62-20.81-.55-2.31-1.84-7.74-4.2-8.83-1.34-.62-3.35.15-4.8.9a17.7,17.7,0,0,0-4.63,3.82l-.91.91a3.26,3.26,0,1,1-4.61-4.6l.86-.87a23.47,23.47,0,0,1,6.33-5.07c4-2,7.52-2.38,10.49-1,4.61,2.13,6.48,7.63,7.81,13.25,2.44,10.27-.31,19.09-8.41,27C1229.51,842.82,1224.92,846.25,1220.26,846.25Z"/><path fill="#6a3b35" d="M1217.24,830.43a3.26,3.26,0,0,1-2.47-5.38,32.12,32.12,0,0,1,11.81-8.64,3.26,3.26,0,1,1,2.61,6,25.8,25.8,0,0,0-9.47,6.91A3.27,3.27,0,0,1,1217.24,830.43Z"/><path fill="#6a3b35" d="M1122,782.63a3.39,3.39,0,0,1-1.12-.2c-15.24-5.61-27.84-16.34-36.43-31l-.37-.62c-3.1-5.29-7-11.88-5.39-19.16a3.26,3.26,0,0,1,6.37,1.38c-1,4.8,1.85,9.72,4.64,14.48l.37.63c7.83,13.39,19.26,23.14,33.06,28.22a3.26,3.26,0,0,1-1.13,6.32Z"/><path fill="#6a3b35" d="M1192.25,795.58c-40,0-78.13-24.23-94.56-61.88a3.26,3.26,0,1,1,6-2.6c17.19,39.37,61.81,63.74,103.77,56.7a3.26,3.26,0,1,1,1.08,6.43A98.23,98.23,0,0,1,1192.25,795.58Z"/><path fill="#6a3b35" d="M1057.64,778a3.32,3.32,0,0,1-1.43-.33,3.26,3.26,0,0,1-1.5-4.36c1.43-2.93,2.94-5.78,4.44-8.61,4.59-8.65,8.92-16.82,10.42-26.44a3.26,3.26,0,0,1,6.45,1c-1.68,10.71-6.47,19.75-11.11,28.5-1.46,2.76-2.94,5.54-4.34,8.41A3.24,3.24,0,0,1,1057.64,778Z"/><path fill="#6a3b35" d="M1243.23,802.62a3.2,3.2,0,0,1-1-.15,3.25,3.25,0,0,1-2.16-4.07c7.94-25.94,2.94-55.66-1.48-81.88l-.26-1.56c-1.82-10.81-5.3-26.16-14.52-34.68-30.15-27.89-82.28-32.5-113.84-10.08-12.33,8.77-19.52,17-22,25a3.26,3.26,0,0,1-6.23-1.91c2.91-9.51,10.91-18.81,24.46-28.44,34.47-24.5,89.21-19.76,122,10.6,10.68,9.88,14.54,26.64,16.52,38.39l.26,1.55c4.54,26.94,9.68,57.47,1.29,84.88A3.29,3.29,0,0,1,1243.23,802.62Z"/><path fill="#6a3b35" d="M1048.8,793.31a3.25,3.25,0,0,1-3.15-2.46c-10.9-42.75-3.22-80.84,22.22-110.12,4.09-4.71,25.28-28,40.87-23.18a3.26,3.26,0,0,1-1.91,6.24c-9.75-3-26.52,12.57-34,21.21-24,27.6-31.18,63.65-20.84,104.24a3.29,3.29,0,0,1-3.16,4.07Z"/><path fill="#6a3b35" d="M1209.43,879.34a3.26,3.26,0,0,1-3.23-2.89c-.74-6.36-.13-12.93.45-19.28.37-4.12.73-8,.73-11.75a3.26,3.26,0,1,1,6.52,0c0,4-.39,8.26-.76,12.34-.55,6-1.12,12.25-.47,17.94a3.26,3.26,0,0,1-2.86,3.62Z"/><path fill="#6a3b35" d="M1127.45,964.55a4.5,4.5,0,0,1-.79-.08c-5.72-1.15-10.5-7.94-15.3-15.41-.68-1.06-1.27-2-1.76-2.67-1-1.39-2-2.73-3-4a62.65,62.65,0,0,1-7.58-11.86c-4.32-9.52-9.16-24.57-8.57-35.71a3.26,3.26,0,1,1,6.51.35c-.57,10.65,4.76,25.54,8,32.66a57.55,57.55,0,0,0,6.86,10.64c1,1.38,2.08,2.77,3.1,4.22.53.75,1.18,1.75,1.92,2.9,2.16,3.36,6.37,9.91,9.73,12,.73-1,1.65-2.44,2.13-3.19a26.49,26.49,0,0,1,1.61-2.34,129.71,129.71,0,0,1,24.54-22.1l2.47-1.73c12.43-8.69,25.29-17.69,36.93-27.81,3.61-3.14,12.82-13.36,12-22.79a3.26,3.26,0,1,1,6.5-.52c1.18,14.6-13.64,27.68-14.27,28.23-11.91,10.35-24.9,19.44-37.48,28.23l-2.46,1.73a123.45,123.45,0,0,0-23.34,21c-.2.26-.59.89-1.07,1.63C1131.48,962.05,1129.88,964.55,1127.45,964.55Zm.49-6.48h0Z"/><path fill="#6a3b35" d="M1187.54,971.33c-7.54,0-13.2-6.28-17.89-11.5-3.68-4.08-7.15-7.94-10.55-8.31s-10.17.47-12.67,2.7a2,2,0,0,0-.81,1.58,3.26,3.26,0,0,1-6.52,0,8.47,8.47,0,0,1,3-6.43c4.74-4.24,14-4.76,17.74-4.33,5.86.65,10.34,5.62,14.67,10.42,5.38,6,9.19,9.8,13.86,9.29.43-3.68.61-4.79,1-5.62a54.71,54.71,0,0,1,6.43-9.33c1.18-1.48,2.36-2.95,3.39-4.42,3.45-4.93,7.43-9.56,11.27-14,10.08-11.72,19.6-22.78,19.6-38.48,0-5.47-2.6-15.76-20-23.15a3.26,3.26,0,1,1,2.55-6c20.88,8.86,24,22.07,24,29.15,0,18.11-10.76,30.63-21.17,42.73a172.49,172.49,0,0,0-10.88,13.52c-1.11,1.58-2.36,3.15-3.63,4.75a50,50,0,0,0-5.7,8.17c0,.17-.26,2.43-.39,3.52-.34,2.87-.51,4.32-2.57,5A14.79,14.79,0,0,1,1187.54,971.33Z"/><path fill="#6a3b35" d="M1065.23,963.3A6.35,6.35,0,0,1,1063,963a4.31,4.31,0,0,1-2.7-2.7c-1.13-3.4,1.66-5.6,3-6.66a8.68,8.68,0,0,0,1.16-1c1.83-5.55,2-11.48,2.12-17.76l0-1.65a50.75,50.75,0,0,1,.71-9.09c.17-1.06.39-2.46.69-4.62.84-6,3.91-26.38,8.35-35.26a3.26,3.26,0,1,1,5.83,2.92c-3.17,6.34-6.07,21.33-7.72,33.24-.31,2.22-.54,3.65-.72,4.75a46.07,46.07,0,0,0-.62,8.22l0,1.64c-.15,6.49-.31,13.2-2.52,19.83a6,6,0,0,1-.39.89,29.91,29.91,0,0,0,4.18-1.65c2.26-1.38,4.47-3,6.61-4.56,8.84-6.48,18.86-13.81,31.34.06a3.26,3.26,0,0,1-4.85,4.36c-8.54-9.49-13.55-5.82-22.64.84-2.25,1.64-4.57,3.34-7.09,4.88C1077.64,959.65,1070.22,963.3,1065.23,963.3Z"/><path fill="#6a3b35" d="M869.6,1109.76a3.25,3.25,0,0,1-3.16-2.49c-16.89-69,27.57-100.27,66.79-127.82,11.77-8.27,22.88-16.07,31.9-24.53,7-6.57,13.55-14.56,19.87-22.28,10.32-12.6,21-25.64,34.7-34.07,7.2-4.44,19-7.23,30.42-9.94s23.49-5.57,29.43-9.8a3.26,3.26,0,1,1,3.79,5.3c-7,5-19,7.83-31.71,10.84-10.92,2.59-22.2,5.26-28.52,9.15C1010.33,912,1000,924.58,990,936.77c-6.45,7.89-13.12,16-20.45,22.9-9.36,8.78-20.65,16.71-32.61,25.11-39.35,27.64-80,56.22-64.21,121a3.26,3.26,0,0,1-2.39,3.94A3.46,3.46,0,0,1,869.6,1109.76Z"/><path fill="#6a3b35" d="M1027.17,1101.06a3.44,3.44,0,0,1-.77-.09,3.26,3.26,0,0,1-2.4-3.93c2.53-10.45,9.93-29.76,19.06-37.14.16-.12,1-.72,2.31-1.59q5.54-3.74,8.89-6.13l-4.36-.15c-.87,0-1.46,0-1.59-.06a153,153,0,0,1-24.8-4.4c-7.24-2-14.4-4.14-21.33-6.27-29.39-9-57.14-17.54-88.41-7.1a3.26,3.26,0,0,1-2.07-6.19c33.25-11.07,62-2.28,92.39,7.06,6.87,2.11,14,4.28,21.11,6.2a146.27,146.27,0,0,0,23.74,4.21l1.14,0c11.32.31,15.13.41,15.13,4.39,0,2.11,0,2.9-16.2,13.82-1,.67-1.69,1.14-1.91,1.3-7.32,5.91-14.34,23.52-16.76,33.55A3.26,3.26,0,0,1,1027.17,1101.06Z"/><path fill="#6a3b35" d="M989.35,1100.84a3.25,3.25,0,0,1-3.19-3.94c3.34-15.64,11.78-43.56,30.65-54.88a3.26,3.26,0,1,1,3.35,5.59c-17.38,10.42-25.11,38.9-27.63,50.65A3.26,3.26,0,0,1,989.35,1100.84Z"/><path fill="#6a3b35" d="M1232.34,1149.76a12.83,12.83,0,0,1-1.88-.14c-7.5-1.07-11-8.58-13.87-14.61a35.85,35.85,0,0,0-3.66-6.66,59.41,59.41,0,0,0-4.62-4.92,44.27,44.27,0,0,1-7.69-9.24,3.26,3.26,0,1,1,5.63-3.29,38.31,38.31,0,0,0,6.65,7.89,67.43,67.43,0,0,1,5.09,5.45,39.34,39.34,0,0,1,4.5,8c2.4,5.1,4.87,10.36,8.89,10.94,1.27.17,1.91,0,2-.16,1.59-1.94-1.82-11.43-2.93-14.55-.71-2-1.29-3.62-1.54-4.69-3-12.94-7.61-20.55-15.56-30.88-4.84-6.29-10.58-13.27-17.48-16.37-9.49-4.27-21.46-4.67-33-5.06-5.3-.17-10.3-.34-15.12-.86-9.24-1-18.19-3.35-26.84-5.64-6.61-1.75-13.45-3.56-20.25-4.69-4.12-.69-8.17-1.18-12.19-1.67-8.67-1.06-17.62-2.16-26.61-5.15a3.26,3.26,0,0,1,2.06-6.19c8.37,2.79,16.61,3.8,25.34,4.87,4.11.5,8.26,1,12.48,1.71,7.09,1.18,14.08,3,20.83,4.81,8.42,2.23,17.13,4.53,25.88,5.47,4.57.49,9.46.66,14.64.82,12.2.42,24.82.84,35.48,5.63,8.28,3.73,14.66,11.42,20,18.34,8.33,10.83,13.46,19.35,16.74,33.37.21.92.73,2.31,1.32,4,3.16,8.79,5.47,16.43,1.86,20.87A7.5,7.5,0,0,1,1232.34,1149.76Z"/><path fill="#6a3b35" d="M1187.66,1139.3a21.63,21.63,0,0,1-4.69-.55,3.26,3.26,0,0,1,1.41-6.36c4.11.91,7.13.24,9.25-2,5.49-5.91,4.69-22,2-30.79a3.26,3.26,0,0,1,6.25-1.88c2.46,8.22,4.85,28.1-3.52,37.11A14.13,14.13,0,0,1,1187.66,1139.3Z"/><path fill="#6a3b35" d="M1173.76,1138a36.89,36.89,0,0,1-4-.29,27.93,27.93,0,0,0-2.9-.23,3.26,3.26,0,0,1,0-6.52,33.81,33.81,0,0,1,3.61.27c2.13.24,4.34.48,5.68-.14,5-2.3,3.3-11.78,2.19-18-.26-1.46-.5-2.77-.63-3.85a85.14,85.14,0,0,1-1.22-10.7,3.26,3.26,0,0,1,6.52,0,75.53,75.53,0,0,0,1.1,9.4s.07.48.07.52c.12,1,.34,2.16.57,3.49,1.38,7.74,3.69,20.69-5.87,25.11A12,12,0,0,1,1173.76,1138Z"/><path fill="#6a3b35" d="M1147.16,1137.92c-6.55,0-14.41-3.11-17.19-10.08a3.26,3.26,0,0,1,6-2.42c1.39,3.47,6.07,6,11.14,6,1.61,0,7-.35,8.75-4.78,1.34-3.36.2-7.42-1-11.72s-2.48-8.84-1.37-13.29a3.26,3.26,0,0,1,6.33,1.58c-.7,2.78.28,6.26,1.31,10,1.38,4.91,3,10.49.78,15.9C1159.74,1134.61,1154.21,1137.92,1147.16,1137.92Z"/><path fill="#6a3b35" d="M1135.57,1124.74a3.26,3.26,0,0,1-3.26-3.26,3.27,3.27,0,0,0-1-2.61c-2.62-2.5-10.16-2.16-14.65-2-1.67.07-3.15.12-4.27.1-6.12-.21-11.18-2.61-16.07-4.93a46,46,0,0,0-10.1-3.9c-4.49-1-9.26-.66-14.32-.34-5.88.37-12,.77-17.85-.93a3.26,3.26,0,1,1,1.79-6.26c4.81,1.37,10.07,1,15.65.68,5.27-.33,10.73-.68,16.1.47a52,52,0,0,1,11.54,4.39c4.48,2.13,8.71,4.14,13.48,4.3,1,0,2.29,0,3.76-.1,6.26-.27,14.81-.66,19.44,3.77a9.81,9.81,0,0,1,3,7.32A3.26,3.26,0,0,1,1135.57,1124.74Z"/><path fill="#6a3b35" d="M1238,1131.78a3.26,3.26,0,0,1,0-6.52c4.41,0,12-4,13.28-7.67.2-.58.73-2.13-2.26-4.43-1.34-1-3.9-1.43-6.37-1.81a35.74,35.74,0,0,1-5.1-1,61.73,61.73,0,0,1-10.69-4.82c-1.18-.64-2.37-1.27-3.58-1.88a3.26,3.26,0,0,1,2.91-5.83c1.27.63,2.51,1.29,3.74,2a55.58,55.58,0,0,0,9.56,4.36,31.31,31.31,0,0,0,4.15.83c3.14.48,6.69,1,9.36,3.08,5.82,4.48,5.29,9.25,4.46,11.7C1254.94,1127,1244.06,1131.78,1238,1131.78Z"/><path fill="#6a3b35" d="M1354.48,1099.49l-.33,0a3.25,3.25,0,0,1-2.92-3.56c1.47-15.08-.87-31.44-3.14-47.27l-1-7.38-.51-3.79c-5.62-41.13-12-87.75-42.76-117.64-11.43-11.1-25.87-17.2-41.16-23.65-10.95-4.62-22.27-9.4-32.3-16.18a3.26,3.26,0,1,1,3.65-5.4c9.5,6.42,20.53,11.07,31.19,15.57,15.17,6.4,30.86,13,43.17,25,32.38,31.46,38.91,79.26,44.66,121.44l.52,3.78q.49,3.63,1,7.35c2.32,16.2,4.72,33,3.17,48.83A3.27,3.27,0,0,1,1354.48,1099.49Z"/><path fill="#6a3b35" d="M1147.65,1067.25a3.26,3.26,0,0,1-.23-6.52c30-2.1,57.36-7.49,89.22-14.94l5.91-1.4c19.3-4.62,43.32-10.37,62.88-5.35a3.26,3.26,0,1,1-1.62,6.32c-18-4.63-41.14.92-59.74,5.37l-5.94,1.41c-32.17,7.52-59.83,13-90.25,15.1Z"/><path fill="#6a3b35" d="M1282.65,1129.85a183.25,183.25,0,0,1-30.4-2.43,3.26,3.26,0,0,1,1.11-6.43c20.67,3.59,52.73,3.47,71.45-3.82,17.92-7,22.85-9.91,26.4-20.57a3.26,3.26,0,0,1,6.19,2.06c-4.49,13.45-11.85,17.43-30.23,24.58C1315.22,1127.9,1298.71,1129.85,1282.65,1129.85Z"/><path fill="#6a3b35" d="M1235.26,1047.51a3.26,3.26,0,0,1-3.25-3c-.54-7.74.55-15.6,1.6-23.2.55-4,1.08-7.83,1.38-11.61,1.47-18.46,3.53-35,14-51.18a3.26,3.26,0,1,1,5.48,3.54c-9.59,14.85-11.53,30.59-12.93,48.16-.32,4-.88,8-1.43,12-1,7.27-2,14.79-1.55,21.85a3.25,3.25,0,0,1-3,3.48Z"/><path fill="#6a3b35" d="M1012.73,1042.52a3.26,3.26,0,0,1-3.26-3.26c0-13.79-1.67-34.85-5.35-48.51a3.26,3.26,0,0,1,6.3-1.7c3.83,14.24,5.57,36,5.57,50.21A3.26,3.26,0,0,1,1012.73,1042.52Z"/><path fill="#6a3b35" d="M1117,1061.62a3.32,3.32,0,0,1-1-.17,3.27,3.27,0,0,1-2.07-4.12c5.47-16.42,8.13-44.53,8.13-85.95a3.26,3.26,0,0,1,6.52,0c0,42.13-2.77,70.92-8.46,88A3.26,3.26,0,0,1,1117,1061.62Z"/><path fill="#6a3b35" d="M2265.7,824.56a3.32,3.32,0,0,1-1.68-.46,3.27,3.27,0,0,1-1.12-4.47c3.29-5.48,6-10.34,8.2-14.85a3.26,3.26,0,0,1,5.84,2.89c-2.31,4.67-5.07,9.67-8.44,15.3A3.25,3.25,0,0,1,2265.7,824.56Z"/><path fill="#6a3b35" d="M2185.31,908.31c-.42,0-.83,0-1.24,0-38.4-1.72-62.86-43.56-71.24-68a3.26,3.26,0,1,1,6.16-2.12c7.86,22.9,30.47,62.07,65.37,63.63,21.55.9,55.75-31.57,58.45-47a11.29,11.29,0,0,1,1.09-3,3.26,3.26,0,0,1,5.84,2.9,7.55,7.55,0,0,0-.52,1.24C2246,874.18,2210.8,908.31,2185.31,908.31Z"/><path fill="#6a3b35" d="M2202.61,850.07a3.26,3.26,0,0,1-1.05-6.34c.69-.24,1.4-.44,2.12-.65,2-.58,3.74-1.08,4.7-2.26.5-.63.44-1.3-.09-3.44a23.4,23.4,0,0,1-.57-3c-.51-4.88.76-9,4.1-13.37a3.26,3.26,0,0,1,5.18,4c-2.35,3.07-3.13,5.52-2.79,8.74a15.17,15.17,0,0,0,.42,2.09c.57,2.33,1.43,5.86-1.19,9.09-2.26,2.77-5.42,3.68-8,4.42-.61.17-1.22.35-1.81.55A3.22,3.22,0,0,1,2202.61,850.07Z"/><path fill="#6a3b35" d="M2241.62,832.26c-4,0-8.92-1-11.72-3.74a3.26,3.26,0,0,1,4.57-4.65c1.67,1.64,6.68,2.24,9.72,1.66a3.26,3.26,0,1,1,1.26,6.39A19.82,19.82,0,0,1,2241.62,832.26Z"/><path fill="#6a3b35" d="M2236.35,835.5a6.5,6.5,0,0,1-4-1.88l-.75-.63a3.26,3.26,0,0,1,4.07-5.1l.57.48a3.26,3.26,0,0,1,4.42,4.75C2239.07,834.91,2237.62,835.5,2236.35,835.5Zm-1-6.24Z"/><path fill="#6a3b35" d="M2188.32,818.07l.82-3.16-1.06,3.09c-5-1.29-12.57-3.24-16-8.4a3.26,3.26,0,0,1,5.42-3.62c2.06,3.09,8.42,4.73,12.22,5.71l-.57,3.22Z"/><path fill="#6a3b35" d="M2181.13,818.79c-2.05,0-4.62-1-6.31-5.07a3.26,3.26,0,0,1,6-2.47,3.28,3.28,0,0,0,.62,1.12,3.14,3.14,0,0,1,3.87,2.3,3.25,3.25,0,0,1-2.46,3.89A7,7,0,0,1,2181.13,818.79Z"/><path fill="#6a3b35" d="M2259.14,807.31a3.24,3.24,0,0,1-2-.71c-5.4-4.31-12.18-6.32-18.17-5.32a3.31,3.31,0,0,1-3.75-2.69,3.27,3.27,0,0,1,2.69-3.75c7.86-1.28,16.36,1.13,23.3,6.66a3.26,3.26,0,0,1-2,5.81Z"/><path fill="#6a3b35" d="M2203.84,788.74a3.26,3.26,0,0,1-2.35-1c-4.41-4.6-12.91-6.34-19-5.71a3.26,3.26,0,1,1-.67-6.48c7.46-.78,18.29,1.29,24.42,7.67a3.26,3.26,0,0,1-2.35,5.52Z"/><path fill="#6a3b35" d="M2102.86,821.18c-5.48,0-9.93-5.11-12.73-9.48-6.11-9.52-6.79-18.74-2.09-28.19,2.58-5.18,5.64-10.1,10.61-11.13,3.2-.67,6.57.46,10,3.35a23.81,23.81,0,0,1,5,6.36l.64,1.06a3.26,3.26,0,1,1-5.54,3.43l-.67-1.11a17.81,17.81,0,0,0-3.65-4.75c-1.25-1.06-3.06-2.27-4.47-2-2.55.53-5,5.52-6.09,7.65-3.64,7.32-3.09,14.24,1.74,21.77,2.61,4.06,5.46,6.52,7.39,6.48a3.33,3.33,0,0,1,3.48,3,3.27,3.27,0,0,1-3,3.48Z"/><path fill="#6a3b35" d="M2108.06,806.3a3.25,3.25,0,0,1-2.89-1.76,25.8,25.8,0,0,0-7.67-8.87,3.26,3.26,0,1,1,3.9-5.23,32.1,32.1,0,0,1,9.55,11.09,3.26,3.26,0,0,1-2.89,4.77Z"/><path fill="#6a3b35" d="M2089,773.33a3.26,3.26,0,0,1-3.25-3c-2-28.58,9.94-57.15,20.45-82.34l.62-1.5c4.59-11,12.14-26.44,24.79-33.65,18.18-10.36,41.58-14.56,64.18-11.5a3.26,3.26,0,0,1-.88,6.46c-21.21-2.87-43.11,1-60.07,10.71-10.92,6.22-17.78,20.38-22,30.49l-.62,1.5c-10.23,24.53-21.82,52.33-20,79.38a3.27,3.27,0,0,1-3,3.48Z"/><path fill="#6a3b35" d="M2195,871.91a3.18,3.18,0,0,1-1.21-.24,32.38,32.38,0,0,0-13-2.2,3.26,3.26,0,0,1,0-6.52,38.56,38.56,0,0,1,15.43,2.67,3.26,3.26,0,0,1-1.21,6.29Z"/><path fill="#6a3b35" d="M2248.62,784.56a3.16,3.16,0,0,1-1.2-.23c-15.55-6.22-21.51-19.16-27.27-31.67-5.57-12.11-10.83-23.54-24.62-28.41a3.26,3.26,0,0,1,2.18-6.15c16.38,5.79,22.47,19,28.36,31.83,5.47,11.88,10.63,23.09,23.76,28.34a3.26,3.26,0,0,1-1.21,6.29Z"/><path fill="#6a3b35" d="M2286.44,803.07a2.69,2.69,0,0,1-.4,0c-17.94-2.24-25.87-17.66-32.86-31.26l-1.32-2.57a3.26,3.26,0,0,1,5.78-3l1.34,2.59c6.56,12.76,13.34,26,27.86,27.77a3.26,3.26,0,0,1-.4,6.5Z"/><path fill="#6a3b35" d="M2124.54,767.24c-1.21,0-2.46,0-3.75-.16a3.25,3.25,0,0,1-3-3.52,3.29,3.29,0,0,1,3.52-3c17,1.41,24.42-8.63,33-20.28,4.94-6.74,10.05-13.7,17.37-18.58a3.26,3.26,0,1,1,3.62,5.42c-6.37,4.24-11.13,10.74-15.73,17C2151.22,755.52,2142.62,767.24,2124.54,767.24Z"/><path fill="#6a3b35" d="M2117,787.81a3.26,3.26,0,0,1,0-6.52c5.07,0,9.25-2.2,14-5.5a3.26,3.26,0,1,1,3.74,5.34C2129.75,784.6,2124.18,787.81,2117,787.81Z"/><path fill="#6a3b35" d="M2180.37,705.75a3.26,3.26,0,0,1-3.26-3.26c0-11.72,4.34-23.12,12.54-33a3.26,3.26,0,0,1,5,4.17c-7.22,8.66-11,18.61-11,28.79A3.26,3.26,0,0,1,2180.37,705.75Z"/><path fill="#6a3b35" d="M2319.72,767.09c-3.6,0-6.25-.9-8.09-2.74-2.92-2.94-2.91-7.34-2.89-12v-1.11c0-2.68.07-5.36.13-8,.26-10,.49-19.43-2.79-28.67-11-31.07-32.66-50.6-64.3-58-1.3-.31-2.65-.65-4-1-6.22-1.56-13.28-3.34-19.2-2.6a3.26,3.26,0,1,1-.81-6.47c7.16-.89,14.83,1,21.6,2.75,1.34.34,2.65.67,3.93,1,33.93,8,57.13,28.92,68.95,62.21,3.68,10.38,3.42,20.87,3.16,31-.06,2.61-.13,5.23-.13,7.86v1.13c0,3.27,0,6.36,1,7.38.68.68,2.26.82,3.47.82a3.26,3.26,0,1,1,0,6.52Z"/><path fill="#6a3b35" d="M2301.15,787.19c-7.82,0-14.05-4.06-20-12.55a3.26,3.26,0,1,1,5.34-3.74c7.1,10.15,13.4,12,25,7.38a3.26,3.26,0,1,1,2.42,6.05A34.62,34.62,0,0,1,2301.15,787.19Z"/><path fill="#6a3b35" d="M2107.87,878.07a2.56,2.56,0,0,1-.62-.06,3.26,3.26,0,0,1-2.59-3.82c2.33-12,4.25-26.12,1-40.14a3.25,3.25,0,0,1,2.42-3.92,3.29,3.29,0,0,1,3.93,2.43c3.57,15.22,1.55,30.21-.9,42.87A3.27,3.27,0,0,1,2107.87,878.07Z"/><path fill="#6a3b35" d="M2171.21,938.76c-20.15,0-42.06-12-57.89-25.48-6.71-5.72-19.26-20-18.74-33.25a18.12,18.12,0,0,1,8-14.3,3.26,3.26,0,0,1,3.82,5.28,11.54,11.54,0,0,0-5.26,9.28c-.39,9.87,9.88,22.43,16.45,28,20.9,17.82,52.93,33.09,74.47,17.51a47.8,47.8,0,0,0,11.13-12.41c2.59-4.06,5.89-10.38,6.82-17.41a3.26,3.26,0,0,1,6.46.85c-1.09,8.22-4.84,15.45-7.79,20.08a54,54,0,0,1-12.8,14.17A41.14,41.14,0,0,1,2171.21,938.76Z"/><path fill="#6a3b35" d="M1884.82,1059.05a3.24,3.24,0,0,1-3.22-3.78c2.93-18.33,14.23-32.77,25.16-46.74,3-3.85,6.13-7.84,9-11.78,8.4-11.7,16.62-23.84,24.56-35.58,6.86-10.13,14-20.61,21.14-30.78,2.71-3.82,5.26-7.84,8-12.1,8.57-13.47,17.43-27.4,31.56-35.53,15.68-9,34.48-10,52.66-10.87,14.37-.72,29.22-1.46,42-6.28a3.26,3.26,0,1,1,2.3,6.1c-13.76,5.18-29.13,5.95-44,6.69-18.2.91-35.4,1.76-49.73,10-12.73,7.33-21.16,20.58-29.31,33.38-2.62,4.14-5.34,8.41-8.15,12.37-7.15,10.11-14.22,20.56-21.06,30.67-8,11.77-16.21,23.95-24.66,35.72-2.91,4.06-6.07,8.09-9.13,12-10.41,13.31-21.19,27.08-23.86,43.76A3.25,3.25,0,0,1,1884.82,1059.05Z"/><path fill="#6a3b35" d="M1995,1053.34a3.27,3.27,0,0,1-2.5-5.36c4.61-5.48,9.78-12,14.79-18.26,5.6-7,11.39-14.3,16.59-20.41a3.26,3.26,0,0,1,5,4.23c-5.13,6-10.89,13.26-16.46,20.25-5,6.32-10.24,12.84-14.9,18.38A3.24,3.24,0,0,1,1995,1053.34Z"/><path fill="#6a3b35" d="M2031.61,1088.17a3.23,3.23,0,0,1-1.85-.57c-9.68-6.7-19-14.62-28.06-22.29-15.59-13.22-31.7-26.88-50.11-34.75a3.26,3.26,0,0,1,2.56-6c19.31,8.25,35.81,22.24,51.76,35.77,8.92,7.56,18.14,15.38,27.56,21.89a3.26,3.26,0,0,1-1.86,5.94Z"/><path fill="#6a3b35" d="M1950.74,1122.41a3.31,3.31,0,0,1-1.36-.3c-25.87-11.86-46.47-25-62.93-50.64a3.26,3.26,0,0,1,5.48-3.52c15.61,24.3,35.34,36.86,60.17,48.23a3.26,3.26,0,0,1-1.36,6.23Z"/><path fill="#6a3b35" d="M1976,1156.06a7.78,7.78,0,0,1-2-.28c-8.71-2.4-17.4-21.64-19-25.47-6.3-14.56,3.94-32.29,16.77-41.57a3.26,3.26,0,0,1,3.82,5.28c-10.93,7.91-19.38,22.67-14.61,33.71,3.63,8.42,10.8,20.66,14.8,21.77.29.07.36,0,.49-.06.47-.6.76-3.47.88-4.7.07-.74.15-1.4.23-1.94a69.36,69.36,0,0,0,.4-13.06,76.48,76.48,0,0,1,.5-14.75,3.26,3.26,0,0,1,6.44,1,71.22,71.22,0,0,0-.43,13.52,74.67,74.67,0,0,1-.47,14.3c-.07.42-.12,1-.18,1.55-.31,3.08-.73,7.29-3.55,9.33A6.8,6.8,0,0,1,1976,1156.06Z"/><path fill="#6a3b35" d="M2005.56,1157.34a12.62,12.62,0,0,1-2.27-.21,16.8,16.8,0,0,1-10.48-7.08c-6.6-10.1-13.85-23.62-11.44-38.63a3.23,3.23,0,0,1,3.74-2.7,3.26,3.26,0,0,1,2.7,3.73c-2.06,12.81,4.51,24.91,10.45,34a10.34,10.34,0,0,0,6.21,4.24,4.54,4.54,0,0,0,3.7-.74c.8-1.14.25-6.88.08-8.76-.11-1.08-.19-2-.19-2.58-.14-8.25,1.07-16.47,2.53-25.58a3.21,3.21,0,0,1,3.73-2.7,3.26,3.26,0,0,1,2.7,3.73c-1.41,8.81-2.57,16.72-2.44,24.45,0,.48.08,1.2.16,2.06.59,6.26.82,12.08-2.75,14.66A10.76,10.76,0,0,1,2005.56,1157.34Z"/><path fill="#6a3b35" d="M2035.82,1169.48a13.89,13.89,0,0,1-9.9-4.59c-8.06-8.64-11.47-19.57-14.76-30.14l-.77-2.46a3.26,3.26,0,1,1,6.22-2l.77,2.47c3.22,10.32,6.26,20.08,13.3,27.63,1.74,1.87,4.23,2.85,6,2.43.44-.11,1.8-.45,2.48-2.9,2-7.13.2-15.22-1.52-23a103.06,103.06,0,0,1-2.28-13,3.27,3.27,0,0,1,3-3.53,3.3,3.3,0,0,1,3.53,3,97.21,97.21,0,0,0,2.15,12.16c1.89,8.6,3.84,17.49,1.43,26.18-1.09,4-3.65,6.61-7.2,7.49A10.41,10.41,0,0,1,2035.82,1169.48Z"/><path fill="#6a3b35" d="M2077.88,1183.49a11.61,11.61,0,0,1-4.6-1c-3.82-1.63-7.12-5.37-9-10.25a75,75,0,0,1-3.48-13.72c-1-5.34-2-10.38-4.18-14.86-2-4-5.19-6.92-8.6-10-1.88-1.73-3.83-3.52-5.62-5.52a3.26,3.26,0,1,1,4.87-4.34,68.71,68.71,0,0,0,5.16,5c3.7,3.4,7.52,6.9,10,11.94,2.63,5.3,3.7,11,4.74,16.57a70,70,0,0,0,3.15,12.53c1.27,3.22,3.34,5.7,5.53,6.65a5.41,5.41,0,0,0,4.32,0,3.26,3.26,0,1,1,2.46,6A12.52,12.52,0,0,1,2077.88,1183.49Z"/><path fill="#6a3b35" d="M2085.87,1178.12h-.19a3.26,3.26,0,0,1-3.07-3.44c1.38-23.55-5.31-64.45-29.08-74a21.77,21.77,0,0,0-7.56-1,33.28,33.28,0,0,1-7.48-.79,30,30,0,0,1-6.9-3.05,21,21,0,0,0-6.57-2.71,13.3,13.3,0,0,0-5.06.79,18,18,0,0,1-7,1c-7.38-.87-17.28-2.48-25.84-4.22a3.26,3.26,0,1,1,1.3-6.39c8.39,1.7,18.09,3.29,25.3,4.13a13.24,13.24,0,0,0,4.46-.77,18.33,18.33,0,0,1,7.81-1,26.3,26.3,0,0,1,8.69,3.44,25.29,25.29,0,0,0,5.42,2.45,27.34,27.34,0,0,0,6,.58,27.8,27.8,0,0,1,9.81,1.5c27.14,10.84,34.71,54,33.18,80.38A3.28,3.28,0,0,1,2085.87,1178.12Z"/><path fill="#6a3b35" d="M2111.49,1162.91c-8.46,0-16.6-2.41-22.7-7a3.26,3.26,0,1,1,3.92-5.21c7.8,5.88,19.82,7.37,30.64,3.81l.87-.27c4.28-1.27,6-2.22,6.77-2.77-1.71-1.39-7.17-3-9.65-3.73a37.93,37.93,0,0,1-5.9-2,145.85,145.85,0,0,1-16.42-10.45c-6.61-4.64-12.86-9-20-12a3.26,3.26,0,0,1,2.52-6c7.78,3.27,14.61,8.06,21.22,12.7a140.3,140.3,0,0,0,15.67,10,38.23,38.23,0,0,0,4.74,1.58c5.53,1.63,11.8,3.48,13.93,7.28a5.48,5.48,0,0,1,.33,4.81c-1.45,3.55-6.32,5.43-11.37,6.92l-.67.21A44.7,44.7,0,0,1,2111.49,1162.91Zm19.92-11h0Z"/><path fill="#6a3b35" d="M2377.86,1100.82l-.35,0a3.28,3.28,0,0,1-2.9-3.59c.55-5,1.46-10.07,2.34-14.93,1.59-8.73,3.08-17,2.69-25.45-.87-18.51-4.59-36.75-8.19-54.39-1.89-9.23-3.83-18.78-5.38-28.37-1.14-7.05-2-14.51-2.86-21.73-4.17-35.61-8.49-72.44-45.84-85-9.54-3.18-18-4.07-28-4.9-11.29-.93-32.87,2.37-43.39,5.14a3.26,3.26,0,0,1-1.66-6.31c10.74-2.83,33.18-6.36,45.59-5.33,10.11.84,19.31,1.81,29.53,5.22,41.27,13.82,46,54.49,50.25,90.37.87,7.48,1.7,14.54,2.81,21.45,1.53,9.46,3.47,18.94,5.34,28.11,3.64,17.88,7.42,36.37,8.31,55.38.43,9.21-1.2,18.22-2.78,26.92-.87,4.75-1.76,9.67-2.27,14.46A3.27,3.27,0,0,1,2377.86,1100.82Z"/><path fill="#6a3b35" d="M2284.77,1042.13l-.46,0a3.26,3.26,0,0,1-2.77-3.69c1.69-11.94-.59-26.12-2.8-39.84-1-6.21-1.94-12.08-2.5-17.65a3.26,3.26,0,0,1,6.48-.66c.55,5.38,1.48,11.16,2.46,17.27,2.28,14.2,4.64,28.88,2.81,41.8A3.25,3.25,0,0,1,2284.77,1042.13Z"/><path fill="#6a3b35" d="M2041.88,1069.29c-16,0-32.64-.53-33.74-.56a3.26,3.26,0,0,1-3.15-3.37,3.19,3.19,0,0,1,3.36-3.15c14.85.49,46,1,57.57-.21a88.77,88.77,0,0,0,11.58-2.3c5.42-1.32,11-2.69,17-2.69h.18c38.11.13,71.45-1.38,101.73-4.78,13.19-1.48,26.45-4.25,39.28-6.94,11.36-2.38,23.11-4.84,34.86-6.41a208.16,208.16,0,0,1,23.6-1.37c5.45-.1,11.07-.21,16.46-.64a3.32,3.32,0,0,1,3.51,3,3.27,3.27,0,0,1-3,3.5c-5.58.44-11.3.55-16.84.66a201.83,201.83,0,0,0-22.86,1.31c-11.52,1.54-23.14,4-34.4,6.33-13,2.71-26.39,5.52-39.88,7-30.53,3.43-64,5-102.49,4.82-5.18,0-10.31,1.2-15.65,2.51a97,97,0,0,1-12.41,2.44C2061,1069.1,2051.56,1069.29,2041.88,1069.29Z"/><path fill="#6a3b35" d="M2110.39,1114a2.45,2.45,0,0,1-.46,0,3.26,3.26,0,0,1-2.77-3.68c1.77-12.44-6.66-38-15.29-46.25a3.26,3.26,0,1,1,4.52-4.69c10.11,9.72,19.28,37.35,17.23,51.86A3.27,3.27,0,0,1,2110.39,1114Z"/><path fill="#6a3b35" d="M2032.15,1067.19a2.53,2.53,0,0,1-.47,0,3.27,3.27,0,0,1-2.76-3.69c3.15-22.06-2.21-52.26-8.93-72.41a3.26,3.26,0,0,1,6.19-2.06c7,20.87,12.5,52.28,9.19,75.4A3.25,3.25,0,0,1,2032.15,1067.19Z"/><path fill="#6a3b35" d="M525.6,832.27a3.27,3.27,0,0,1-3.1-2.26c-2-6.22-3.56-11.72-4.76-16.82a3.26,3.26,0,0,1,6.35-1.49c1.15,4.92,2.67,10.26,4.62,16.31a3.26,3.26,0,0,1-2.11,4.1A3.12,3.12,0,0,1,525.6,832.27Z"/><path fill="#6a3b35" d="M592.33,926.45a54.13,54.13,0,0,1-9.9-.92c-25.17-4.67-52.65-46.93-51.6-65.79h0a6.76,6.76,0,0,0-.23-1.3A3.26,3.26,0,1,1,537,857a11.46,11.46,0,0,1,.39,3.14c-.87,15.68,25.22,55.12,46.28,59C618,925.51,648.86,892.49,661.7,872a3.26,3.26,0,0,1,5.53,3.46C654.73,895.41,626,926.45,592.33,926.45Z"/><path fill="#6a3b35" d="M578.28,864.73a3.26,3.26,0,0,1-1.72-.49c-.53-.33-1.08-.64-1.64-1-2.31-1.29-5.19-2.89-6.75-6.1-1.82-3.74-.18-7,.9-9.13a16.78,16.78,0,0,0,.88-1.94c1.06-3.06.85-5.62-.74-9.14a3.26,3.26,0,1,1,5.94-2.68c2.3,5.08,2.59,9.26,1,14a23.16,23.16,0,0,1-1.23,2.74c-1,2-1.22,2.62-.86,3.34.66,1.37,2.24,2.25,4.06,3.26.65.37,1.3.73,1.92,1.12a3.26,3.26,0,0,1-1.73,6Z"/><path fill="#6a3b35" d="M549,839.1a23.6,23.6,0,0,1-9-1.82,3.26,3.26,0,0,1,2.66-5.95c2.83,1.26,7.85,1.8,9.85.58a3.26,3.26,0,1,1,3.39,5.57A13.28,13.28,0,0,1,549,839.1Z"/><path fill="#6a3b35" d="M548.93,842.92c-1.5,0-3.17-.75-4.58-3.39a3.26,3.26,0,0,1,5.38-3.63l.66-.34a3.26,3.26,0,0,1,2.81,5.89l-.88.44A7.55,7.55,0,0,1,548.93,842.92Z"/><path fill="#6a3b35" d="M598.89,836.71a3.39,3.39,0,0,1-3.39-3.18,3.16,3.16,0,0,1,3-3.34h.26c3.93-.1,10.49-.26,13.19-2.8a3.26,3.26,0,1,1,4.46,4.75c-4.51,4.24-12.32,4.44-17.48,4.56Z"/><path fill="#6a3b35" d="M606.93,839.2a6.67,6.67,0,0,1-3-.79,3.26,3.26,0,1,1,3-5.79c0-.1.29-.35.67-.87a3.26,3.26,0,1,1,5.3,3.79C610.82,838.37,608.71,839.2,606.93,839.2Z"/><path fill="#6a3b35" d="M532.91,810.28a3.26,3.26,0,0,1-1.41-6.2c8-3.82,16.83-4.26,24.2-1.21a3.26,3.26,0,1,1-2.49,6c-5.59-2.31-12.65-1.91-18.9,1.07A3.18,3.18,0,0,1,532.91,810.28Z"/><path fill="#6a3b35" d="M591,804.72a3.27,3.27,0,0,1-1.78-6c7.42-4.83,18.43-4.4,25.52-2a3.26,3.26,0,0,1-2.12,6.17c-5.83-2-14.51-2.23-19.84,1.25A3.24,3.24,0,0,1,591,804.72Z"/><path fill="#6a3b35" d="M683.3,859.32a8.76,8.76,0,0,1-2.62-.39,3.26,3.26,0,1,1,1.91-6.23c1.79.54,5.2-1.27,8.67-4.64,6.4-6.23,8.5-12.84,6.61-20.8-.55-2.32-1.84-7.74-4.2-8.83-1.32-.61-3.34.14-4.8.89a17.85,17.85,0,0,0-4.63,3.81l-.91.93a3.26,3.26,0,0,1-4.61-4.61l.86-.88a24.07,24.07,0,0,1,6.32-5.06c4-2,7.53-2.37,10.5-1,4.61,2.12,6.48,7.62,7.81,13.24,2.44,10.27-.31,19.1-8.41,27C692.55,855.9,688,859.32,683.3,859.32Z"/><path fill="#6a3b35" d="M680.29,843.5a3.23,3.23,0,0,1-2.12-.79,3.26,3.26,0,0,1-.35-4.6,32.19,32.19,0,0,1,11.82-8.63,3.26,3.26,0,0,1,2.61,6,25.85,25.85,0,0,0-9.49,6.9A3.24,3.24,0,0,1,680.29,843.5Z"/><path fill="#6a3b35" d="M667.1,808.05H667c-27.65-1.26-45.11-19.49-62-37.13-1.93-2-3.87-4-5.83-6-12.81-13.12-28-25.71-43.34-19.57a3.26,3.26,0,1,1-2.42-6c18.92-7.57,36.11,6.41,50.43,21.07,2,2,3.92,4.06,5.87,6.09,16.74,17.48,32.54,34,57.59,35.13a3.26,3.26,0,0,1-.15,6.51Z"/><path fill="#6a3b35" d="M670.86,826.81l-.39,0c-8-.94-13.76-4.18-19.32-10.84a3.26,3.26,0,0,1,5-4.18c4.45,5.33,8.81,7.8,15.07,8.54a3.26,3.26,0,0,1-.37,6.5Z"/><path fill="#6a3b35" d="M515.18,824.31a3.22,3.22,0,0,1-1.95-.65,3.27,3.27,0,0,1-.66-4.57c6.56-8.74,7.38-21.55,8.16-33.94C521.9,766.9,523.09,748,542,739.9a3.26,3.26,0,0,1,2.57,6c-15.25,6.54-16.28,22.63-17.36,39.67-.85,13.34-1.72,27.13-9.45,37.43A3.24,3.24,0,0,1,515.18,824.31Z"/><path fill="#6a3b35" d="M586.92,902.89a6.28,6.28,0,0,1-4.21-1.9c-3.85-3.46-5.24-8.38-6.47-12.72-.36-1.3-.72-2.58-1.14-3.77-1.41-4,.44-6.25,2.46-7,4.16-1.57,11.82,3,13.47,7,.05.13,3.43,14.06-1.55,17.56A4.53,4.53,0,0,1,586.92,902.89Zm.58-6.41Zm-5.56-12c.19.66.39,1.33.58,2,.81,2.87,1.64,5.81,3.13,8a37.4,37.4,0,0,0-.72-7.69A8.26,8.26,0,0,0,581.94,884.48Z"/><path fill="#6a3b35" d="M690.23,900.89a3.25,3.25,0,0,1-2.47-5.38c4.66-5.44,10.1-8.68,15.36-11.81,7.72-4.59,14.38-8.56,17.09-18.79,3.15-11.89-.59-26.06-4.2-39.75a180.1,180.1,0,0,1-4.31-18.95c-.82-5.46-1.58-11.24-2.37-17.24-6.2-47.22-13.93-106-62.58-121.1-10-3.1-21.13-2.72-29.72-2-13.53,1.06-27,5.11-37,11.11a3.26,3.26,0,1,1-3.35-5.59c10.84-6.51,25.37-10.89,39.87-12,9.17-.72,21.12-1.1,32.16,2.32,52.64,16.34,60.67,77.41,67.12,126.49.78,6,1.54,11.7,2.35,17.12a177.06,177.06,0,0,0,4.16,18.24c3.83,14.52,7.79,29.53,4.21,43.09-3.39,12.8-11.87,17.85-20.06,22.72-4.81,2.86-9.79,5.83-13.75,10.45A3.27,3.27,0,0,1,690.23,900.89Z"/><path fill="#6a3b35" d="M676.79,911.83a3.25,3.25,0,0,1-2.31-1,28.28,28.28,0,0,0-3.64-2.73c-3.63-2.48-8.14-5.56-8.84-10.35-1.64-11.27-.34-14.76,2.26-21.72.41-1.08.85-2.27,1.33-3.6a3.26,3.26,0,1,1,6.14,2.19c-.49,1.37-.94,2.58-1.36,3.69-2.48,6.65-3.32,8.89-1.92,18.5.28,2,3.49,4.14,6.06,5.9a31.61,31.61,0,0,1,4.58,3.51,3.27,3.27,0,0,1-2.3,5.57Z"/><path fill="#6a3b35" d="M678,928.4a3.32,3.32,0,0,1-1.46-.34,3.27,3.27,0,0,1-1.46-4.38c2.36-4.71,7.61-8.17,12.69-11.52,8.54-5.63,13.58-9.49,11.52-15.68a3.26,3.26,0,1,1,6.18-2.07c3.8,11.39-6.13,17.94-14.12,23.2-4.35,2.87-8.86,5.84-10.43,9A3.28,3.28,0,0,1,678,928.4Z"/><path fill="#6a3b35" d="M671.47,935.59a3.24,3.24,0,0,1-2.3-1c-11.49-11.48-15.34-22.87-11.76-34.81a3.26,3.26,0,1,1,6.24,1.87c-2.86,9.56.36,18.56,10.13,28.34a3.26,3.26,0,0,1-2.31,5.56Z"/><path fill="#6a3b35" d="M674,951.84a3.25,3.25,0,0,1-2.4-5.47c1.21-1.31,2.56-2.66,4-4.06,6.35-6.33,13.54-13.5,11.23-21.59a3.26,3.26,0,1,1,6.27-1.79c3.37,11.79-5.65,20.78-12.9,28-1.34,1.33-2.63,2.62-3.78,3.86A3.23,3.23,0,0,1,674,951.84Z"/><path fill="#6a3b35" d="M661.79,952.78a3.24,3.24,0,0,1-2.51-1.17c-6-7.15-4.79-15-3.76-21.84a54.52,54.52,0,0,0,.82-8.07,3.26,3.26,0,0,1,6.52,0,59.94,59.94,0,0,1-.89,9c-1,6.59-1.77,11.79,2.32,16.7a3.25,3.25,0,0,1-2.5,5.34Z"/><path fill="#6a3b35" d="M664.28,1014.05a3.42,3.42,0,0,1-1-.17,3.26,3.26,0,0,1-2.06-4.12c1.77-5.3,5.3-8.85,8.72-12.27a45,45,0,0,0,5.15-5.77c7.57-10.78,2.69-26-3.8-35.71a3.26,3.26,0,1,1,5.43-3.61c7.63,11.45,13.17,29.59,3.71,43.07a51.78,51.78,0,0,1-5.87,6.62c-3,3-5.87,5.88-7.15,9.73A3.27,3.27,0,0,1,664.28,1014.05Z"/><path fill="#6a3b35" d="M654.59,1022.48a3.24,3.24,0,0,1-2.14-.8,45.09,45.09,0,0,0-4.24-3.12c-4-2.75-8.57-5.87-10.41-10.67-6.16-16,4.7-30.25,13.42-41.69,2.18-2.86,4.23-5.56,6-8.17a3.26,3.26,0,0,1,5.43,3.62c-1.85,2.78-4,5.56-6.21,8.5-8.54,11.21-17.38,22.8-12.53,35.4,1.12,2.9,4.63,5.31,8,7.63a53.74,53.74,0,0,1,4.84,3.59,3.26,3.26,0,0,1-2.15,5.71Z"/><path fill="#6a3b35" d="M533.62,916.21a3.32,3.32,0,0,1-1.75-.51c-8.11-5.16-15.27-10-20.85-17.35-10.13-13.3-8.51-28.45-6.94-43.11.74-6.94,1.44-13.5,1-19.89-.63-8.65-2-17.44-3.32-25.93-1.47-9.48-3-19.28-3.56-29.13-2.21-39.09,10.93-72.32,38-96.1a91.82,91.82,0,0,1,22.71-14.6,28.25,28.25,0,0,1,7.52-1.86,20.59,20.59,0,0,0,6.1-1.51,3.26,3.26,0,0,1,2.92,5.83,26.14,26.14,0,0,1-8,2.13,23.16,23.16,0,0,0-5.84,1.37,85.18,85.18,0,0,0-21.06,13.54c-25.5,22.41-37.87,53.82-35.78,90.83.54,9.53,2,19.18,3.49,28.5,1.35,8.62,2.73,17.53,3.39,26.46.5,7-.26,14.13-1,21-1.5,14-2.91,27.24,5.65,38.47,4.92,6.47,11.59,11,19.17,15.8a3.26,3.26,0,0,1-1.76,6Z"/><path fill="#6a3b35" d="M546.76,947.78h-.3a3.26,3.26,0,0,1-3-3.55c.56-6.17,4.16-10.5,7.33-14.32,2.88-3.45,5.36-6.44,5.8-10.44a3.21,3.21,0,0,1,3.6-2.87,3.26,3.26,0,0,1,2.88,3.6c-.66,5.93-4.17,10.16-7.26,13.88-2.94,3.54-5.48,6.59-5.86,10.75A3.26,3.26,0,0,1,546.76,947.78Z"/><path fill="#6a3b35" d="M543.63,961.53a3.25,3.25,0,0,1-2.25-.9l-.43-.4c-16.89-16.13-31.48-30.05-26.15-56.68a3.26,3.26,0,0,1,6.39,1.28c-4.62,23.11,7.5,34.67,24.27,50.68l.42.4a3.26,3.26,0,0,1-2.25,5.62Z"/><path fill="#6a3b35" d="M549.88,975.6a3.35,3.35,0,0,1-1-.16,3.26,3.26,0,0,1-2.06-4.13,90.39,90.39,0,0,1,4.29-10c3.1-6.53,6.31-13.29,5.56-19.82a41.81,41.81,0,0,1-.3-5.8l-.06,0-.4-.27a3.26,3.26,0,0,1,3.62-5.42l.38.25c2.29,1.52,3,2.51,3,5.41a34,34,0,0,0,.26,5.12c1,8.38-2.66,16-6.15,23.36a84,84,0,0,0-4,9.3A3.25,3.25,0,0,1,549.88,975.6ZM557,936.1h0Z"/><path fill="#6a3b35" d="M546.12,982.16a3.23,3.23,0,0,1-1.86-.59c-13.78-9.64-20.77-22.32-20.77-37.67a3.26,3.26,0,0,1,6.52,0c0,13.28,5.88,23.86,18,32.34a3.25,3.25,0,0,1-1.88,5.92Z"/><path fill="#6a3b35" d="M555.5,1040a3.28,3.28,0,0,1-1.45-.34,7.09,7.09,0,0,1-3.8-4.54c-1.52-5.59,3.33-13.09,8-20.34,1.89-2.92,4-6.23,4.4-7.63,2.68-10.17-2.85-18.36-8.7-27l-1.49-2.22a3.26,3.26,0,0,1,5.43-3.62l1.47,2.19c6.1,9,13,19.29,9.59,32.33-.63,2.4-2.66,5.54-5.22,9.51-3,4.6-8,12.31-7.21,15.08,0,.13.07.25.42.43a3.26,3.26,0,0,1-1.46,6.17Z"/><path fill="#6a3b35" d="M545.19,1040.62a3.28,3.28,0,0,1-1.62-.43c-16.06-9.18-21.33-23.16-14.85-39.36.11-.28.6-1.22,1.34-2.54,4.94-9,6.22-12.32,6.36-13.52a3.26,3.26,0,0,1,6.06-2.32c1.39,2.77-.12,7-6.72,19-.51.92-.88,1.6-1,1.89-5.24,13.1-1.19,23.62,12.07,31.2a3.26,3.26,0,0,1-1.62,6.09Zm-8.55-55.26h0Z"/><path fill="#6a3b35" d="M554.62,724.15a3.34,3.34,0,0,1-1.07-.18,3.28,3.28,0,0,1-2-4.16c4.68-13.43,10-22.7,17.92-31a3.26,3.26,0,1,1,4.73,4.49C567,700.89,562.05,709.46,557.7,722A3.27,3.27,0,0,1,554.62,724.15Z"/><path fill="#6a3b35" d="M737.12,1026.67l-.46,0a3.27,3.27,0,0,1-2.77-3.69c3.59-25.09,18.83-48.05,41.81-63,8.07-5.24,15.75-7.89,22.84-7.89.79,0,1.65-.05,2.53-.09A32.92,32.92,0,0,1,807,952a92.16,92.16,0,0,0-5.27-7.73,58.81,58.81,0,0,1-4.34-6.42c-1.62-3.07-3.16-6.26-4.71-9.49-5.82-12.07-11.84-24.56-23-31.75-8.44-5.47-18.25-7.41-28.63-9.46-7.24-1.43-14.72-2.91-21.7-5.7a3.26,3.26,0,0,1,2.42-6c6.42,2.56,13.28,3.92,20.54,5.36,10.53,2.08,21.42,4.23,30.91,10.38,12.65,8.18,19.08,21.51,25.29,34.39,1.52,3.15,3,6.28,4.61,9.29a57.37,57.37,0,0,0,3.83,5.6c4.76,6.48,8.12,11.4,8.12,15.57a3.81,3.81,0,0,1-1.65,3.22c-1.9,1.29-4.06.44-5.79-.25a9.67,9.67,0,0,0-1.27-.46,25.23,25.23,0,0,0-5,0c-1,0-2,.1-2.85.1-5.81,0-12.3,2.3-19.28,6.84-21.41,13.91-35.59,35.22-38.91,58.45A3.26,3.26,0,0,1,737.12,1026.67Z"/><path fill="#6a3b35" d="M844.64,1081.7a3.26,3.26,0,0,1-3.21-2.73c-1.25-7.49-9-26.3-14.64-40-2.6-6.32-4.84-11.78-6-15.12C813,1002.25,806.47,980,800,957.27a3.26,3.26,0,0,1,6.27-1.79c6.47,22.65,12.92,44.75,20.64,66.12,1.16,3.22,3.38,8.61,6,14.86,6.09,14.8,13.67,33.22,15,41.44a3.24,3.24,0,0,1-3.22,3.8Z"/><path fill="#6a3b35" d="M469.69,1003.51a3.26,3.26,0,0,1-3.13-2.36c-6.45-22.59-14.45-40.23-25.16-55.53A65.91,65.91,0,0,0,423,927.89c-.19-.11-.53-.28-.95-.49-3.09-1.59-7.77-4-6.78-8,.85-3.41,4.83-6,10.35-9.21a38.52,38.52,0,0,0,3.74-2.35l.58-.47c12.14-9.94,24.7-20.22,40.6-24.71,10.25-2.89,21.28-3.28,30.72-3.28a3.26,3.26,0,0,1,0,6.52c-9,0-19.46.36-28.95,3-14.59,4.12-26.61,14-38.24,23.48l-.59.48a39.28,39.28,0,0,1-4.56,2.92,50.6,50.6,0,0,0-6.52,4.3c.89.55,2.06,1.15,2.62,1.44s1.18.61,1.48.8a72.47,72.47,0,0,1,20.22,19.49c11.14,15.91,19.43,34.17,26.09,57.47a3.26,3.26,0,0,1-2.24,4A3.11,3.11,0,0,1,469.69,1003.51Z"/><path fill="#6a3b35" d="M490.87,1056a3.27,3.27,0,0,1-3.08-2.2c-8-23.26-14.05-68.6-15.72-81.94a3.26,3.26,0,0,1,6.47-.81c1.18,9.38,7.43,57.38,15.42,80.63a3.27,3.27,0,0,1-3.09,4.32Z"/><path fill="#6a3b35" d="M726.79,1058.08h-.19a3.26,3.26,0,0,1-3.07-3.44c.23-4.2.47-8.87.73-13.8.88-17.09,1.87-36.47,3.3-50.74a3.26,3.26,0,0,1,6.49.64c-1.41,14.12-2.41,33.42-3.28,50.44-.26,4.93-.5,9.61-.73,13.82A3.26,3.26,0,0,1,726.79,1058.08Z"/><path fill="#6a3b35" d="M744.49,1052.64a3.25,3.25,0,0,1-3.14-2.4c-2.61-9.53-4.79-19.23-6.72-27.79A3.26,3.26,0,0,1,741,1021c1.91,8.5,4.08,18.12,6.65,27.51a3.27,3.27,0,0,1-2.29,4A3.69,3.69,0,0,1,744.49,1052.64Z"/><path fill="#6a3b35" d="M660.61,1079.31a3.26,3.26,0,0,1-.36-6.5c16.38-1.82,29.87-4.66,42.48-9,8.11-2.77,15.85-6.12,23.33-9.35,13.27-5.73,27-11.66,42.81-14.3a3.26,3.26,0,0,1,1.07,6.43c-15,2.51-27.79,8-41.3,13.86-7.6,3.28-15.45,6.67-23.81,9.53-13.06,4.45-27,7.4-43.86,9.27A2.17,2.17,0,0,1,660.61,1079.31Z"/><path fill="#6a3b35" d="M644.12,1140a3.26,3.26,0,0,1,0-6.52c91.11,0,157.59-14.31,197.61-42.53a3.26,3.26,0,0,1,3.76,5.33C804.35,1125.32,736.6,1140,644.12,1140Z"/><path fill="#6a3b35" d="M649.68,1077.31c-1.64,0-4.21-.5-8.7-2.17-5.51-2-10.91-4.65-16.13-7.18l-3.32-1.61a35.93,35.93,0,0,0-9.84-2.62,55.62,55.62,0,0,1-8.45-1.91l-3.21-1.09c-12.34-4.19-21.25-7.22-33.23-1.25a3.26,3.26,0,1,1-2.92-5.83c14.42-7.2,25.46-3.44,38.25.91l3.17,1.08a50.19,50.19,0,0,0,7.48,1.66,41.38,41.38,0,0,1,11.56,3.17l3.36,1.62c5.08,2.47,10.33,5,15.51,6.93s6.43,1.75,6.52,1.77a3.12,3.12,0,0,1,4,2,3.36,3.36,0,0,1-2.12,4.19A5.7,5.7,0,0,1,649.68,1077.31Z"/><path fill="#6a3b35" d="M601.65,1142.69a3.34,3.34,0,0,1-.62-.06,33.45,33.45,0,0,0-3.91-.38c-4-.27-8.53-.58-11.74-3-13.12-9.85-10.53-27.53,7.7-52.54a3.26,3.26,0,1,1,5.27,3.84c-15.94,21.87-18.9,36.1-9.06,43.49,1.67,1.25,5.33,1.49,8.27,1.69a39.52,39.52,0,0,1,4.7.49,3.26,3.26,0,0,1-.61,6.46Z"/><path fill="#6a3b35" d="M604.92,1137.63a3.26,3.26,0,0,1-3.24-3c-.41-4.34-1.49-15.89,7.75-20.71a3.26,3.26,0,1,1,3,5.78c-3.71,1.93-5,6.35-4.28,14.32a3.26,3.26,0,0,1-2.94,3.55Z"/><path fill="#6a3b35" d="M632.31,1143a36.22,36.22,0,0,1-24.22-9.81,3.26,3.26,0,1,1,4.53-4.68c6.45,6.23,17,9.41,24.6,7.36a3.26,3.26,0,1,1,1.69,6.3A25.45,25.45,0,0,1,632.31,1143Z"/><path fill="#6a3b35" d="M581.25,1137a3,3,0,0,1-.52,0,35.75,35.75,0,0,0-5.78-.2c-4.77.06-10.18.12-13.94-2.71-3-2.27-3.53-7.1-3.94-11-.08-.77-.15-1.46-.24-2a27.32,27.32,0,0,0-1.13-3.77c-.93-2.7-1.89-5.5-1.71-8.21.84-12.7,11.77-26.48,15.1-30.39a3.26,3.26,0,1,1,5,4.21c-6.18,7.29-13,18.1-13.56,26.61-.1,1.4.68,3.66,1.37,5.66a33,33,0,0,1,1.38,4.76c.11.64.2,1.48.3,2.43.17,1.54.6,5.65,1.42,6.5,1.95,1.45,6.17,1.41,9.9,1.36a41.38,41.38,0,0,1,6.9.28,3.26,3.26,0,0,1-.52,6.48Z"/><path fill="#6a3b35" d="M556.88,1131.25c-8,0-10.14-3-12.63-9.18a57,57,0,0,0-2.9-6.39,25,25,0,0,0-2.4-3.36c-2.3-2.9-5.17-6.5-4.7-11.1.68-6.71,3.93-13.24,7.07-19.55,1.46-2.93,2.84-5.69,3.87-8.32a3.26,3.26,0,0,1,6.06,2.4c-1.13,2.87-2.57,5.77-4.09,8.82-2.88,5.79-5.86,11.78-6.42,17.31-.2,2,1.51,4.11,3.32,6.39a30,30,0,0,1,3,4.32,66.19,66.19,0,0,1,3.22,7.05c2.09,5.22,2.26,5.66,10.37,4.88a3.26,3.26,0,0,1,.61,6.5C559.64,1131.17,558.18,1131.25,556.88,1131.25Z"/><path fill="#6a3b35" d="M511.62,1137.8l-.54,0a5.5,5.5,0,0,1-3.84-2c-2.81-3.36-1.08-7.25,0-9.58.21-.46.41-.91.55-1.32a139.1,139.1,0,0,0,4.73-16.47c.61-2.8,1-5.68,1.44-8.73a76.77,76.77,0,0,1,3.12-15c1.11-3.18,3.27-5.72,5.18-8,.64-.75,1.27-1.49,1.85-2.24,6.07-7.92,16.23-21.18,28.44-25.29,4.13-1.4,8.27-1.11,12.28-.82a46.91,46.91,0,0,0,6.08.17,3.31,3.31,0,0,1,3.47,3,3.26,3.26,0,0,1-3,3.47,47.56,47.56,0,0,1-7-.17c-3.52-.24-6.84-.48-9.74.5-10.33,3.48-19.73,15.75-25.35,23.08-.64.84-1.34,1.66-2,2.49-1.69,2-3.29,3.87-4,5.9a72.38,72.38,0,0,0-2.82,13.76c-.42,3-.86,6.18-1.52,9.22a147,147,0,0,1-4.94,17.23c-.2.57-.47,1.19-.76,1.83a15.7,15.7,0,0,0-.86,2.25,16.84,16.84,0,0,0,4.83-2.94c6-5.1,10.38-12.42,14.26-23.72a3.26,3.26,0,0,1,6.17,2.11c-2.66,7.74-7.23,18.92-16.2,26.57C520,1134.29,515.61,1137.8,511.62,1137.8Z"/><path fill="#6a3b35" d="M305,1084.24a3.18,3.18,0,0,1-1.13-.21,3.26,3.26,0,0,1-1.93-4.19c9.21-24.82,25-40.39,41.71-56.87,7.92-7.82,16.12-15.9,23.7-25.16q3.08-3.75,6.22-7.52c6.52-7.84,13.27-15.95,19.1-24.25,2.88-4.09,5.64-8.52,8.3-12.8,6.14-9.84,12.48-20,21.28-28.06a3.26,3.26,0,1,1,4.4,4.81c-8.14,7.43-14.24,17.23-20.14,26.7-2.72,4.35-5.52,8.86-8.5,13.1-6,8.52-12.83,16.73-19.43,24.68-2.08,2.49-4.15,5-6.18,7.46-7.81,9.54-16.13,17.74-24.18,25.68-16.18,16-31.46,31-40.16,54.5A3.27,3.27,0,0,1,305,1084.24Z"/><path fill="#6a3b35" d="M517.7,1059.45c-30.33,0-65.9-3.63-89.71-8.35-4.48-.89-9.06-2-13.7-3.1-15.6-3.74-31.73-7.6-46.69-4.06a3.26,3.26,0,1,1-1.5-6.34c16.46-3.91,33.36.15,49.71,4.06,4.55,1.09,9.05,2.17,13.45,3,30.63,6.08,83.61,10.45,115.82,7a3.23,3.23,0,0,1,3.6,2.89,3.27,3.27,0,0,1-2.89,3.59A264.8,264.8,0,0,1,517.7,1059.45Z"/><path fill="#6a3b35" d="M358.11,1130.32c-3,0-6-.09-9-.27-17.27-1.08-49.41-3.09-49-37.08a3.13,3.13,0,0,1,3.3-3.22,3.26,3.26,0,0,1,3.22,3.3c-.28,23.14,16.2,28.83,42.89,30.49,29,1.85,64.09-6.27,98-14.09,24.3-5.61,47.26-10.9,67.2-12.44a3.32,3.32,0,0,1,3.5,3,3.27,3.27,0,0,1-3,3.5c-19.45,1.5-42.17,6.74-66.23,12.29C418,1123,386.07,1130.32,358.11,1130.32Z"/><path fill="#6a3b35" d="M437.63,1049.61a3.25,3.25,0,0,1-3.06-4.39c5.53-14.91,21.72-34.19,34.18-44.21a3.26,3.26,0,1,1,4.09,5.08c-11.52,9.26-27.09,27.72-32.16,41.4A3.25,3.25,0,0,1,437.63,1049.61Z"/><path fill="#6a3b35" d="M608.6,969a52.07,52.07,0,0,1-26.55-7.33c-9.62-5.65-20.57-31.4-21.72-46.49a3.26,3.26,0,0,1,3-3.5,3.31,3.31,0,0,1,3.5,3c1,13.72,11.61,37.3,18.52,41.37,17.46,10.27,38.67,8.06,55.38-5.77.61-.5,1.32-1.06,2.11-1.68,3.54-2.79,8.88-7,10.07-10.56a3.26,3.26,0,0,1,6.19,2.06c-1.81,5.42-7.83,10.16-12.23,13.62-.74.58-1.41,1.11-2,1.59C633.93,964.39,621.22,969,608.6,969Z"/><path fill="#6a3b35" d="M1636.75,815.58a3.17,3.17,0,0,1-1-.16,3.25,3.25,0,0,1-2.11-4.1c1.91-5.92,3.37-11.09,4.48-15.82a3.26,3.26,0,0,1,6.35,1.49c-1.15,4.9-2.66,10.24-4.62,16.33A3.26,3.26,0,0,1,1636.75,815.58Z"/><path fill="#6a3b35" d="M1573.83,901.2c-32.67,0-60.63-30.15-72.77-49.56a3.26,3.26,0,0,1,5.53-3.46c12.44,19.89,42.37,51.9,75.67,45.72,20.4-3.79,45.67-42,44.83-57.18a10.84,10.84,0,0,1,.37-3.07,3.26,3.26,0,1,1,6.35,1.48,7.15,7.15,0,0,0-.21,1.22c1,18.34-25.7,59.41-50.16,64A51.85,51.85,0,0,1,1573.83,901.2Z"/><path fill="#6a3b35" d="M1587.46,841.32a3.26,3.26,0,0,1-1.74-6c.6-.37,1.23-.73,1.86-1.08,1.76-1,3.28-1.83,3.92-3.13.32-.67.11-1.27-.84-3.15a23.62,23.62,0,0,1-1.2-2.68c-1.58-4.57-1.3-8.64.94-13.6a3.26,3.26,0,1,1,5.94,2.67c-1.53,3.4-1.73,5.87-.71,8.8a14.92,14.92,0,0,0,.85,1.87c1.06,2.1,2.66,5.27.88,8.94-1.54,3.15-4.34,4.72-6.6,6-.54.3-1.07.6-1.58.92A3.2,3.2,0,0,1,1587.46,841.32Z"/><path fill="#6a3b35" d="M1615.9,816.44a13,13,0,0,1-6.72-1.59,3.26,3.26,0,1,1,3.39-5.56c1.86,1.13,6.76.63,9.46-.58a3.26,3.26,0,0,1,2.67,5.95A22.9,22.9,0,0,1,1615.9,816.44Z"/><path fill="#6a3b35" d="M1615.94,820.16a7.49,7.49,0,0,1-3.34-1l-.85-.43a3.26,3.26,0,1,1,2.81-5.88l.58.29a3.26,3.26,0,0,1,5.32,3.68C1619.08,819.41,1617.43,820.16,1615.94,820.16Z"/><path fill="#6a3b35" d="M1567.63,814.12l.08-3.26Zm-.2,0c-5-.12-12.67-.3-17.1-4.46a3.26,3.26,0,0,1,4.47-4.75c2.61,2.46,9,2.61,12.78,2.7l.13,3.26Z"/><path fill="#6a3b35" d="M1559.68,816.51c-1.73,0-3.85-.77-5.84-3.58a3.26,3.26,0,1,1,5.31-3.77,3.17,3.17,0,0,0,.81.9,3.08,3.08,0,0,1,4.24,1.35,3.27,3.27,0,0,1-1.55,4.35A6.58,6.58,0,0,1,1559.68,816.51Z"/><path fill="#6a3b35" d="M1630.58,795.78a3.17,3.17,0,0,1-1.39-.32c-6-2.87-12.86-3.26-18.27-1a3.26,3.26,0,1,1-2.49-6c7.18-3,15.77-2.53,23.56,1.18a3.26,3.26,0,0,1-1.41,6.2Z"/><path fill="#6a3b35" d="M1574.23,790.38a3.23,3.23,0,0,1-1.77-.53c-5.09-3.32-13.67-3.09-19.17-1.2a3.26,3.26,0,0,1-2.12-6.16c6.9-2.38,17.62-2.8,24.85,1.9a3.26,3.26,0,0,1-1.79,6Z"/><path fill="#6a3b35" d="M1485.54,836.06c-4.56,0-9-3.34-12.19-6.42-7.88-7.67-10.56-16.27-8.19-26.27,1.3-5.48,3.12-10.83,7.63-12.92,2.91-1.35,6.37-1,10.28,1a23.38,23.38,0,0,1,6.16,4.93l.83.85a3.26,3.26,0,0,1-4.62,4.61l-.87-.9a17.41,17.41,0,0,0-4.47-3.69c-1.4-.71-3.32-1.44-4.58-.86-2.25,1-3.54,6.46-4,8.5-1.82,7.69.21,14.08,6.4,20.1,3.32,3.24,6.57,5,8.31,4.48a3.26,3.26,0,1,1,1.91,6.23A8.86,8.86,0,0,1,1485.54,836.06Z"/><path fill="#6a3b35" d="M1488.47,820.71a3.27,3.27,0,0,1-2.48-1.14,24.59,24.59,0,0,0-9.17-6.68,3.26,3.26,0,1,1,2.62-6,31.26,31.26,0,0,1,11.5,8.41,3.25,3.25,0,0,1-2.47,5.38Z"/><path fill="#6a3b35" d="M1500.37,793.62a3.26,3.26,0,0,1-.14-6.51c24.25-1.11,39.58-17.11,55.81-34.05,1.89-2,3.78-4,5.7-5.92,13.91-14.26,30.62-27.85,49-20.47a3.26,3.26,0,1,1-2.42,6.05c-14.85-5.93-29.55,6.26-41.95,19-1.91,1.95-3.79,3.92-5.66,5.87-16.4,17.13-33.36,34.84-60.23,36.06Z"/><path fill="#6a3b35" d="M1497.87,809.48a3.26,3.26,0,0,1-.38-6.5c6.06-.71,10.28-3.1,14.56-8.25a3.26,3.26,0,1,1,5,4.17c-5.4,6.48-11,9.64-18.8,10.56Z"/><path fill="#6a3b35" d="M1647.79,809.4a3.24,3.24,0,0,1-2.61-1.31c-7.52-10-8.36-23.42-9.19-36.38-1.09-17.22-2-32.09-16.79-38.41a3.26,3.26,0,1,1,2.57-6c18.43,7.9,19.6,26.25,20.73,44,.76,12,1.55,24.42,7.89,32.88a3.26,3.26,0,0,1-2.6,5.22Z"/><path fill="#6a3b35" d="M1413,1116.29a3.23,3.23,0,0,1-2.58-1.25c-9-11.49-17.59-48.43-25.64-109.81l-.46-3.46c-.4-3-.86-6.07-1.33-9.3-5.14-35.12-12.17-83.23,20-106.93,11.52-8.48,26-11.11,39.94-13.07a3.21,3.21,0,0,1,3.68,2.76,3.26,3.26,0,0,1-2.77,3.69c-13.61,1.92-26.67,4.28-37,11.87-29,21.38-22.3,67.24-17.41,100.74.47,3.25.93,6.38,1.34,9.36l.46,3.49c9.84,75,18.66,99.39,24.32,106.65a3.25,3.25,0,0,1-.56,4.57A3.22,3.22,0,0,1,1413,1116.29Z"/><path fill="#6a3b35" d="M1488.1,1060.38a3.25,3.25,0,0,1-2.92-1.81c-7.54-15.08-10.7-32.31-13-48.68a3.27,3.27,0,0,1,2.78-3.68,3.24,3.24,0,0,1,3.68,2.78c2.21,15.82,5.24,32.42,12.36,46.67a3.24,3.24,0,0,1-1.46,4.37A3.13,3.13,0,0,1,1488.1,1060.38Z"/><path fill="#6a3b35" d="M1665.47,1121.43a3.27,3.27,0,0,1-.54,0c-56.42-9.41-105.41-23.78-149.76-43.94-4.6-2.09-9.59-3.85-14.88-5.71-8.87-3.13-18-6.36-25.58-11.38a3.26,3.26,0,0,1,3.62-5.43c6.85,4.57,15.63,7.67,24.13,10.66,5.18,1.83,10.55,3.72,15.41,5.93,43.82,19.92,92.28,34.13,148.13,43.43a3.26,3.26,0,0,1-.53,6.48Z"/><path fill="#6a3b35" d="M1616.62,1183.74a15.29,15.29,0,0,1-4.89-1.26,19.73,19.73,0,0,0-2.27-.75,94.88,94.88,0,0,0-11-1.43l-1.66-.15c-9.71-.88-19.67-3.43-29.3-5.9-4.71-1.21-9.38-2.4-13.94-3.38l-8.45-1.79c-42.32-8.95-100.28-21.21-133.8-52.56a3.26,3.26,0,1,1,4.45-4.76c32.19,30.11,89.13,42.15,130.7,50.94l8.47,1.8c4.64,1,9.39,2.21,14.19,3.44,9.38,2.4,19.08,4.88,28.27,5.72l1.65.15a100.37,100.37,0,0,1,11.71,1.53c.22,0,.46.1.71.17a16.22,16.22,0,0,1-1.89-6.54c-1.36-21.83,30.67-47.07,52.93-53.43a3.26,3.26,0,0,1,1.8,6.26c-21.94,6.27-49.26,30.07-48.22,46.77a12.44,12.44,0,0,0,2.08,5.6,25.54,25.54,0,0,1,2.1,4.42,3.83,3.83,0,0,1-.88,4.06A3.74,3.74,0,0,1,1616.62,1183.74Z"/><path fill="#6a3b35" d="M1635.9,1174.63a3.27,3.27,0,0,1-1.44-.34,89.28,89.28,0,0,0-21.63-7.47,3.26,3.26,0,0,1,1.44-6.36,96.68,96.68,0,0,1,23.08,8,3.26,3.26,0,0,1-1.45,6.19Z"/><path fill="#6a3b35" d="M1804.89,1193.19c-3.15,0-6.49-2.38-8.84-4-.42-.3-.76-.55-1-.7a99.24,99.24,0,0,1-23.79-19.52c-3-3.37-5.65-7-8.26-10.42-4.75-6.31-9.23-12.26-15.06-17a3.26,3.26,0,0,1,4.13-5c6.43,5.27,11.37,11.82,16.14,18.16,2.54,3.37,5.17,6.86,8,10.05a93.42,93.42,0,0,0,22.26,18.24c.34.2.83.54,1.41,1a31.08,31.08,0,0,0,4,2.53c-.33-3.51-5.4-9.07-8.55-12.52a50.88,50.88,0,0,1-4.65-5.54c-1.7-2.56-3.4-5.18-5.12-7.82-13.53-20.86-27.51-42.43-50.63-51.27-7.67-2.92-13.43-.67-21.41,2.47l-1.7.67c-10.28,4-31.63,10.65-46.08,10a3.26,3.26,0,0,1-3.13-3.39,3.31,3.31,0,0,1,3.39-3.12c11.82.49,30.73-4.65,43.45-9.61l1.69-.66c8.28-3.25,16.1-6.33,26.12-2.49,25.1,9.6,40.33,33.09,53.77,53.81,1.71,2.63,3.39,5.23,5.08,7.77a49.53,49.53,0,0,0,4,4.74c5.15,5.65,11.56,12.68,10.06,19.27a5.44,5.44,0,0,1-3.34,4.13A5.57,5.57,0,0,1,1804.89,1193.19Z"/><path fill="#6a3b35" d="M1741.4,1185.09a3.26,3.26,0,0,1-.84-6.41c4.71-1.27,12.6-3.4,16.54-6.29,1.76-1.28,2.14-5.07,1.28-7.36-3.2-8.48-10.59-18-19.78-25.57a3.26,3.26,0,0,1,4.14-5c10.17,8.35,18.1,18.67,21.74,28.32,1.79,4.76,1,11.64-3.53,14.92-4.93,3.6-13.21,5.83-18.7,7.31A3.12,3.12,0,0,1,1741.4,1185.09Z"/><path fill="#6a3b35" d="M1728.19,1191.26a3.26,3.26,0,0,1-.43-6.49l2-.25c2.65-.31,4.4-.51,6.61-1.71.36-.56.17-3.56-.65-5.48-2.71-6.37-7-12.4-11.07-18.23-2.15-3-4.29-6.07-6.23-9.15a3.26,3.26,0,1,1,5.52-3.47c1.88,3,3.95,5.91,6,8.86,4.32,6.11,8.77,12.43,11.75,19.44,1.12,2.65,3.12,10.86-2.25,13.76a22.26,22.26,0,0,1-9,2.46l-1.86.23Z"/><path fill="#6a3b35" d="M1708.34,1195.35a20.28,20.28,0,0,1-7.83-1.56,3.26,3.26,0,1,1,2.59-6c2.88,1.24,7.64,1.49,9.88-.15.69-.51,1.45-1.36,1.24-3.54-.51-5.13-5.39-11.29-9.7-16.73a78.46,78.46,0,0,1-6.59-9.13,3.26,3.26,0,1,1,5.67-3.22,73.47,73.47,0,0,0,6,8.3c4.87,6.14,10.38,13.1,11.08,20.14a10,10,0,0,1-3.89,9.44A14.35,14.35,0,0,1,1708.34,1195.35Z"/><path fill="#6a3b35" d="M1693.19,1193.31a3.27,3.27,0,0,1-1-.16c-3.47-1.14-6.14-3.4-8.71-5.59-2.36-2-4.59-3.89-7-4.38-3.73-.78-7.71-.48-11.93-.17-7.36.54-15,1.1-21.93-4a3.26,3.26,0,1,1,3.89-5.23c5,3.71,10.82,3.27,17.56,2.78,4.49-.33,9.12-.68,13.74.28,4,.84,7,3.36,9.85,5.8,2.19,1.86,4.26,3.62,6.52,4.36a3.26,3.26,0,0,1-1,6.36Z"/><path fill="#6a3b35" d="M1700.44,1094.74h-.23a3.26,3.26,0,0,1-3-3.47c1-14.34,1-30,1.07-45.09.06-22.53.14-45.83,3.23-65.83a3.26,3.26,0,1,1,6.44,1c-3,19.52-3.09,42.57-3.15,64.86-.06,15.22-.1,31-1.09,45.51A3.26,3.26,0,0,1,1700.44,1094.74Z"/><path fill="#6a3b35" d="M1572.83,940.23c-2.78,0-5-2.18-6.12-3.26-.27-.27-.51-.51-.72-.68-2.55-1.95-5.3-3.79-8-5.57-2.85-1.9-5.8-3.87-8.6-6-13.07-10.11-28-22.07-39.14-36.21a3.26,3.26,0,1,1,5.11-4c10.73,13.56,25.25,25.22,38,35.09,2.61,2,5.47,3.92,8.23,5.77s5.61,3.74,8.32,5.81a17.65,17.65,0,0,1,1.32,1.19,13.52,13.52,0,0,0,1.45,1.29c2-1.41,3.29-4.91,4.48-8a40.91,40.91,0,0,1,2-4.81c1.13-2.12,2.26-4.18,3.37-6.21,4.51-8.22,8.76-16,11.51-25.24a3.26,3.26,0,1,1,6.25,1.86c-3,9.92-7.37,18-12.05,26.51-1.09,2-2.21,4.05-3.33,6.14a39.51,39.51,0,0,0-1.71,4.07c-1.62,4.26-3.47,9.09-7.54,11.5A5.69,5.69,0,0,1,1572.83,940.23Z"/><path fill="#6a3b35" d="M1530.61,966.15a4.72,4.72,0,0,1-1.33-.2c-3-.94-2.46-4.15-2.21-5.53l0-.32a32.76,32.76,0,0,0-1-5.23c-1-4-1-4-2.92-6.47-.53-.7-1.19-1.56-2-2.68-1.33-1.83-2.88-3.8-4.54-5.88a3.26,3.26,0,1,1,5.09-4.08c1.74,2.17,3.34,4.22,4.73,6.13.77,1.07,1.39,1.89,1.9,2.56,2.39,3.13,2.81,3.9,4.06,8.81q.16.63.3,1.23l.71-.77c.81-.87,1.63-1.74,2.39-2.66a57.42,57.42,0,0,0,4-5.82c4.06-6.47,9.1-14.5,18.63-14.5h.38a3.26,3.26,0,0,1-.07,6.52h-.3c-5.52,0-8.79,4.55-13.12,11.45a64.19,64.19,0,0,1-4.44,6.48c-.85,1-1.75,2-2.67,3s-1.74,1.87-2.54,2.87a6,6,0,0,0-.44.94C1534.79,963.08,1533.47,966.15,1530.61,966.15Z"/><path fill="#6a3b35" d="M1609.41,957.33c-3.41,0-5.05-3.38-6-5.27a11.26,11.26,0,0,0-1.06-1.91c-.69-.77-1.4-1.61-2.14-2.49-5.06-6-9-10.17-14.09-8.6a3.26,3.26,0,1,1-1.93-6.23c9.58-3,16.18,4.89,21,10.63l1.33,1.57a38.86,38.86,0,0,1,1.08-5.22l1.4-5.14c4.49-16.25,8.73-31.61,4-48.22a3.26,3.26,0,0,1,6.27-1.77c5.18,18.37.71,34.57-4,51.73l-1.4,5.1a27.07,27.07,0,0,0-1.08,9c0,.06.1.27.17.48a5.12,5.12,0,0,1,0,4.45,4.35,4.35,0,0,1-2.6,1.77A5.89,5.89,0,0,1,1609.41,957.33Z"/><path fill="#6a3b35" d="M1585,1101.77a3.26,3.26,0,0,1-3.25-3.12c-.42-9.6-.72-23.94-1-39.12-.61-29.43-1.3-62.79-3.1-80.65-.54-5.27-1.57-10.62-2.57-15.79a162.14,162.14,0,0,1-2.84-18.46,3.26,3.26,0,1,1,6.5-.5,160.3,160.3,0,0,0,2.74,17.72c1,5.31,2.09,10.81,2.65,16.38,1.84,18.12,2.53,51.61,3.14,81.16.32,15.15.61,29.45,1,39a3.25,3.25,0,0,1-3.12,3.39Z"/><path fill="#6a3b35" d="M1614.34,881.34a3.26,3.26,0,0,1-.85-6.41l.71-.19a58.47,58.47,0,0,0,10.2-3.45c15.13-7.31,23.06-30.24,25.77-39.75,7.17-25.12,8.54-52,4.32-84.66-2.47-19.17-5.43-31.65-14.75-46.68-13-20.94-27.84-33.55-44.13-37.49a3.26,3.26,0,1,1,1.52-6.34c18,4.36,34.23,18,48.15,40.4,10,16,13.09,29.18,15.68,49.27,4.33,33.55,2.9,61.28-4.51,87.29-3.67,12.86-12.34,35.67-29.21,43.83a64.28,64.28,0,0,1-11.33,3.87l-.71.19A3.19,3.19,0,0,1,1614.34,881.34Z"/><path fill="#6a3b35" d="M1476.87,916.78a3.23,3.23,0,0,1-2.17-.83c-2-1.79-4.1-3.6-6.23-5.43-10-8.66-20.4-17.61-25.28-28.28-8.6-18.88-2.45-41.47,3-61.4,1.37-5,2.67-9.79,3.68-14.3,2.93-13,4.08-27.14,5.3-42.07,3.15-38.75,6.41-78.81,41.67-103.34,19.12-13.29,40.22-10.88,60.64-8.54a207.68,207.68,0,0,0,23.2,1.79,3.26,3.26,0,0,1,0,6.52,212.68,212.68,0,0,1-23.94-1.83c-20.1-2.31-39.08-4.47-56.17,7.42-32.74,22.76-35.87,61.27-38.9,98.51-1.24,15.17-2.41,29.5-5.44,43-1,4.66-2.36,9.48-3.75,14.59-5.14,18.86-11,40.24-3.33,57,4.28,9.38,14.1,17.86,23.61,26.05,2.15,1.86,4.28,3.7,6.31,5.51a3.27,3.27,0,0,1,.25,4.61A3.23,3.23,0,0,1,1476.87,916.78Z"/><path fill="#6a3b35" d="M1503.34,918.8a3.3,3.3,0,0,1-1.88-.6,3.26,3.26,0,0,1-.77-4.55c9.75-13.75,5-28.95.06-45a157.53,157.53,0,0,1-5.28-20.21,3.26,3.26,0,1,1,6.43-1.07,151.5,151.5,0,0,0,5.08,19.34c5.23,16.9,10.65,34.36-1,50.74A3.23,3.23,0,0,1,1503.34,918.8Z"/><path fill="#6a3b35" d="M1493.36,934.65c-6.76,0-14-2.29-18.11-5.91-3.07-2.73-5.11-9.49-3-13.8,1.36-2.85,4.22-4.19,7.71-3.64a18.55,18.55,0,0,1,6.65,2.89,11.46,11.46,0,0,0,4.45,2c1.82.23,3.64-.87,5.38-1.89,2-1.17,4.21-2.49,6.74-1.78a6,6,0,0,1,3.66,3.15h0c4.91,9.05.53,13.92-1.58,15.6C1502.24,933.61,1497.92,934.65,1493.36,934.65Zm-15-17a1,1,0,0,0-.28,0c-.65.83.15,4.93,1.52,6.15,5.07,4.5,17.17,5.77,21.58,2.28.66-.53,2.65-2.11,0-7.09-.46.24-1.06.58-1.51.85-2.29,1.34-5.42,3.14-9.37,2.76a16.93,16.93,0,0,1-7.17-2.92,12.61,12.61,0,0,0-4.32-2A2.54,2.54,0,0,0,1478.34,917.69Z"/><path fill="#6a3b35" d="M1507.87,1024.5a3.26,3.26,0,0,1-2.86-4.81c11.71-21.63,20.77-41.43,13-64.67-2.48-7.43-7.51-16.76-12-25l-1.08-2a3.26,3.26,0,0,1,5.74-3.09l1.08,2c4.56,8.46,9.74,18,12.4,26,8.56,25.69-1.49,47.7-13.48,69.84A3.26,3.26,0,0,1,1507.87,1024.5Z"/><path fill="#6a3b35" d="M1491.67,1031.37a3.24,3.24,0,0,1-2-.71c-20-16-32.59-47.56-28.16-70.42a82.31,82.31,0,0,1,4.76-14.58c3-7.6,5.87-14.77,4.55-22a3.26,3.26,0,0,1,6.42-1.16c1.65,9.08-1.69,17.47-4.91,25.59a75.85,75.85,0,0,0-4.42,13.41c-4,20.37,7.88,49.73,25.83,64.08a3.26,3.26,0,0,1-2,5.81Z"/><path fill="#6a3b35" d="M1504.44,1033.33a3.26,3.26,0,0,1-2.68-1.39c-3-4.35-5.15-7.15-6.65-9.14-4-5.36-4.25-5.84-5.67-12.68-.44-2.09-1-4.87-1.92-8.75a3.26,3.26,0,1,1,6.34-1.49c.93,4,1.52,6.78,2,8.91,1.19,5.68,1.19,5.68,4.5,10.09,1.53,2,3.68,4.89,6.78,9.32a3.26,3.26,0,0,1-2.66,5.13Z"/><path fill="#6a3b35" d="M1581.92,868.47c-8.73,0-16-2.8-21.79-8.38a3.26,3.26,0,1,1,4.53-4.68c6.14,6,14.38,7.82,25.18,5.73a3.26,3.26,0,1,1,1.24,6.4A48.33,48.33,0,0,1,1581.92,868.47Z"/><path fill="#6a3b35" d="M1614.81,725.43a3.26,3.26,0,0,1-3.22-2.76c-2.21-14.11-7.2-29.1-14.84-44.55a3.26,3.26,0,0,1,5.85-2.88c7.92,16,13.12,31.66,15.43,46.42a3.26,3.26,0,0,1-2.71,3.73A2.92,2.92,0,0,1,1614.81,725.43Z"/><path fill="#6a3b35" d="M816.09,1133.51h-.23a3.26,3.26,0,0,1-3-3.47c.55-8,.86-13.88.95-18.14a3.24,3.24,0,0,1,3.25-3.19h.07a3.27,3.27,0,0,1,3.2,3.32c-.09,4.37-.41,10.41-1,18.46A3.26,3.26,0,0,1,816.09,1133.51Z"/><path fill="#6a3b35" d="M811.55,1211.89a53.29,53.29,0,0,1-7.42-1c-1.42-.23-2.64-.45-3.16-.48-7.05-.13-14.18-.55-21.06-1-4.72-.28-9.44-.55-14.19-.74-59-2.37-111.43-11.17-165-27.7-3-.91-6.29-2-9.9-3.18-25-8.17-67-21.85-89.39-9.23-7.59,4.28-12.41,11.14-14.72,21a3.26,3.26,0,1,1-6.34-1.49c2.71-11.55,8.72-20,17.87-25.17,24.93-14,66.86-.34,94.6,8.71,3.58,1.17,6.87,2.25,9.8,3.15,53,16.36,104.91,25.07,163.33,27.41,4.79.2,9.55.48,14.31.75,6.82.4,13.88.81,20.83.94a37.88,37.88,0,0,1,4.08.57c1.34.22,3.74.61,5.29.78.88-3.4-.13-11.47-.65-15.61a58.11,58.11,0,0,1-.7-8.14,3.22,3.22,0,0,1,3.38-3.13,3.26,3.26,0,0,1,3.13,3.39,59.66,59.66,0,0,0,.66,7.07c1.22,9.8,1.92,17.61-1.18,21.58A4,4,0,0,1,811.55,1211.89Z"/><path fill="#6a3b35" d="M476.32,1198.12a3.25,3.25,0,0,1-2.44-1.11c-53.7-60.88-141.18-34.84-166.72-25.41-19.41,7.17-38.78,13.51-62.49,12.57L241,1184c-6.16-.27-12-.51-18.1-.27-.73,0-1.79.21-2.91.38-4.19.65-7.22,1.12-8.71-1.42a3.79,3.79,0,0,1,.46-4.39c3-3.85,9.15-6.25,15.1-8.58a54.28,54.28,0,0,0,8.61-3.89c11.26-7.39,30.29-20.57,47.09-32.21,9.91-6.87,19.13-13.26,25.69-17.72a3.26,3.26,0,0,1,3.67,5.39c-6.55,4.45-15.75,10.83-25.65,17.69-16.83,11.65-35.9,24.87-47.23,32.3a57.51,57.51,0,0,1-9.81,4.51c-1.11.43-2.25.88-3.37,1.34,5.22-.08,10.2.13,15.44.35l3.64.16c22.46.89,41.21-5.25,60-12.18,70.77-26.15,135.77-16,173.85,27.22a3.26,3.26,0,0,1-2.44,5.42Z"/><path fill="#6a3b35" d="M480.65,1184.31a3.26,3.26,0,0,1-3-4.59c6-13.49,15.67-25.47,25-37,2.28-2.82,4.53-5.61,6.67-8.36a3.26,3.26,0,0,1,5.14,4c-2.16,2.77-4.44,5.58-6.74,8.44-9.09,11.25-18.5,22.89-24.14,35.6A3.25,3.25,0,0,1,480.65,1184.31Z"/><path fill="#6a3b35" d="M737,1220.34c-36.74,0-82.48-7.18-122.13-13.4-20.21-3.18-39.31-6.18-53.44-7.54-5.44-.52-11.12-1.4-17.14-2.33-18-2.8-38.37-6-53.65,1.32a3.26,3.26,0,1,1-2.8-5.89c17.1-8.14,38.54-4.81,57.45-1.88,5.92.92,11.52,1.79,16.76,2.3,14.33,1.38,32.64,4.25,53.83,7.58,58.77,9.22,139.25,21.85,170.46,5a3.26,3.26,0,1,1,3.1,5.73C777.1,1217.84,758.59,1220.34,737,1220.34Z"/><path fill="#6a3b35" d="M461,1201.21a2.73,2.73,0,0,1-.41,0c-39.5-5-79.85-6.75-118.87-8.49-24-1.06-48.8-2.17-73.21-4a3.25,3.25,0,0,1-3-3.49,3.29,3.29,0,0,1,3.5-3c24.31,1.82,49.07,2.92,73,4,39.15,1.74,79.63,3.54,119.39,8.54a3.26,3.26,0,0,1-.4,6.49Z"/><path fill="#6a3b35" d="M2017.21,1205.45a50.21,50.21,0,0,1-16.09-2.19c-6.67-2.32-29.58-17.33-51.72-31.85-15.07-9.87-29.29-19.2-35.75-22.75a3.26,3.26,0,0,1,3.14-5.72c6.68,3.68,21,13.07,36.18,23,19.77,13,44.38,29.09,50.29,31.13,10.58,3.68,28.07,1.12,43.5-1.12,7.68-1.12,14.94-2.18,20.67-2.35,40.27-1.18,77.29-6.44,124-14.54l6-1.06c32.48-5.72,63.16-11.13,94.58,3.84a3.26,3.26,0,1,1-2.8,5.88c-29.54-14.06-59.23-8.83-90.65-3.3l-6,1.07c-47,8.15-84.23,13.43-124.88,14.63a196,196,0,0,0-19.94,2.28C2037.69,1203.88,2026.87,1205.45,2017.21,1205.45Z"/><path fill="#6a3b35" d="M2291.3,1170.76a3.27,3.27,0,0,1-2.27-.91c-25.41-24.46-63.83-57.33-103.88-60.43-20.31-1.58-41.67,1.62-62.33,4.71-12.85,1.91-26.15,3.9-39,4.71a3.17,3.17,0,0,1-3.46-3,3.26,3.26,0,0,1,3.05-3.46c12.6-.79,25.76-2.75,38.48-4.65,21-3.14,42.74-6.39,63.79-4.76,42.14,3.26,81.77,37.08,107.91,62.23a3.26,3.26,0,0,1-2.26,5.61Z"/><path fill="#6a3b35" d="M2448.15,1204.73c-20.38,0-40.59-7-60.39-13.91-27.9-9.71-56.75-19.75-85.34-9.59a3.26,3.26,0,0,1-2.18-6.15c30.76-10.91,60.7-.5,89.66,9.58,32,11.14,62.25,21.66,92.77,4.74a3.26,3.26,0,0,1,3.16,5.71A76,76,0,0,1,2448.15,1204.73Z"/><path fill="#6a3b35" d="M2481.28,1182.36a3.33,3.33,0,0,1-1.4-.32l-1.52-.73c-11.53-5.48-23.46-11.16-34.42-18.09a33.71,33.71,0,0,1-4.64-3.91c-2.14-2-4.8-4.53-6.64-4.9-3.71-.76-7.69-.4-11.9,0-5.09.44-10.33.9-15.73-.49-9.05-2.35-17.81-4.84-26.27-7.24-39-11.1-72.75-20.69-115.23-11.34a3.26,3.26,0,1,1-1.4-6.36c44.09-9.71,80.19.56,118.41,11.42,8.43,2.4,17.15,4.88,26.12,7.21,4.33,1.11,8.8.72,13.53.3,4.49-.39,9.13-.8,13.76.14,3.67.74,6.94,3.82,9.82,6.55a30,30,0,0,0,3.66,3.14c10.62,6.72,22.37,12.31,33.73,17.71l1.52.74a3.26,3.26,0,0,1-1.4,6.2Z"/><path fill="#6a3b35" d="M2100.19,1207.31a3.26,3.26,0,0,1-.35-6.5c23.73-2.62,48-4,71.41-5.39,31.71-1.83,64.49-3.73,96.26-8.67a3.26,3.26,0,0,1,1,6.45c-32.08,5-65,6.89-96.88,8.74-23.36,1.35-47.52,2.75-71.08,5.35A2.17,2.17,0,0,1,2100.19,1207.31Z"/><path fill="#6a3b35" d="M2406.83,1204.8a4.21,4.21,0,0,1-.5,0c-23.56-3.63-47.79-6.2-71.22-8.68-8.26-.88-16.52-1.75-24.77-2.67a3.25,3.25,0,0,1-2.87-3.6,3.29,3.29,0,0,1,3.6-2.88c8.23.92,16.48,1.79,24.73,2.67,23.5,2.48,47.81,5.06,71.52,8.72a3.26,3.26,0,0,1-.49,6.48Z"/><path fill="#6a3b35" d="M1287.32,1237.12a187.94,187.94,0,0,1-75.89-16c-9.6-4.32-18.9-9.75-27.89-15-12.87-7.5-26.18-15.27-40.26-19.66-52.55-16.41-98.59-14.14-140.77,6.91a3.26,3.26,0,0,1-2.91-5.84c43.76-21.83,91.39-24.23,145.62-7.3,14.78,4.62,28.42,12.57,41.6,20.26,8.85,5.16,18,10.49,27.29,14.68,32.59,14.66,72,19.25,105.4,12.24a3.26,3.26,0,1,1,1.33,6.39A164.27,164.27,0,0,1,1287.32,1237.12Z"/><path fill="#6a3b35" d="M1003.25,1186.58a3.26,3.26,0,0,1-1.83-6c29-19.58,71.91-41.83,106.36-59.7l13.55-7a3.26,3.26,0,0,1,3,5.78l-13.56,7c-34.3,17.79-77,39.94-105.71,59.32A3.23,3.23,0,0,1,1003.25,1186.58Z"/><path fill="#6a3b35" d="M1321.67,1228.46a3.25,3.25,0,0,1-3.1-2.25c-5-15.59,11.11-42.58,20.77-58.72l2-3.43c2.73-4.61,5.23-9.22,7.73-13.83,2.12-3.9,4.24-7.79,6.49-11.69a13.82,13.82,0,0,1,1.24-1.65c.23-.27.57-.69.92-1.14-4.94-.81-13.87-.35-19.55,0-2.94.15-5.4.27-6.8.24l-6.87-.15c-5.41-.12-10.81-.23-16.22-.44l-27.35-1.63a3.27,3.27,0,0,1-3.06-3.45,3.22,3.22,0,0,1,3.45-3.06l27.28,1.63c5.3.2,10.67.32,16,.43l6.89.15c1.32,0,3.58-.09,6.3-.23,10.57-.56,19.71-.86,24.52,1.06a4.45,4.45,0,0,1,2.76,3c.73,2.88-1.5,5.57-3.29,7.73-.27.34-.52.62-.65.82-2.18,3.79-4.27,7.64-6.36,11.48-2.55,4.68-5.09,9.36-7.86,14l-2.06,3.46c-7.89,13.18-24.3,40.59-20.16,53.35a3.26,3.26,0,0,1-3.1,4.27Zm-13.34-93.1h0Z"/><path fill="#6a3b35" d="M987.18,1193.44A3.25,3.25,0,0,1,984,1191c-6.54-26.85-38.45-32.33-51.87-33.45-19.91-1.65-40,2.47-59.43,6.46-8.1,1.67-16.48,3.39-24.75,4.68-18.22,2.8-55.32-7.09-66.19-17.68a3.26,3.26,0,1,1,4.55-4.67c9.43,9.19,44.56,18.43,60.63,15.9,8.13-1.26,16.43-3,24.45-4.61,19.88-4.09,40.44-8.32,61.28-6.58,14.82,1.24,50.12,7.44,57.66,38.4a3.26,3.26,0,0,1-2.39,3.94A3.46,3.46,0,0,1,987.18,1193.44Z"/><path fill="#6a3b35" d="M782.82,1150.75a3.26,3.26,0,0,1-.66-6.45c18.46-3.88,34.91-13.38,50.82-22.58,9.85-5.7,20-11.59,30.68-16.14,3.11-1.33,7.22.31,13.15,3a36.33,36.33,0,0,0,4.18,1.7c10.18,2.23,22.71,1.69,33.76,1.23,2.13-.09,4.22-.18,6.24-.25,14.31-.47,28.62-4.32,42.46-8,18.64-5,37.91-10.21,58.15-7.66a99.66,99.66,0,0,1,40.75,15c1.55,1,3.57,2.53,6.12,4.5,6.42,5,16.12,12.46,23.56,14.09a3.26,3.26,0,1,1-1.39,6.37c-8.88-1.94-18.87-9.66-26.16-15.3-2.32-1.79-4.32-3.34-5.6-4.14a93.23,93.23,0,0,0-38.09-14c-19-2.38-36.78,2.41-55.64,7.49-14.2,3.82-28.89,7.77-43.94,8.27-2,.06-4.07.15-6.18.24-11.46.49-24.43,1-35.44-1.38a33.1,33.1,0,0,1-5.43-2.1c-2.21-1-6.85-3-8.14-2.85-10.07,4.33-20.09,10.12-29.78,15.72-16.35,9.46-33.26,19.23-52.75,23.32A3.05,3.05,0,0,1,782.82,1150.75Z"/><path fill="#6a3b35" d="M1215.51,1224.54a3.55,3.55,0,0,1-.64-.06c-29.82-5.91-82.67-12.91-121.26-18-7.78-1-14.92-2-21.09-2.81-5.43-.73-11-1.67-16.53-2.61-16.78-2.84-34.13-5.78-50.54-3.36a3.26,3.26,0,1,1-1-6.45c17.43-2.55,35.3.46,52.58,3.38,5.51.93,11,1.86,16.32,2.58l21.06,2.81c38.68,5.12,91.65,12.14,121.68,18.09a3.26,3.26,0,0,1-.63,6.45Z"/><path fill="#6a3b35" d="M994.6,1200.92l-.48,0c-56.75-8.26-161-15.91-203.16-18.81a3.26,3.26,0,0,1-3-3.48,3.33,3.33,0,0,1,3.47-3c42.26,2.91,146.68,10.57,203.66,18.87a3.26,3.26,0,0,1-.46,6.48Z"/><path fill="#6a3b35" d="M1606.35,1242.85c-10,0-21.69-4.28-31.39-7.84-3.15-1.16-6.06-2.23-8.57-3-66.08-20.68-113.32-38.36-136.61-51.13a3.26,3.26,0,0,1,3.13-5.71c22.92,12.56,69.75,30.06,135.42,50.62,2.61.81,5.62,1.92,8.88,3.11,10.8,4,24.25,8.88,33.44,7,9.86-2,19.25-8.47,28.33-14.76,7-4.86,14.28-9.89,21.83-12.89,20.43-8.08,72.55-18.63,103.3.38a3.26,3.26,0,0,1-3.43,5.54c-28.36-17.52-78.81-7.24-97.46.15-6.86,2.71-13.51,7.31-20.53,12.18-9.63,6.67-19.58,13.56-30.76,15.8A29,29,0,0,1,1606.35,1242.85Z"/><path fill="#6a3b35" d="M1433.67,1180.59c-.67,0-1.28,0-1.81-.07a3.25,3.25,0,0,1-3-3.52,3.28,3.28,0,0,1,3.53-3c9.22.73,47.2-7.52,69.88-12.49,7.74-1.7,14-3.06,17.23-3.67a3.26,3.26,0,1,1,1.19,6.41c-3.22.6-9.38,2-17,3.63C1474.3,1174.36,1444.86,1180.59,1433.67,1180.59Z"/><path fill="#6a3b35" d="M1766,1210.71a3.17,3.17,0,0,1-1.16-.21l-4.34-1.65c-7.9-3-7.9-3-13.51-5.5-3.53-1.57-9.32-4.14-20.86-9.13a3.26,3.26,0,1,1,2.59-6c11.57,5,17.38,7.59,20.92,9.16,5.44,2.42,5.44,2.42,13.18,5.36l4.35,1.66a3.26,3.26,0,0,1-1.17,6.3Z"/><path fill="#6a3b35" d="M1782.72,1212.43a3.26,3.26,0,0,1-1.9-5.91c21-15,47.55-13.49,73.27-12,13.54.81,26.34,1.56,38.16,0,12.27-1.63,26.33-6.26,38.74-10.35l.79-.26c.63-.21,5.25-2,9.68-3.83-2.26-.63-4.56-1.3-6.82-2.1-2.42-.84-17.49-6.67-28.5-10.92l-9.49-3.66c-19.21-7.24-80.87-26.62-101.17-31.45a3.26,3.26,0,1,1,1.51-6.34c20.48,4.87,82.61,24.4,102,31.69.84.32,4.64,1.78,9.53,3.68,10.36,4,26,10,28.32,10.85,2.63.93,5.29,1.66,8.1,2.44l3.13.89c.73.22,2.22.66,3.46,1,3.16-1.18,3.45-1.05,4.32-.66a3.27,3.27,0,0,1,1.69,1.76,4.05,4.05,0,0,1-.66,4.31c-1.14,1.24-2.67,1.55-4.71,1.32l-5.11,2c-7.41,3-12.33,4.93-13.2,5.22l-.79.26c-12.68,4.18-27,8.91-39.92,10.62-12.43,1.65-26.15.85-39.41.06-24.56-1.45-50-2.94-69.08,10.76A3.28,3.28,0,0,1,1782.72,1212.43Z"/><path fill="#6a3b35" d="M1619.88,1241.29a3.26,3.26,0,0,1-.59-6.47c37.66-7.1,96.49-14.92,135.43-20.09l5.67-.75a3.26,3.26,0,0,1,.86,6.46l-5.67.75c-38.87,5.16-97.6,13-135.09,20A3.15,3.15,0,0,1,1619.88,1241.29Z"/><path fill="#6a3b35" d="M1772,1223.43c-1.92,0-4.83-.25-10-.7l-.54,0a3.27,3.27,0,0,1-3-3.53,3.33,3.33,0,0,1,3.53-3l.54,0c10.06.87,10,.88,11.61.15,3.66-1.7,12.24-5.68,66.6-12.36,12.71-1.56,25.66-2.08,38.18-2.58,8.34-.33,17-.68,25.38-1.33a3.3,3.3,0,0,1,3.5,3,3.25,3.25,0,0,1-3,3.5c-8.54.66-17.22,1-25.62,1.34-12.39.5-25.21,1-37.65,2.54-53.34,6.56-61.55,10.37-64.65,11.8A9.45,9.45,0,0,1,1772,1223.43Z"/><path fill="#6a3b35" d="M2499.85,1113.71h0l-111.08-.43a3.26,3.26,0,0,1,0-6.52h0l111.08.43a3.26,3.26,0,0,1,0,6.52Z"/><path fill="#6a3b35" d="M1917.41,1111.4h0l-88.89-.93a3.25,3.25,0,0,1-3.22-3.29,3.35,3.35,0,0,1,3.29-3.23l88.89.93a3.26,3.26,0,0,1,0,6.52Z"/><path fill="#6a3b35" d="M1399,1106h0l-38.07-.4a3.26,3.26,0,0,1,0-6.52h0l38.07.4a3.26,3.26,0,0,1,0,6.52Z"/><path fill="#6a3b35" d="M295.05,1094.5h0l-65.21-.69a3.26,3.26,0,0,1,.06-6.52l65.21.69a3.26,3.26,0,0,1,0,6.52Z"/><path fill="#6a3b35" d="M2322.67,1129.71a3.26,3.26,0,0,1-.67-6.45l3.13-.65c15.32-3.18,41-8.51,49.15-25.08a3.26,3.26,0,1,1,5.85,2.89c-9.59,19.41-37.19,25.15-53.68,28.57l-3.1.65A3.14,3.14,0,0,1,2322.67,1129.71Z"/><path fill="#f3877d" fill-rule="evenodd" d="M910,588.25a18.13,18.13,0,0,1-6.56,8.35,11.63,11.63,0,0,1-8.37,1.95,12.52,12.52,0,0,1-7.45-4.32,18.14,18.14,0,0,1-4-9.83,280.82,280.82,0,0,0,5.27-30.21q1.77-15.15,2.28-30.62l-81.27-29.35a8.22,8.22,0,0,1-1.32-.67,7.37,7.37,0,0,0-1.32-.66Q790,516.06,773.56,541.63q-4.81,5.5-10.2,6a12.87,12.87,0,0,1-9.05-2.31,12.47,12.47,0,0,1-4.69-8c-.68-3.5.22-7.33,2.69-11.52a957.3,957.3,0,0,1,56.38-77.71,586.22,586.22,0,0,1,66.22-69.54q4-5.14,11.28-4.18a11.53,11.53,0,0,1,10.71,6.75c.2.07.29.16.25.26s.05.19.25.27A155.92,155.92,0,0,1,911.23,426q3.57,23.22,5.09,46.38.76,8.28,1.07,16.38t.45,16.16l16.33,5.69q5.13,4,6.52,8.67a12.38,12.38,0,0,1-.17,8.46,12.62,12.62,0,0,1-5.92,6.15q-4.36,2.39-10.63,1.46L917.55,533q-.66,14-2.45,27.78A255.56,255.56,0,0,1,910,588.25ZM880,409.94q-15,14.26-28.88,29.65t-26.76,31.47l66.9,24.05q-.59-10.65-1.43-21T888,453.22q-1.62-10.68-3.12-21.67A130,130,0,0,0,880,409.94Z"/><path fill="#f3877d" fill-rule="evenodd" d="M1116.94,418.11q-5.3,1-8.59-1.19a9.92,9.92,0,0,1-4.25-5.49,11.51,11.51,0,0,1-.22-4.25l-29.26-101.07a13.44,13.44,0,0,1-4,1.92,8.94,8.94,0,0,1-11.39-6.08q-1.5-5.15,2.83-11.22a61.6,61.6,0,0,1,11.3-11.76,95.67,95.67,0,0,1,15-10,72.16,72.16,0,0,1,13.85-6,51.82,51.82,0,0,1,20.08-2,50.09,50.09,0,0,1,17.12,4.81,41.25,41.25,0,0,1,12.64,9.52,31.56,31.56,0,0,1,6.92,12.07,36.67,36.67,0,0,1,.42,18.52,46.65,46.65,0,0,1-8.59,18.08q13.4,2.46,21.62,9.84a36.47,36.47,0,0,1,11.06,17.21,37,37,0,0,1,1.35,13.43,47.51,47.51,0,0,1-3.08,13.44,48.48,48.48,0,0,1-7,12.28,43.61,43.61,0,0,1-10.6,9.79,84,84,0,0,1-16.62,8.75q-8.77,3.42-17.66,6l-6.43,1.86Q1120.27,417.4,1116.94,418.11Zm34.23-73.56a39.62,39.62,0,0,0-13.41-2.08,86.82,86.82,0,0,0-13.93,1.37c-2.56,1.08-5.17,2.14-7.83,3.16s-5.32,1.92-8,2.69l13.55,46.79q4.9-1.43,13.2-4.33a81.7,81.7,0,0,0,15.71-7.47,38.92,38.92,0,0,0,12-11.2q4.55-6.63,2-15.53a20.34,20.34,0,0,0-4.68-8.28A18.32,18.32,0,0,0,1151.17,344.55ZM1102,328.87c2.5-.73,5-1.4,7.4-2s4.94-1.22,7.47-1.78a43.43,43.43,0,0,0,7.92-4.2,46.89,46.89,0,0,0,8.6-7.05,31.91,31.91,0,0,0,6.15-9,14.55,14.55,0,0,0,.68-10.34,15.9,15.9,0,0,0-5.15-8.14,22.57,22.57,0,0,0-8.34-4.31,30.9,30.9,0,0,0-10.06-1,44.17,44.17,0,0,0-10.05,1.64,46.57,46.57,0,0,0-15.73,7.85Z"/><path fill="#f3877d" fill-rule="evenodd" d="M1402.25,541.23a11.62,11.62,0,0,1,5.35-5.86,8.19,8.19,0,0,1,6.51-.46,8.52,8.52,0,0,1,5,4.55,14.1,14.1,0,0,1,1.16,4.91,119.23,119.23,0,0,1-2.56,13.85,59,59,0,0,1-4.91,13.12,52.22,52.22,0,0,1-8,11.39,40.21,40.21,0,0,1-12,8.77,49.24,49.24,0,0,1-22,5.28,53.92,53.92,0,0,1-21.38-4.48,60.2,60.2,0,0,1-18.86-13.06,76.24,76.24,0,0,1-14.4-20.48,59.39,59.39,0,0,1-5.47-16.76,99.45,99.45,0,0,1-1.24-20.32,63.42,63.42,0,0,1,3.29-17.44,74.16,74.16,0,0,1,7.83-16.06A133.48,133.48,0,0,1,1332.94,472a94.48,94.48,0,0,1,9.18-9.49,41.19,41.19,0,0,1,9.06-6.18,23.66,23.66,0,0,1,14.63-2.19q7.59,1.26,17.35,8.45a12.64,12.64,0,0,1,2.37,3.32,8.79,8.79,0,0,1,.65,6.91,8.23,8.23,0,0,1-4.34,4.87,10.91,10.91,0,0,1-8.61.23,35.81,35.81,0,0,0-8.77-5.17,7.72,7.72,0,0,0-6.11.25,17.42,17.42,0,0,0-4.68,3.67q-2.48,2.58-6.31,6.45a104.51,104.51,0,0,0-11.07,14.53,59.12,59.12,0,0,0-7.24,16.5,52.77,52.77,0,0,0-1.49,18.31,55.77,55.77,0,0,0,5.85,19.81,51.41,51.41,0,0,0,9.15,13.09,46.83,46.83,0,0,0,12.43,9.35,35,35,0,0,0,14.49,3.87,31.55,31.55,0,0,0,15.49-3.48,23.29,23.29,0,0,0,7.75-6,32.68,32.68,0,0,0,5.07-8.47,53,53,0,0,0,3-9.69A85.42,85.42,0,0,0,1402.25,541.23Z"/><path fill="#f3877d" fill-rule="evenodd" d="M1519.65,393.74a17.91,17.91,0,0,1-6.51-4.5,13.08,13.08,0,0,1-3.05-5.69l-.38-2c-.11-1.07-.21-2.19-.29-3.35a9.2,9.2,0,0,1,.28-3.2l36.78-129.47c-1.9.09-3.44.22-4.64.4a11.45,11.45,0,0,1-4.67-.55,12.62,12.62,0,0,1-7.89-5.67,10.43,10.43,0,0,1-1.19-8.44q1.8-6.34,10.46-8.86a73.94,73.94,0,0,1,19.62-2.69,138.63,138.63,0,0,1,22.47,1.55,151.82,151.82,0,0,1,18.71,3.76q21.06,6,35.52,17.57a85.06,85.06,0,0,1,22.4,26.46,82.51,82.51,0,0,1,9.42,32.12,94.7,94.7,0,0,1-3.34,34.26,97.79,97.79,0,0,1-16,32.08,81.41,81.41,0,0,1-27.55,23.5,73.65,73.65,0,0,1-23.93,8,140.33,140.33,0,0,1-25.51,1.48,199.07,199.07,0,0,1-25.78-2.49Q1531.8,395.95,1519.65,393.74Zm72.7-145.13a88.12,88.12,0,0,0-10-2.21c-3.37-.54-6.78-1-10.21-1.34l-36,126.88q8.61,1.5,18.31,3a150.75,150.75,0,0,0,19.29,1.74,94.1,94.1,0,0,0,18.44-1.31,42.92,42.92,0,0,0,15.69-5.83,72.6,72.6,0,0,0,20.45-18.81,76.17,76.17,0,0,0,12.13-24.6,62.93,62.93,0,0,0,2.13-23.39,57,57,0,0,0-7-22.41,62.78,62.78,0,0,0-16.6-18.89Q1608.21,253.12,1592.35,248.61Z"/><path fill="#f3877d" fill-rule="evenodd" d="M1948.15,517a11,11,0,0,1,7-1,8.3,8.3,0,0,1,4.94,3.05,8.64,8.64,0,0,1,1.64,5.49,11.12,11.12,0,0,1-2.77,6.6,138.79,138.79,0,0,1-14.53,9.34,169,169,0,0,1-33.58,14.31,104.73,104.73,0,0,1-16.94,3.68,11.92,11.92,0,0,1-6.25-2.19,8,8,0,0,1-3-4.14l-.08-.21-34.58-90a8,8,0,0,1-5.2-1.3,8.26,8.26,0,0,1-3.17-4,9,9,0,0,1-.21-5.45,10.8,10.8,0,0,1,3.75-5.56,95.39,95.39,0,0,1,15-9.65q8-4.1,16.24-7.65t16.7-6.76q8.41-3.23,16.46-6.79c3-1.29,5.58-1.52,7.86-.67a9,9,0,0,1,5,4,8.19,8.19,0,0,1,.62,6.23c-.59,2.34-2.25,4.43-5,6.28q-12.08,5.34-26,10.45A167.3,167.3,0,0,0,1866,453.21l13.86,36.1q10.83-3.68,21.4-8.33t21-9.85q4.43-1.94,7.86-.66a8.88,8.88,0,0,1,4.94,4,8.24,8.24,0,0,1,.63,6.23q-.88,3.52-5,6.28-10.87,5.35-22,10.34t-22.38,8.83l12.76,33.23a125.21,125.21,0,0,0,25.89-8.88A140.25,140.25,0,0,0,1948.15,517Z"/><path fill="#6a3b35" d="M1915.66,1148.12a3.26,3.26,0,0,1-1.49-6.16c9.11-4.67,19.06-7,28.7-9.24,4.54-1.06,9.24-2.15,13.7-3.47a3.26,3.26,0,0,1,1.85,6.26c-4.64,1.36-9.43,2.48-14.07,3.56-9.25,2.16-18.82,4.39-27.21,8.69A3.33,3.33,0,0,1,1915.66,1148.12Z"/><path fill="#6a3b35" d="M1774.24,1138.33a3.26,3.26,0,0,1-1.1-6.33c14.28-5.1,23.91-13,28.62-23.63,6.22-13.95,1.65-27.38.09-31.17-6.64-16.22-15.16-30.6-24.18-45.82l-2.16-3.65c-6.33-10.7-12.21-21.94-17.91-32.81-18.09-34.57-36.81-70.3-71.71-91.62a165,165,0,0,0-39-17.26,123.85,123.85,0,0,0-12.25-2.67,112.55,112.55,0,0,1-15.12-3.5,3.26,3.26,0,1,1,2-6.19,105.64,105.64,0,0,0,14.24,3.28c4.23.77,8.61,1.58,12.89,2.81a172.11,172.11,0,0,1,40.63,18c36.44,22.25,55.58,58.8,74.09,94.15,5.65,10.8,11.5,22,17.74,32.52l2.16,3.64c9.14,15.44,17.78,30,24.61,46.68,4.8,11.72,4.74,25.29-.17,36.3-5.47,12.26-16.36,21.39-32.38,27.11A3.22,3.22,0,0,1,1774.24,1138.33Z"/><path fill="#6a3b35" d="M1657.43,1117.51a3.26,3.26,0,0,1-1.09-6.33c12.5-4.45,24.35-11,35.82-17.3,17.16-9.45,34.91-19.22,55.45-22.47a3.26,3.26,0,1,1,1,6.44c-19.41,3.07-35.88,12.14-53.33,21.75-11.69,6.44-23.78,13.09-36.77,17.72A3.27,3.27,0,0,1,1657.43,1117.51Z"/></g></svg>