<svg xmlns="http://www.w3.org/2000/svg" viewBox="0 0 629.68 704.94"><path fill="#eff1db" fill-rule="evenodd" d="M7.52,387C7.52,213.7,146.79,73.21,318.6,73.21S629.68,213.7,629.68,387,490.4,700.79,318.6,700.79,7.52,560.3,7.52,387Z"/><path fill="#feede5" fill-rule="evenodd" d="M204.21,157.78c0-84.29,27.91-122,86.84-122s111.34,121.74,111.34,206-40,147.5-99,147.5S204.21,242.06,204.21,157.78Z"/><path fill="#feede5" fill-rule="evenodd" d="M62.23,541.51c5,9.71,26.44,38.16,35.14,36.15s34.81-34.14,42.51-38.49,23.77-36.15,37.49-31.46,44.18-5.36,59.24,13.72,58.24,51.88,74.64,60.92,68.58,27.56,90.68,28.23,71.16-.89,90.26-4c12.23-2,4.17-22.79,1.83-41.19s9.68-32.59,40.81-37.61,48.74-21.77,49.2.67c.34,16.6,12.36,64.55,14,84s2.41,48.49-4,68.66C590.81,691.32,591,698,578.82,700c-4.8.79-23.19-1.44-39,.62-31.35,4.08-79.3-1.75-101-6.46-25.63-5.56-34.09-7.09-90.78-19.17-16.32-3.48-32-5.85-55-8.29s-19.07-3.45-42.72-1.72c-27.12,2-27,3.1-38.91,3.52-5.13.17-11.12,1.95-25.34,1-28-1.92-20.33-21.56-46.61-3.65-9.11,6.21-38.64,12.69-56.06,10.25-21-2.94-25-6.15-41.45-20.86-9.35-8.37-14.57-19.38-14.37-41,.24-26.65,13.26-48.15,19.24-62.25S57.21,531.81,62.23,541.51Z"/><path fill="#ffc8bb" fill-rule="evenodd" d="M208.87,54.28C221.3,31,240.69,19.14,253.34,13.58S272,9.94,278.14,7.7A81.67,81.67,0,0,1,305.9,2.46c42.93,0,76.67,46,85.13,66.1a316.26,316.26,0,0,1,11.3,35.85c.53,2.07,3.53,18.8,6.81,39.44,2.31,14.58,4,30.5,8.42,47.21,10.36,39.07,28.72,75.54,37.4,84.33,15.63,15.81,25.75,23.94,25.82,25.07.23,3.91-35.63-5.83-39.09-6.34-9.6-1.41-42.63-19.27-45.81-21.63-19.76-14.62-27.52-45.77-28.27-48.87-5.61-23.15-11.92-78-12.52-82.62-1.62-12.45-2.1-25.61-4.47-28.14C337.12,98.44,335,81.71,333.08,79.09,324.87,67.81,320.57,62.38,313,58.51c-8.39-4.28-16-6.59-21.21-6.59-4.9,0-10.22,1-19.16,12.57-4.14,5.35-21.8,20.52-39.73,33.77-11.75,8.68-28,20-21.92,35.07.57,1.42,4.75,14.38,6.35,32.52.35,4.08,2.42,30.78,14.27,45.73,4.94,6.23,10.12,18.59,27.23,31.2,1.24.91,7.67,22.47-3.15,33.07-4.58,4.47-13.16,6-20.63,7.48-12.05,2.33-47.88,16.77-44.84,10.31,2.79-5.92,7.55-7.5,11.06-20.5,4-14.8,1.59-54.57,1.51-56.8-.79-24.85-6-47.93-6.34-50-3.18-20.1-6.15-27.23-6.35-48.12C189.84,90.5,206.7,58.35,208.87,54.28Z"/><path fill="#fcd5cb" fill-rule="evenodd" d="M260.13,206.64c0-.32,12.4.87,28.48-.81s27.67-6,27.7-5.66-10.07,16.7-26.15,18.37S260.16,207,260.13,206.64Z"/><path fill="#fbdfba" fill-rule="evenodd" d="M88.67,429.51c-.6-27.05,21.59-104.27,64.82-121.55,16.24-6.49,57.77-18.25,78-22.9,12.23-2.82,9,4.75,10,17.68s4.72,31.79,15.68,46.05c8.38,10.89,29.09,28.32,50.46,28.52,36.5.34,55.84-28.44,70.41-50.6,16-24.28,15.49-53,23.61-51,2.73.65,29.16,17.43,59.83,22.09,11.56,1.76,37.26,6.05,47.94,12.59,16.78,10.27,29.63,27,39.82,43.58,17.54,28.48,24.85,60.77,33,88.13,1.35,4.51,16.89,58.45,16.93,63.25s-6.11,14.56-9.49,18.55c-8.44,10-26.26,29-52,35.88-9.89,2.64-17.08,3.58-30.67,3.21-6.91-.18-12.41,0-19.84-.28-4.67-.2-9.16-4.84-9.54-13-.2-4.18-9.33,13.08-15.34,27.87-2.07,5.11-4.14,31.59-6.25,31.75-25.82,1.91-95.66,2.42-126.53-4.46-13.91-3.09-28.78-9.45-36.62-15.12-10.3-7.46-16.87-18.86-27.4-25.53-6.81-4.32-18-16.24-25.87-24.69-2.57-2.77-7.19-8.71-12.78-8.85-1.17,0-9-1-18.88-5.22-3.39-1.44-12.55-3.28-13.89-6C174.31,479.89,89.42,463.67,88.67,429.51Z"/><path fill="#fbdfba" fill-rule="evenodd" d="M180.31,668.19s14.26-.84,19.62.08,27.65.33,32.9-2,29.73-3.39,35.07-3.59,13.86,2.82,19.18,3.31,22.3,1.78,31.41,3.4S344,673,352.63,675s33.56,6.93,39.25,8.9,15.68,4.62,15.68,4.62S362,704.75,297.33,701.17C232.19,697.56,180.31,668.19,180.31,668.19Z"/><path fill="#fcaeae" fill-rule="evenodd" d="M2.41,460.66l82,5.4,55.92,88.32s-9.06,7.91-10.61,12.54-8.09,24.1-10.6,26.8-13.11.19-19.48-.19-15.81-2.12-19.09-5S2.41,460.66,2.41,460.66Z"/><path fill="#fff" fill-rule="evenodd" d="M4.92,458.74l19.86-15.82,75.59,5.21-58.62-26,28.73-18.32,82.34,30.28L196,522.57a25.79,25.79,0,0,0,1.16,7.9c1.35,4.63,7.71,12.15,10.41,13.5s4.44,2.31,4.63,6.17.19,5.78-4.24,8.49-19.09,11.18-19.09,11.18a5.18,5.18,0,0,1-6-3.47c-1.54-4.44-8.49-16.39-8.49-16.39a36.1,36.1,0,0,0,6-9.26c1.93-4.82,4.82-10.61,3.66-14.85s-3.08-8.1-6.36-6-5.59,5-8.1,7.72-4,4.62-5.4,1-34.52-69.42-34.52-69.42L105.19,448.9s-.38,2.89,3.09,7.9,49,79.65,49,79.65-6.56,9.25-9.83,11.95-6.37,10-8.87,5.4-52.84-87.35-52.84-87.35Z"/><path fill="#fff" fill-rule="evenodd" d="M155.72,570.2s3.66-6.56,6.17-9.07,6.36-7.52,7.71-4.82,9.64,16,9.64,16-8.48,1.54-12.34,1A90.79,90.79,0,0,1,155.72,570.2Z"/><path fill="#b6b890" fill-rule="evenodd" d="M49,443.63l-7.68-20.92,87.89,35.8L164.34,532l-7.2,5.58-53.25-85.33-6.51-4.65Z"/><path fill="#b6b890" fill-rule="evenodd" d="M168.23,556l6.52-5.65,11.46,21.24-5.65,2.23-6.2-9.07Z"/><path fill="#3f575b" d="M290.88,262.8c-12.18,0-20-6.87-28.21-14.14-2.4-2.11-4.88-4.3-7.52-6.36-24.49-19.08-39.4-47-40.9-76.56a2.57,2.57,0,1,1,5.13-.26c1.42,28.08,15.61,54.61,38.93,72.77,2.76,2.15,5.3,4.39,7.76,6.56,7.95,7,14.84,13.16,25.41,12.84,18.86-.41,39-12.77,53.91-33.06a2.57,2.57,0,1,1,4.14,3c-15.84,21.57-37.5,34.72-57.94,35.16Z"/><path fill="#3f575b" d="M213.85,147.09a2.56,2.56,0,0,1-2.48-1.92l-.25-.95c-1.8-6.91-3.84-14.73-4-23.06a2.56,2.56,0,0,1,2.53-2.6,2.49,2.49,0,0,1,2.61,2.53c.12,7.7,2,14.89,3.8,21.84l.25.95A2.57,2.57,0,0,1,214.5,147,2.46,2.46,0,0,1,213.85,147.09Z"/><path fill="#3f575b" d="M254.76,280.19a2.57,2.57,0,0,1-1.61-4.57c7.7-6.16,7.21-20.07,5.45-30.66a2.57,2.57,0,0,1,5.07-.84c2.85,17.12.33,29.4-7.31,35.51A2.54,2.54,0,0,1,254.76,280.19Z"/><path fill="#3f575b" d="M201.78,140.37a1.67,1.67,0,0,1-.32,0,2.56,2.56,0,0,1-2.23-2.86c1.9-15.27,10.24-22.6,19.89-31.09,1.23-1.08,2.5-2.19,3.79-3.35A252.36,252.36,0,0,1,242.84,87.4c9.45-6.92,19.22-14.07,27-22.72a69.71,69.71,0,0,0,5.46-7.22c1.19-1.72,2.38-3.44,3.7-5.14a2.57,2.57,0,0,1,4.06,3.16c-1.26,1.62-2.4,3.26-3.54,4.91a75.69,75.69,0,0,1-5.86,7.73c-8.15,9-18.14,16.36-27.79,23.43-6.63,4.85-13.47,9.86-19.54,15.32q-2,1.75-3.83,3.39c-9.59,8.44-16.52,14.54-18.19,27.86A2.57,2.57,0,0,1,201.78,140.37Z"/><path fill="#3f575b" d="M282.82,48.26a2.56,2.56,0,0,1-2.43-3.38c2.52-7.58,2.62-22.14-2.95-27.72a2.57,2.57,0,1,1,3.63-3.63c7.33,7.32,7.13,24.15,4.19,33A2.57,2.57,0,0,1,282.82,48.26Z"/><path fill="#3f575b" d="M195.7,157.15a2.58,2.58,0,0,1-2.5-2c-3.37-14-6.1-26.58-5.42-38.95C190.41,68.94,219,15,266.75,8.16a2.57,2.57,0,1,1,.72,5.08c-45.05,6.44-72,58-74.55,103.28-.65,11.68,2,23.88,5.28,37.46a2.57,2.57,0,0,1-1.9,3.1A2.46,2.46,0,0,1,195.7,157.15Z"/><path fill="#3f575b" d="M369.23,105.38a2.3,2.3,0,0,1-.37,0c-17.12-2.45-27.38-14.25-37.3-25.67-2.61-3-5.31-6.12-8.1-9C313.92,60.79,305,56.2,291.74,54.3a2.57,2.57,0,1,1,.73-5.08c14.35,2.05,24.4,7.23,34.68,17.89,2.89,3,5.64,6.15,8.3,9.21,9.72,11.2,18.91,21.78,34.14,24a2.57,2.57,0,0,1-.36,5.11Z"/><path fill="#3f575b" d="M371.84,124.87a1.42,1.42,0,0,1-.29,0c-16.45-1.8-25.56-11.72-34.16-26.07a2.57,2.57,0,0,1,4.41-2.64c8,13.41,15.91,22,30.31,23.61a2.57,2.57,0,0,1-.27,5.12Z"/><path fill="#3f575b" d="M410.28,151.44a2.58,2.58,0,0,1-2.53-2.11c-.8-4.4-1.57-8.93-2.36-13.52-3-17.56-6.1-35.71-11.47-51.82C385.1,57.54,361.34,23.16,330,10.18c-17.52-7.25-34.69-6.78-51,1.39a2.57,2.57,0,0,1-2.3-4.6c17.5-8.74,36.62-9.27,55.3-1.53,33,13.66,57.34,48.48,66.83,76.93,5.49,16.47,8.63,34.83,11.66,52.58.78,4.57,1.55,9.08,2.35,13.46a2.58,2.58,0,0,1-2.07,3A2.45,2.45,0,0,1,410.28,151.44Z"/><path fill="#3f575b" d="M517.86,320a2.55,2.55,0,0,1-1.69-.64c-12.74-11.21-26.63-13.68-42.7-16.54-2.47-.44-5-.89-7.49-1.37-17.46-3.34-35.53-7.43-49.47-14.63a2.57,2.57,0,1,1,2.36-4.56c13.35,6.9,31,10.87,48.08,14.14,2.5.48,5,.92,7.42,1.36,16.13,2.87,31.37,5.58,45.19,17.74a2.57,2.57,0,0,1,.23,3.63A2.53,2.53,0,0,1,517.86,320Z"/><path fill="#3f575b" d="M95.19,390.26a2.41,2.41,0,0,1-.94-.18,2.57,2.57,0,0,1-1.45-3.33c11.7-29.72,25.67-59.32,48.46-74.52,13.18-8.79,52.82-19.59,79.05-26.74,7.69-2.09,14.22-3.87,18.54-5.18a2.57,2.57,0,0,1,1.49,4.92c-4.35,1.32-10.93,3.11-18.68,5.22-25.91,7.06-65.07,17.73-77.55,26.05C122.5,330.92,109,359.69,97.58,388.63A2.57,2.57,0,0,1,95.19,390.26Z"/><path fill="#3f575b" d="M599.39,638.25a2.57,2.57,0,0,1-2.57-2.57c0-19.4-3.74-39.1-7.36-58.14-1.3-6.79-2.58-13.56-3.7-20.3-1.45-8.63-2.79-17.25-4.1-25.86a2.57,2.57,0,0,1,5.08-.77q1.95,12.87,4.08,25.78c1.12,6.71,2.4,13.44,3.68,20.19,3.67,19.28,7.46,39.21,7.46,59.1A2.57,2.57,0,0,1,599.39,638.25Z"/><path fill="#3f575b" d="M498.32,600.28a2.92,2.92,0,0,1-.5,0,2.56,2.56,0,0,1-2-3c.78-3.91-1.05-16.63-4.68-32.4a2.57,2.57,0,1,1,5-1.15c1.87,8.13,6.07,27.77,4.71,34.55A2.58,2.58,0,0,1,498.32,600.28Z"/><path fill="#3f575b" d="M427.34,613.14c-17.58,0-36-.46-55-1.39-19.36-1-40-2.38-60.14-8.52a2.57,2.57,0,0,1,1.49-4.92c19.62,6,39.86,7.38,58.91,8.31,30.13,1.47,58.68,1.77,84.87.9,7.47-.25,15.09-1.08,23.15-2,17.56-1.92,35.72-3.91,52.46.55a2.57,2.57,0,0,1-1.33,5c-15.8-4.22-33.48-2.28-50.57-.41-7.8.86-15.87,1.74-23.54,2Q443,613.15,427.34,613.14Z"/><path fill="#3f575b" d="M514.71,704.94c-39.81,0-78.64-8.62-119.69-17.74-35.32-7.84-71.85-16-109.73-18.31a2.57,2.57,0,0,1,.32-5.13c38.29,2.39,75,10.54,110.53,18.43,41.87,9.29,81.47,18.06,121.78,17.59,5.16-.06,10.31-.57,15.29-1.06a191.28,191.28,0,0,1,23.9-1c9.89.27,20.13.54,28.72-3.76,1.48-.73,2.65-5.07,3.21-7.15.23-.87.44-1.64.65-2.26l1.32-3.91c3.08-9,5.51-16.2,5.51-26.46a2.57,2.57,0,1,1,5.14,0c0,11.11-2.55,18.61-5.78,28.12l-1.32,3.88c-.18.53-.36,1.21-.56,2-1,3.65-2.33,8.64-5.87,10.41-9.75,4.88-20.63,4.59-31.16,4.3a186.32,186.32,0,0,0-23.25.94c-5.09.5-10.36,1-15.73,1.09Z"/><path fill="#3f575b" d="M54.82,668.67a2.55,2.55,0,0,1-1.75-.69c-2.09-2-4.41-3.85-6.65-5.68-6.24-5.1-12.7-10.37-16.29-18.3-2.91-6.42-3.21-14.06-3.48-20.8l-.26-5.47c-.3-5.77-.62-11.73.3-17.3,2.64-16,9.42-30.71,16-44.9,2-4.29,4-8.57,5.83-12.89a2.57,2.57,0,1,1,4.71,2c-1.88,4.36-3.88,8.68-5.87,13-6.41,13.88-13,28.23-15.57,43.59-.83,5-.52,10.7-.23,16.19l.26,5.53c.24,6.27.53,13.38,3,18.9,3.09,6.83,8.81,11.49,14.86,16.43,2.31,1.88,4.69,3.83,6.91,5.9a2.57,2.57,0,0,1-1.76,4.45Z"/><path fill="#3f575b" d="M94,679.27a98.24,98.24,0,0,1-25.61-3.41,2.57,2.57,0,0,1,1.34-5c28.15,7.58,57.17,1.82,86.25-17.11a2.57,2.57,0,1,1,2.8,4.31C137.08,672.19,115.38,679.27,94,679.27Z"/><path fill="#3f575b" d="M109.27,597.37c-8.11,0-15.76-1.66-23-3.43-2.48-.61-4.83-1.36-7.14-2.1-4.63-1.48-9-2.87-14-2.87H65a2.58,2.58,0,0,1-2.57-2.57,2.65,2.65,0,0,1,2.63-2.57c5.83,0,10.79,1.58,15.59,3.12,2.2.7,4.44,1.42,6.8,2,9.28,2.27,19.22,4.35,29.64,2.68a2.57,2.57,0,0,1,.81,5.08A54.73,54.73,0,0,1,109.27,597.37Z"/><path fill="#3f575b" d="M117.44,600.57a2.58,2.58,0,0,1-2.24-3.82c2.36-4.28,3.86-9,5.44-14,1.74-5.5,3.54-11.18,6.62-16.36,3.71-6.23,8.83-11,13.79-15.69l1.93-1.82c1.92-1.81,3.75-3.68,5.59-5.54A119.38,119.38,0,0,1,160,532.73l.57-.43a32.06,32.06,0,0,0,3.06-2.58,30.65,30.65,0,0,0,2-2.36c3.47-4.29,8.11-10.23,13.42-9.9,1.59.09,3.88.8,5.79,3.74,3,4.63,1.55,10.8.21,15-3,9.24-11.3,17.82-18,24.71l-.49.51a63.31,63.31,0,0,0-5.26,6.44l-1,1.34-.48.57-.4.48a51.64,51.64,0,0,0,7,.47c1,0,1.75,0,2.25.07a37,37,0,0,0,5.91-.16,37.84,37.84,0,0,1,7.07-.11,2.57,2.57,0,0,1-.55,5.11,33.2,33.2,0,0,0-6.11.12,39.86,39.86,0,0,1-6.76.16c-.42,0-1.09,0-1.9-.06-5.53-.09-10.27-.37-12.06-3s.61-5.29,1.62-6.46l1.26-1.63a68,68,0,0,1,5.68-6.93l.5-.51c6-6.16,14.22-14.6,16.79-22.69,1-3.24,2.19-7.88.38-10.68-.88-1.36-1.53-1.39-1.74-1.41-2.64-.11-7,5.36-9.16,8-.94,1.17-1.74,2.15-2.34,2.76a36,36,0,0,1-3.57,3l-.55.42A114.06,114.06,0,0,0,152.23,547c-1.88,1.91-3.76,3.82-5.71,5.67l-2,1.84c-4.92,4.6-9.56,9-12.89,14.56-2.78,4.68-4.41,9.83-6.14,15.29-1.59,5-3.23,10.2-5.85,14.93A2.56,2.56,0,0,1,117.44,600.57Z"/><path fill="#3f575b" d="M187.77,573.75a2.57,2.57,0,0,1-1.23-4.83l.83-.45c1.44-.78,1.9-1,4.08-2.31l6.6-3.91c.16-.1.52-.33,2.74-1.68l1.06-.63c7.74-4.56,8.76-6.73,8.26-7.75a2.57,2.57,0,0,1,4.6-2.28c3.23,6.52-5.88,11.88-10.26,14.45l-1,.59-2.61,1.6L194,570.6c-2.25,1.32-2.73,1.58-4.22,2.39l-.83.44A2.47,2.47,0,0,1,187.77,573.75Z"/><path fill="#3f575b" d="M217.56,584.79a2.54,2.54,0,0,1-1.82-.76,2.56,2.56,0,0,1,0-3.63l1.82-1.79c9-8.73,14.84-15.52,8.83-23.31a17.38,17.38,0,0,0-3.82-3.6c-3.32-2.51-4.37-3.28-7.67-3.08a2.51,2.51,0,0,1-2.72-2.41,2.57,2.57,0,0,1,2.41-2.72c5.25-.35,7.57,1.46,10.83,3.93a22.87,22.87,0,0,1,5,4.74c9.27,12-1.91,22.92-9.32,30.13L219.37,584A2.56,2.56,0,0,1,217.56,584.79Z"/><path fill="#3f575b" d="M300.24,596.68a2.6,2.6,0,0,1-1.05-.22c-8.64-3.87-15.05-10.47-21.24-16.84-2.15-2.21-4.29-4.41-6.53-6.51-4-3.73-8.24-7.36-12.34-10.86-4.46-3.8-9.06-7.73-13.41-11.86-1.67-1.58-3.43-3.63-5.29-5.8-3.87-4.51-8.26-9.62-12.4-11.07a26.38,26.38,0,0,0-6.09-1.1c-1.14-.12-2.3-.24-3.47-.43a47.5,47.5,0,0,1-12.17-3.66c-.55-.28-1.26-.69-2-1.17-.94-.57-3.6-2.17-4.77-2.26-.13.59-.23,2.06.33,5.39.85,5.09,7.57,12.49,12.49,12.57a2.57,2.57,0,0,1,0,5.14h-.05c-8.1-.14-16.35-10.21-17.44-16.71-.78-4.63-1.11-9.43,2.15-11s7.16.76,10,2.46c.62.38,1.18.73,1.63,1a42.53,42.53,0,0,0,10.74,3.21c1.06.17,2.12.28,3.18.38a31.36,31.36,0,0,1,7.27,1.37c5.43,1.91,10.3,7.58,14.59,12.57,1.77,2.07,3.44,4,4.92,5.42,4.26,4,8.81,7.92,13.21,11.68,4.15,3.54,8.45,7.21,12.52,11,2.29,2.15,4.5,4.41,6.7,6.68,6.13,6.3,11.92,12.26,19.66,15.73a2.57,2.57,0,0,1-1.05,4.91Z"/><path fill="#3f575b" d="M218.86,609.79h0c-6.57-.11-13.29-1.56-19.79-3-3.37-.73-6.72-1.46-10-2-6.81-1.09-13.44-1.94-19.71-2.53-5.48-.51-15.79-2-23.2-6.14-5.09-2.86-5.58-6.51-5.42-8.43.33-4,3.92-7.75,9.14-9.61a44.09,44.09,0,0,1,7.41-1.92c6.58-1.08,13.15-.12,19.5.81l3.08.44a298.47,298.47,0,0,0,34.92,2.18l2.1.05c5.56.13,11.86.3,14.76-2.62,1.43-1.44,2.08-3.67,2-6.82a10.19,10.19,0,0,0-.86-3.55c-.22-.6-.46-1.24-.69-2a2.57,2.57,0,1,1,4.9-1.54c.2.64.41,1.21.61,1.74a15,15,0,0,1,1.17,5.18c.14,4.56-1,8.13-3.48,10.6-4.46,4.48-11.94,4.28-18.53,4.13l-2.05-.05a304.23,304.23,0,0,1-35.54-2.23L176,582.1c-6-.87-12.13-1.76-17.93-.81a38.08,38.08,0,0,0-6.52,1.68c-3.17,1.13-5.58,3.32-5.74,5.2-.13,1.53,1.46,2.76,2.81,3.52,4.81,2.69,12.53,4.7,21.17,5.51,6.38.59,13.12,1.46,20.05,2.57,3.39.54,6.89,1.3,10.28,2,6.25,1.35,12.72,2.75,18.78,2.85a2.57,2.57,0,0,1,0,5.14Z"/><path fill="#3f575b" d="M146,631.74h0c-6.69-.11-16.61-1.7-22.58-5.82a8,8,0,0,1-3.37-9c1.33-4.89,6.54-9.33,11.37-9.68,10.17-.76,20.81.31,31.09,1.35l6.05.59c17,1.6,36.6-1.43,49.83-3.85a2.57,2.57,0,0,1,.93,5.06c-13.54,2.47-33.57,5.57-51.24,3.91l-6.08-.6c-10.06-1-20.47-2.06-30.2-1.34-2.67.2-6,3.12-6.79,5.91a2.89,2.89,0,0,0,1.33,3.47c4.7,3.24,13.3,4.81,19.75,4.91a2.57,2.57,0,0,1-.05,5.14Z"/><path fill="#3f575b" d="M187.31,636.68c-1.06,0-2.12,0-3.17,0-5.61-.09-11.28-.74-16.76-1.37-4-.46-8.18-.94-12.24-1.18a2.57,2.57,0,0,1,.31-5.13c4.2.25,8.42.73,12.51,1.2,5.36.62,10.9,1.25,16.26,1.34,4.49.08,9,0,13.57-.14s9-.21,13.44-.15a2.58,2.58,0,0,1,2.53,2.61,2.51,2.51,0,0,1-2.61,2.53c-4.34-.08-8.77,0-13.24.14C194.38,636.6,190.83,636.68,187.31,636.68Z"/><path fill="#3f575b" d="M172.83,660a28.23,28.23,0,0,1-4.49-.33c-8.46-1.35-17-3.83-25.23-6.23l-1.1-.32c-.84-.25-1.93-.5-3.15-.78-6.91-1.58-18.48-4.24-17.08-13,1.09-6.79,10.72-8.45,14.92-8.15,4.41.31,8.87,1,13.18,1.59a131.6,131.6,0,0,0,16.59,1.71,49.25,49.25,0,0,0,9.41-1.06,56.44,56.44,0,0,1,10.25-1.12,2.56,2.56,0,0,1,2.52,2.61,2.71,2.71,0,0,1-2.61,2.53,49.15,49.15,0,0,0-9.27,1.05,56.12,56.12,0,0,1-10.39,1.13,136.8,136.8,0,0,1-17.24-1.77c-4.22-.61-8.58-1.25-12.8-1.54-3-.22-9,1.13-9.48,3.84-.65,4,8,6,13.15,7.2,1.33.31,2.52.59,3.44.85l1.1.32c8.09,2.36,16.45,4.79,24.6,6.1,5.29.85,12.51-.52,18.88-1.72,2.52-.47,4.93-.93,7.11-1.24a33.18,33.18,0,0,1,6.14-.08,20,20,0,0,0,6.59-.34,2.57,2.57,0,1,1,1.54,4.9,23.74,23.74,0,0,1-8.39.58,27.59,27.59,0,0,0-5.16,0c-2.11.3-4.45.74-6.88,1.2C183.76,658.92,178,660,172.83,660Z"/><path fill="#3f575b" d="M188.55,671.63a36.28,36.28,0,0,1-5.16-.33c-8.16-1.15-17.25-5.17-27-11.93a2.57,2.57,0,1,1,2.92-4.22c9.12,6.3,17.48,10,24.83,11.06,3.83.55,8.26.21,12.83-.23a82.67,82.67,0,0,1,8.88-.2c2.53,0,5.15.07,7.71-.11,7.32-.55,14.66-1.49,21.75-2.39,11.76-1.51,23.92-3,36.4-2.86a2.58,2.58,0,0,1,2.53,2.61,2.73,2.73,0,0,1-2.61,2.53c-12.11-.2-24.08,1.33-35.67,2.81-7.16.92-14.56,1.87-22,2.42-2.77.2-5.51.17-8.15.13a76.2,76.2,0,0,0-8.33.18C194.39,671.38,191.42,671.63,188.55,671.63Z"/><path fill="#3f575b" d="M226.7,658.75h-1.17a2.58,2.58,0,0,1-2.53-2.62,2.65,2.65,0,0,1,2.61-2.52c7.22.13,12.06-1.1,14.78-3.72a2.57,2.57,0,1,1,3.57,3.69C239.31,658.07,232.13,658.75,226.7,658.75Z"/><path fill="#3f575b" d="M234.06,636.31a2.57,2.57,0,0,1-.24-5.12,53.48,53.48,0,0,0,14.45-3.44,2.57,2.57,0,1,1,1.81,4.81,58.87,58.87,0,0,1-15.78,3.74Z"/><path fill="#3f575b" d="M243.59,613.75a2.57,2.57,0,0,1-.78-5c.84-.27,1.74-.51,2.66-.75,2.73-.73,5.56-1.49,7.18-3.05a2.57,2.57,0,0,1,3.57,3.7c-2.57,2.48-6.21,3.45-9.43,4.31-.84.23-1.67.45-2.43.69A2.63,2.63,0,0,1,243.59,613.75Z"/><path fill="#463b39" fill-rule="evenodd" d="M242.67,144.61a2.14,2.14,0,1,1,2.14,2.08A2.11,2.11,0,0,1,242.67,144.61Z"/><path fill="#3f575b" d="M244.81,149.26a4.65,4.65,0,1,1,4.7-4.65A4.68,4.68,0,0,1,244.81,149.26Zm0-5.14a.48.48,0,0,0-.44.49.44.44,0,0,0,.87,0A.47.47,0,0,0,244.81,144.12Z"/><path fill="#463b39" fill-rule="evenodd" d="M311.21,135.13a2.14,2.14,0,1,1,2.14,2.07A2.11,2.11,0,0,1,311.21,135.13Z"/><path fill="#3f575b" d="M313.35,139.77a4.65,4.65,0,1,1,4.7-4.64A4.68,4.68,0,0,1,313.35,139.77Zm0-5.14a.47.47,0,0,0-.44.5.44.44,0,0,0,.87,0A.46.46,0,0,0,313.35,134.63Z"/><path fill="#3f575b" d="M226.43,132.06a2.57,2.57,0,0,1-1.65-4.54c5.33-4.44,17.16-8.8,24.62-5.07a2.57,2.57,0,1,1-2.3,4.6c-5.15-2.58-14.87,1-19,4.42A2.54,2.54,0,0,1,226.43,132.06Z"/><path fill="#3f575b" d="M297.58,119.38a2.57,2.57,0,0,1-1.39-4.74c7.05-4.49,17.69-5.9,25.32-3.35a2.57,2.57,0,1,1-1.63,4.87c-6.17-2.06-15.17-.85-20.93,2.82A2.54,2.54,0,0,1,297.58,119.38Z"/><path fill="#3f575b" d="M267.26,179.86a2.57,2.57,0,0,1-1.42-.43,31,31,0,0,1-4.48-3.64c-6.21-6.21-4.15-11-2.33-15.26a28,28,0,0,0,1.88-5.48,23.47,23.47,0,0,0-3.2-17.76,2.57,2.57,0,1,1,4.28-2.85,28.62,28.62,0,0,1,4,21.62,31.71,31.71,0,0,1-2.2,6.49c-1.72,4-2.51,5.85,1.24,9.6a24.69,24.69,0,0,0,3.7,3,2.57,2.57,0,0,1-1.43,4.71Z"/><path fill="#3f575b" d="M287.29,221.26c-12.17,0-22.41-7.2-26.45-10.5-3.13-2.55-3.18-3.07-3.26-3.87a2.58,2.58,0,0,1,.67-2c.86-.94,1.43-.92,4.61-.83a186,186,0,0,0,25.49-.78,143.16,143.16,0,0,0,25.18-5.07c2.48-.71,3.15-.91,4.22-.18a2.6,2.6,0,0,1,1.12,1.89c.27,2.7-11.88,19.45-28.44,21.18A30.43,30.43,0,0,1,287.29,221.26Zm-19.82-11.95c5.25,3.5,13.65,7.59,22.42,6.68,9-.94,15.89-6.87,19.95-11.43a143.46,143.46,0,0,1-21,3.83A183.59,183.59,0,0,1,267.47,209.31Z"/><path fill="#3f575b" d="M79.88,589.26A2.54,2.54,0,0,1,77.7,588L.39,463.74A2.57,2.57,0,0,1,4.75,461L82.06,585.33a2.58,2.58,0,0,1-2.18,3.93Z"/><path fill="#3f575b" d="M138.19,554.34a2.54,2.54,0,0,1-2.18-1.22L83.44,468a2.57,2.57,0,0,1,4.38-2.7l52.56,85.17a2.57,2.57,0,0,1-2.19,3.92Z"/><path fill="#3f575b" d="M155.84,538.61a2.58,2.58,0,0,1-2.2-1.24l-52.37-86.32a2.57,2.57,0,0,1,4.4-2.66L158,534.71a2.57,2.57,0,0,1-2.2,3.9Z"/><path fill="#3f575b" d="M178.67,574.87a2.58,2.58,0,0,1-2.23-1.29l-9-15.74a2.56,2.56,0,1,1,4.45-2.55l9,15.73a2.58,2.58,0,0,1-1,3.51A2.61,2.61,0,0,1,178.67,574.87Z"/><path fill="#3f575b" d="M85.44,468.79h-.21L4.86,462.26a2.57,2.57,0,1,1,.41-5.13l80.38,6.53a2.57,2.57,0,0,1-.21,5.13Z"/><path fill="#3f575b" d="M101.56,450.76h-.17l-76.93-5a2.57,2.57,0,0,1,.34-5.13l76.92,5a2.57,2.57,0,0,1-.16,5.14Z"/><path fill="#3f575b" d="M3,462.84a2.57,2.57,0,0,1-1.57-4.61l22.06-16.88a2.57,2.57,0,1,1,3.13,4.08L4.52,462.31A2.62,2.62,0,0,1,3,462.84Z"/><path fill="#3f575b" d="M87.36,468.79a2.58,2.58,0,0,1-1.86-4.35l13.43-14a2.57,2.57,0,0,1,3.71,3.55L89.21,468A2.58,2.58,0,0,1,87.36,468.79Z"/><path fill="#3f575b" d="M41.26,423.59a2.57,2.57,0,0,1-1.34-4.76l28.57-17.4a2.57,2.57,0,0,1,2.68,4.38L42.59,423.22A2.57,2.57,0,0,1,41.26,423.59Z"/><path fill="#3f575b" d="M49.86,446.48a2.56,2.56,0,0,1-2.37-1.59l-8.78-21.13a2.57,2.57,0,0,1,4.74-2l8.78,21.13a2.57,2.57,0,0,1-1.39,3.36A2.6,2.6,0,0,1,49.86,446.48Z"/><path fill="#3f575b" d="M129.88,459a2.57,2.57,0,0,1-1.61-4.58l21.18-16.87a2.57,2.57,0,0,1,3.2,4l-21.18,16.87A2.51,2.51,0,0,1,129.88,459Z"/><path fill="#3f575b" d="M126.77,459.73a2.6,2.6,0,0,1-1-.2L39.93,424.38a2.57,2.57,0,0,1,2-4.75l85.86,35.15a2.57,2.57,0,0,1-1,5Z"/><path fill="#3f575b" d="M154.28,437.66a2.54,2.54,0,0,1-.89-.16l-84-31.17a2.57,2.57,0,0,1,1.79-4.82l84,31.17a2.57,2.57,0,0,1-.9,5Z"/><path fill="#3f575b" d="M165.14,532.92a2.59,2.59,0,0,1-2.3-1.41L126,458.72a2.57,2.57,0,1,1,4.59-2.33l36.89,72.8a2.57,2.57,0,0,1-2.29,3.73Z"/><path fill="#3f575b" d="M185.15,572.39a2.59,2.59,0,0,1-2.3-1.41l-10.08-19.9a2.66,2.66,0,0,1,1.07-3.53,2.49,2.49,0,0,1,3.41,1l.8,1.58,9.39,18.52a2.57,2.57,0,0,1-2.29,3.73Z"/><path fill="#3f575b" d="M193.91,522.63a2.56,2.56,0,0,1-2.33-1.49L152.4,436.72a2.57,2.57,0,0,1,4.67-2.16L196.24,519a2.57,2.57,0,0,1-1.25,3.41A2.61,2.61,0,0,1,193.91,522.63Z"/><path fill="#3f575b" d="M310.91,380a60.85,60.85,0,0,1-19.52-3.3c-23.72-8-43-29.39-49.17-54.49-.42-1.72-.94-3.44-1.47-5.17-1.5-4.94-3.05-10-2.49-15.39a2.57,2.57,0,0,1,5.11.54c-.46,4.31.88,8.7,2.3,13.35.55,1.83,1.1,3.64,1.55,5.45C253,344.44,270.94,364.4,293,371.86c18.22,6.14,36.56,2.81,51.65-9.39,10.62-8.58,21.75-21.84,29.77-35.46,4.33-7.35,9.46-18.45,12.86-25.79.87-1.89,1.65-3.57,2.28-4.91a2.57,2.57,0,0,1,4.65,2.2c-.63,1.33-1.4,3-2.27,4.87-3.44,7.43-8.64,18.67-13.1,26.24-8.44,14.33-19.72,27.76-31,36.84S324.11,380,310.91,380Z"/><path fill="#3f575b" d="M457.07,611.43a2.71,2.71,0,0,1-.4,0,2.55,2.55,0,0,1-2.14-2.93c.45-2.93.81-5.83,1.18-8.7,1.23-9.63,2.38-18.73,6.37-28.21,2.07-4.93,4.44-9.77,6.74-14.45,2-4,4-8.15,5.79-12.27a2.57,2.57,0,1,1,4.71,2c-1.85,4.24-3.9,8.43-5.89,12.48-2.26,4.61-4.6,9.39-6.61,14.18-3.72,8.83-4.83,17.6-6,26.87-.37,2.92-.75,5.86-1.21,8.84A2.57,2.57,0,0,1,457.07,611.43Z"/><path fill="#3f575b" d="M154.76,428a2.57,2.57,0,0,1-2.57-2.57c0-6.51,1.1-12.94,2.17-19.15,1.47-8.56,2.86-16.65,1.66-25.06a2.57,2.57,0,1,1,5.09-.73c1.31,9.22-.21,18.08-1.68,26.66-1.08,6.28-2.1,12.2-2.1,18.28A2.57,2.57,0,0,1,154.76,428Z"/><path fill="#3f575b" d="M494.72,566c-5.25,0-10.41-.69-13.83-3.48-4.17-3.42-5.08-10.06-5.82-15.39-.22-1.62-.42-3.13-.7-4.37-5.36-23.48-10.62-48.51-11.11-73.57-.05-2.45-.13-4.9-.21-7.34a173.13,173.13,0,0,1,.24-22.75,2.55,2.55,0,0,1,2.81-2.3,2.58,2.58,0,0,1,2.31,2.81,167.66,167.66,0,0,0-.22,22.07c.08,2.46.16,4.93.21,7.41.47,24.58,5.68,49.31,11,72.53.31,1.37.54,3,.79,4.81.61,4.44,1.37,10,4,12.11,3.64,3,11.81,2.42,18.37,2a63.86,63.86,0,0,1,7.64-.27c25.68,1.51,51.91-10.19,71.91-32,5.12-5.59,12-13.1,13.91-20.26,1.11-4.1-.53-8.7-2.11-13.14-.64-1.82-1.27-3.61-1.74-5.35-1.29-4.83-2.62-9.62-4-14.41s-2.68-9.64-4-14.49q-1.53-5.74-3-11.5c-7.89-30-16.06-61.05-31.54-88.52-5-8.89-11.39-16.45-18.16-24.46-1.81-2.14-3.62-4.29-5.4-6.46a2.57,2.57,0,1,1,4-3.26q2.65,3.22,5.36,6.4c6.62,7.84,13.47,16,18.71,25.25,15.81,28.06,24,59.41,32,89.74,1,3.83,2,7.66,3,11.48,1.3,4.84,2.63,9.64,4,14.45s2.67,9.61,4,14.45c.43,1.62,1,3.27,1.62,5,1.75,4.94,3.74,10.54,2.23,16.19-2.26,8.37-9.62,16.41-15,22.29-21.15,23.1-48.84,35.4-76.1,33.82a62.81,62.81,0,0,0-7,.25C500.29,565.84,497.49,566,494.72,566Z"/><path fill="#3f575b" d="M196.71,287.6a2.52,2.52,0,0,1-1.42-.44,2.56,2.56,0,0,1-.71-3.56c5.63-8.45,6-16.36,6.47-26.38l.19-3.93c1.17-20.9-.8-42.15-2.88-60.17l-.29-2.5c-1-8.48-1.88-16.49-4.15-24.84a2.57,2.57,0,1,1,5-1.35c2.37,8.73,3.31,16.93,4.3,25.61l.28,2.49c2.11,18.24,4.1,39.75,2.91,61.05l-.19,3.88c-.48,10.39-.9,19.36-7.33,29A2.55,2.55,0,0,1,196.71,287.6Z"/><path fill="#3f575b" d="M411.74,283.56a2.67,2.67,0,0,1-.92-.17c-42-16-47.93-65.2-52.7-104.73-.7-5.74-1.36-11.25-2.11-16.41-1.55-10.69-3.09-21.14-4.83-31.54a2.57,2.57,0,0,1,5.07-.85c1.74,10.46,3.29,20.94,4.84,31.65.76,5.2,1.43,10.75,2.13,16.53,4.61,38.16,10.35,85.66,49.43,100.55a2.57,2.57,0,0,1-.91,5Z"/><path fill="#3f575b" d="M480.73,301.78a2.56,2.56,0,0,1-1.81-.75c-3.39-3.39-7.09-6.45-10.67-9.42-5.05-4.18-10.27-8.5-14.94-13.94-7.71-9-13.18-20.64-18-30.91l-.74-1.58c-10.87-23.11-19.64-50.4-25.34-78.93a2.57,2.57,0,0,1,5-1c5.62,28.13,14.25,55,25,77.75l.74,1.58c4.91,10.47,10,21.29,17.26,29.76,4.37,5.1,9.2,9.1,14.3,13.32,3.67,3,7.47,6.19,11,9.74a2.57,2.57,0,0,1-1.82,4.39Z"/><path fill="#3f575b" d="M234.46,170.55a26.92,26.92,0,0,1-10.28-2,22.9,22.9,0,0,1-14.6-21.7,2.57,2.57,0,0,1,5.14,0,17.68,17.68,0,0,0,11.42,16.95c7.88,3.26,17,1.61,22.74-4.11a2.57,2.57,0,0,1,3.63,3.63A25.52,25.52,0,0,1,234.46,170.55Z"/><path fill="#3f575b" d="M256.12,149.18a2.6,2.6,0,0,1-2.44-3.39,7.77,7.77,0,0,1,4.32-4.7c4.36-2,10-.58,12.59.55a2.57,2.57,0,0,1-2,4.72c-2.45-1.05-6.28-1.55-8.46-.58a2.62,2.62,0,0,0-1.54,1.64A2.58,2.58,0,0,1,256.12,149.18Z"/><path fill="#3f575b" d="M302,168.58c-8.52,0-15.95-3.72-22.54-11.25-2.76-3.16-6.05-7.9-6.05-12.53a2.57,2.57,0,1,1,5.14,0c0,2.34,1.74,5.67,4.78,9.15,7.71,8.82,16,11.36,26.87,8.25,9.76-2.78,14.27-10.14,18.38-21.11a2.57,2.57,0,1,1,4.82,1.8c-3.94,10.49-9.3,20.69-21.78,24.26A35.33,35.33,0,0,1,302,168.58Z"/><path fill="#3f575b" d="M339.82,140a2.57,2.57,0,0,1-.34-5.12,62.11,62.11,0,0,1,7.42-.42,55.73,55.73,0,0,0,6.62-.37,2.61,2.61,0,0,1,2.89,2.2,2.57,2.57,0,0,1-2.19,2.9,65.21,65.21,0,0,1-7.24.41,57.35,57.35,0,0,0-6.81.37A2,2,0,0,1,339.82,140Z"/><path fill="#fff" fill-rule="evenodd" d="M133.48,286.46s.75-10.53,4.54-16.46a17.87,17.87,0,0,1,10.6-7.29,16.51,16.51,0,0,1-9.48-7c-3.79-5.8-5.66-16.18-5.66-16.18s-.92,11.06-4.57,17a14.92,14.92,0,0,1-10.06,6.68s6.77.77,10.43,6.59S133.48,286.46,133.48,286.46Z"/><path fill="#3f575b" d="M133.48,289h0a2.58,2.58,0,0,1-2.54-2.44c0-.1-.56-10.27-3.81-15.45-2.92-4.65-8.49-5.39-8.55-5.39a2.57,2.57,0,0,1,0-5.11,12.22,12.22,0,0,0,8.17-5.48c2.74-4.42,4-12.93,4.2-15.83a2.57,2.57,0,0,1,5.09-.25c0,.1,1.83,9.95,5.28,15.23a14.13,14.13,0,0,0,7.86,5.89,2.57,2.57,0,0,1,0,5c-.05,0-5.82,1.25-8.94,6.15-3.38,5.31-4.13,15.17-4.14,15.27A2.57,2.57,0,0,1,133.48,289ZM126,263.1a16.36,16.36,0,0,1,5.48,5.31,23,23,0,0,1,2.2,4.8,23.45,23.45,0,0,1,2.2-4.59,18.78,18.78,0,0,1,6.42-6.08,19.43,19.43,0,0,1-5.29-5.42,32.2,32.2,0,0,1-3-6.18,28.87,28.87,0,0,1-2.89,6.92A16.57,16.57,0,0,1,126,263.1Z"/><path fill="#fff" fill-rule="evenodd" d="M164.6,203.49s.55-7.68,3.31-12a13,13,0,0,1,7.73-5.31,12.07,12.07,0,0,1-6.91-5.1c-2.76-4.23-4.13-11.8-4.13-11.8s-.67,8.06-3.33,12.37a10.87,10.87,0,0,1-7.34,4.88,11.24,11.24,0,0,1,7.61,4.8C164.2,195.56,164.6,203.49,164.6,203.49Z"/><path fill="#3f575b" d="M164.6,206.06h0a2.57,2.57,0,0,1-2.53-2.44c-.11-2-.79-7.93-2.68-10.93a8.7,8.7,0,0,0-5.73-3.62,2.57,2.57,0,0,1,0-5.1,8.25,8.25,0,0,0,5.45-3.68c1.92-3.09,2.79-9.16,3-11.24a2.57,2.57,0,0,1,5.09-.24c0,.07,1.31,7.12,3.75,10.85a9.52,9.52,0,0,0,5.29,4,2.57,2.57,0,0,1,0,5,10.47,10.47,0,0,0-6.06,4.17c-2,3.09-2.77,8.85-2.92,10.82A2.56,2.56,0,0,1,164.6,206.06Zm-4.25-19.63a12.23,12.23,0,0,1,3.36,3.52,15.59,15.59,0,0,1,1,2,14.68,14.68,0,0,1,1-1.84,14,14,0,0,1,4-4.11,14.38,14.38,0,0,1-3.21-3.52,20.64,20.64,0,0,1-1.54-2.88,17.83,17.83,0,0,1-1.59,3.41A12.84,12.84,0,0,1,160.35,186.43Z"/><path fill="#fff" fill-rule="evenodd" d="M110.83,186.67s.94-13.16,5.67-20.58S129.75,157,129.75,157a20.65,20.65,0,0,1-11.85-8.74C113.17,141,110.83,128,110.83,128s-1.14,13.82-5.71,21.21a18.62,18.62,0,0,1-12.57,8.35s8.46,1,13,8.23S110.83,186.67,110.83,186.67Z"/><path fill="#3f575b" d="M110.83,189.24h0a2.57,2.57,0,0,1-2.53-2.44c0-.13-.71-13-4.87-19.62-3.83-6.09-11.08-7-11.15-7.05a2.57,2.57,0,0,1,0-5.1,15.89,15.89,0,0,0,10.69-7.15c4.19-6.77,5.33-19.94,5.34-20.08a2.57,2.57,0,0,1,2.44-2.35,2.6,2.6,0,0,1,2.65,2.11c0,.12,2.31,12.56,6.69,19.27a18.36,18.36,0,0,0,10.25,7.64,2.57,2.57,0,0,1-.05,5c-.06,0-7.53,1.6-11.58,8-4.33,6.79-5.27,19.26-5.28,19.38A2.56,2.56,0,0,1,110.83,189.24Zm-10.64-31.75a19.89,19.89,0,0,1,7.56,6.95,31,31,0,0,1,3.26,7.72,32.07,32.07,0,0,1,3.33-7.45,23.11,23.11,0,0,1,8.71-7.9,23.76,23.76,0,0,1-7.3-7.17,43.62,43.62,0,0,1-4.38-9.52,38.62,38.62,0,0,1-4.07,10.46A20.33,20.33,0,0,1,100.19,157.49Z"/></svg>