<svg xmlns="http://www.w3.org/2000/svg" viewBox="0 0 900 600"><path fill="#fff3f3" fill-rule="evenodd" d="M335,172.06c0-1.51-3.62-.57-4.5-.29-5.64,1.82-10.8,5.82-15.71,9-13.34,8.64-24.26,23.33-26.55,39.41-1.56,10.89,1.06,19.39,3.56,30,5.11,21.58,11.64,44,31.42,56.4,3.22,2,7.56,3.41,11.13,4.43,5.49,1.56,11.93,1.16,17.57.57a32.49,32.49,0,0,0,24.55-16.85c3.19-6,4.74-12.68,7.14-19a232.93,232.93,0,0,1,13-28.27c3.5-6.42,7.08-13.11,9.56-20,1.26-3.47,2-8,.43-11.42-4.82-10.86-12.63-19.64-21.27-27.56-1.83-1.68-4-2.9-5.86-4.57a131.75,131.75,0,0,0-10.71-8.57c-1.34-1-2.54-2.36-4.14-3-6.76-2.71-13.74-1.29-20.84-1.29-2.22,0-4.35.57-6.57.57C336,171.63,335,172.27,335,172.06Z"/><path fill="#fff3f3" fill-rule="evenodd" d="M266.76,399.76c3.17,1.26,7.26-.64,10.39-.47,2.21.12,3.56,1.61,5.37,2.61,2.75,1.5,7.79,1.72,9.27,4.93,1.27,2.76,0,5.55.21,8.38.12,1.84.73,4,0,5.75-.91,2.33-3.73,4-4.78,6.33-.77,1.71.39,3.25.26,4.93-.12,1.42-.95,2.13-1.38,3.39-.38,1.08-.28,2.37-.81,3.41a14,14,0,0,1-3.14,3.55c-4.5,4.19-10.87,7.8-17.33,6.26-3.18-.76-4.48-2.9-7.06-4.44-1.7-1-3.18-1.53-4.5-3.21-1.48-1.89-2.2-4.24-3.15-6.42s-2.63-3.85-2.6-6.32c.06-3.79,2.3-8,3.25-11.58.58-2.23.35-5.17,1.85-7.05,2.42-3,5.64-3.06,9.22-2.74.67.06,2.57.8,3.26.49s.63-3.46.74-4.08S266.05,399.48,266.76,399.76Z"/><path fill="#fff3f3" fill-rule="evenodd" d="M354.69,432.87c-3.63,2.52-8.5,2.46-12.69,3.75-4.58,1.41-9.24,2.27-13.89,3.42-7.63,1.89-15.15,4.19-22.65,6.55-5.76,1.81-14.24,2.14-18.66,6.61-3.35,3.39-4.51,9.28-5.8,13.74a105.28,105.28,0,0,1-5.74,14.69c-.65,1.43-1.09,3.39,0,4.75a20.21,20.21,0,0,0,2.43,2.83c.68.5,1.39.22,2.12.69s1.42,1.53,2.42,1.52c2.86,0,4.76-1.92,6.91-3.51,3.6-2.65,7.23-5.79,11.15-8,7.68-4.26,16.38-5.79,24.48-9,6.2-2.47,12.1-6.63,18.47-8.5a90.08,90.08,0,0,1,14.55-3c2-.23,5.44.33,7-1.23.78-.79-.9-3.86-1.13-4.6-1.4-4.56-1.91-9-4.12-13.32-1.12-2.2-2.14-4.52-3.38-6.65C355.69,432.9,355.49,432.32,354.69,432.87Z"/><path fill="#fff3f3" fill-rule="evenodd" d="M462.88,190.71c-1.08,1.88-.6,5.95-.39,7.93.75,7.1,3.69,13.57,5.86,20.29a90.34,90.34,0,0,0,7.78,16.87c6.47,11.29,12.13,22.39,25.41,26.38,4.29,1.29,9.33,1.1,13.75,1.21a35.52,35.52,0,0,0,6.66-.57c.8-.14,2.09-.66,2.88-.35a27.94,27.94,0,0,1,2.82,1.86c2.57,1.45,5.41,2.35,8.11,3.59,8.28,3.78,15.6,9.16,24.08,12.58,2.76,1.11,7.33,3.72,9.88,1.08,3.31-3.44,3-10,3.83-14.33.52-2.56.68-5.15,1.17-7.7.91-4.73,3-9,1.69-14-1-3.57-3.55-7.11-5.18-10.41-2.16-4.35-4.42-8-6.33-12.48A78.12,78.12,0,0,1,561,212c-.91-3.5,2.76-6.85,3.95-9.93a22,22,0,0,0,1.36-9c-.38-6.62-3-12.43-6.09-18.19a15.14,15.14,0,0,0-3.48-4.83,57.32,57.32,0,0,0-8.13-5.35c-6.07-3.6-7.66-4.58-14.32-6.33-9.23-2.44-19.55-.15-28.62,1.87-5.56,1.24-11.05,2.73-16.1,5.44-3.72,2-6.35,4.69-9.59,7.39-5,4.16-8.74,8.65-13.12,13.29C465.49,187.69,463.89,188.93,462.88,190.71Z"/><path fill="#fff3f3" fill-rule="evenodd" d="M539.92,418.89c-1.11-.39.1,3.37.31,4.05a23.89,23.89,0,0,0,5.53,9c7.58,7.84,12.57,12,23.3,12.82a99.3,99.3,0,0,0,21.11-1.09,140.14,140.14,0,0,0,15.26-3.6c2.87-.83,6.79-1.74,9.49-3,2-.95,4.79-2.82,7.11-2.69,4,.23,3.57,5.29,6.66,6.92,5,2.63,14.29-.2,18.53-3.45,2-1.57,2.85-4.77,4.56-6.68.89-1,3.45-2,4-3.22.92-2-.85-4-.11-6,.58-1.59,1.88-2.62,2.33-4.29.4-1.45-.76-1.88.08-3.3.34-.58,2.46.59,2.74.77,2.41,1.52,3.87-.14,3.54-3.06-.28-2.45-2.21-5.08-2.9-7.43-.58-2-.64-3.53-2.56-4.82a67,67,0,0,0-6.29-3.29c-1.61-.85-3.22-2.26-5.1-2.56-3.66-.59-7.25.68-10.87.33-2.27-.23-4.71-1-7-.42-4.28,1-7.28,7.87-8.12,10.82-.31,1.08-7.66-1.48-10.15-1.69-9.23-.75-17.83-2.59-26.84-4.56-5.16-1.13-13.5-3.69-18.83-2.83-9.07,1.46-14.76,4.76-20.49,11.86a21,21,0,0,0-4.11,7.4C540.91,415.59,539.93,418.89,539.92,418.89Z"/><path fill="#fcaeae" fill-rule="evenodd" d="M336,176c3.58-1,4.14-4.66,9.55-4.42,7.13.3,11,8.35,13.42,11.81,7.89,11.27,9.35,21.44,20.78,31.86a41.18,41.18,0,0,0,13.38,7.7c2.51.91,5.62,1,7.89,2.39,1.44.86,2.6,1.33,2.22,2.87a43.67,43.67,0,0,1-2.77,5.93c-1.73,2.83-3.32,5.52-5.87,7.71-2.22,1.9-8,2.87-10.94,3.53-1.93.42-2.58,1.38-3.4,3.06-2.36,4.85-4.89,8.78-7.26,12.91-1,1.82-1.71,2.49-2.22,4.54-2.06,8.24-2.27,20.41-3,28.86a69.36,69.36,0,0,0,.78,18.74A84.09,84.09,0,0,0,377,337.9a98.81,98.81,0,0,0,5.24,8.64c.21.29,2.19,3.78,2.65,3.78s.56-1.21.71-1.57a16.71,16.71,0,0,1,1.12-2.6,90.61,90.61,0,0,0,5.69-11.73,112.69,112.69,0,0,0,6.86-30.19c.6-6.83.08-11.82-.26-18.6A60.51,60.51,0,0,0,397,273c-1.36-5.11-3.57-14.82-2.76-16.69,1.43-3.28,6-6.45,9-9.41,2.05-2.05,4.12-6.77,4.84-9.65a83.55,83.55,0,0,0,1.46-8.84,50.27,50.27,0,0,0-.58-14.83c-.84-5.43-3.31-10.66-4.77-16-2-7.38-1.56-16.13-4-23.42-3.12-9.35-9-16.17-15.82-23-4.8-4.79-10.59-9.79-17.13-12.24a58.22,58.22,0,0,0-17.21-3.3c-5.86,0-9.1,1.6-14.81,3.25A57.86,57.86,0,0,0,321.59,145a66.68,66.68,0,0,0-17.39,15.15c-5.81,7-10.53,16.77-11.15,25.83-.05.68-3.28,5.39-5.46,11.82-2,5.86-3.27,15.19-3,19.64.12,2-3,4.76-2.13,15.12.66,8.24,6.07,20,10.43,26.55.83,1.25-3.35,12.61-3.48,18.18-.19,8,.12,14.62,2.32,22.37,3.64,12.81,11.84,25.71,18.33,34.69a74.12,74.12,0,0,1,8.73,16.42c.61,1.5,1,3.21,1.55,4.76.23.68.12,2.14.71,2.54s2.22-1.79,2.69-4,3.81-10.75,4.05-14.57c1-16-1.4-29.11-7.63-44-2.91-6.94-6-12.79-8.65-19.36-1.23-3-.7-6.75-3-9.75-7.4-9.58-8.54-17.18-10.88-23.2-1.24-3.18-3.73-4.27-4.59-7.57-.9-3.48,1-10.5,3.12-17.08,3.09-9.65,9.8-17.79,14.3-25.18s7.52-13.61,15.95-16.89C329.92,175.13,332.72,176.85,336,176Z"/><path fill="#fab498" fill-rule="evenodd" d="M475.08,234.81c.19-1.3-.36-1.29-.94-2.51-1.32-2.79-2.42-5.7-3.58-8.55a87.18,87.18,0,0,1-5.74-18.54c-.46-2.67-2.17-9,.6-11.32,1.83-1.5,5.13.38,6.77,1.23,3.81,2,11.84,1.63,15.95,1s5.91-2.49,9.95-3.46c3.06-.74,6.61.12,9.81-.51,5.23-1.05,11.67-2,17.47-4.19,1.2-.45,5,1.51,8.13,1.55s5.63.37,8.74.2c2.46-.13,5-.66,7.43-.81a26.16,26.16,0,0,0,6.53-1.15c4.24-1.56,9.53-3.75,12.48-7.09.68-.77,2.6-2.36,2.53-3.5-.09-1.52-2-2.85-2.59-4.07-1.5-3.09-2.18-5.31-4-8.75-1.91-3.74-6.13-10.73-9-13.88-4.82-5.35-9.28-8.07-15.41-11.93-7.72-4.85-18-7-27-6.55a143.49,143.49,0,0,0-16,1.44c-3.25.51-6.41,2.34-9.11,4.05-15.55,9.85-27.53,23-31.74,35.67-2.38,7.13-4.08,15-3.41,22.4,1,11,3.05,19.65,9,28.84,1.62,2.5,6.15,7.38,8.15,9.48a4.75,4.75,0,0,0,4.32,1.56C474.69,235.32,475,235.11,475.08,234.81Z"/><path fill="#fab498" fill-rule="evenodd" d="M564.06,184.77c-.34,1.47.85,3.63,1.13,5.15a21.39,21.39,0,0,1,.13,6.82,17.07,17.07,0,0,1-.94,4.26c-1.62,4-4.37,6.94-4,11.39.06.79.31,2.81,1.07,3.34.42.29,1.16-1.24,1.3-1.46a40.46,40.46,0,0,0,2.76-4.77,68.94,68.94,0,0,0,6.25-22.38,16.67,16.67,0,0,0-.6-6.56c-.16-.47-.53-1.94-1.14-2-1-.14-2.54,2.76-3.22,3.38C565.8,182.8,564.37,183.43,564.06,184.77Z"/><path fill="#fcf8f5" fill-rule="evenodd" d="M526.34,261.53c1-.15,9.41,5.34,14.88,6,3.95.46,10.31-1.05,13.82,1.24,1.76,1.16,2.3,3.36,3.6,5,1.54,1.94,4.2,2.47,6.3,3.59.73.38,2.91,2.46,3.78,1.77.47-.38.23-2.66.22-3a103.5,103.5,0,0,0-.46-10.36c-1.35-10.9,4.15-23.44,3.15-29-.19-1-5.25-10-6.79-13.91-.35-.91-2.17-4-.11-3.6,5.87,1,12.65,5.82,15.77,10.87,1.25,2,3.86,7.74,5.06,9.79,2,3.38,2.92,2.53,6.36,4.36,2,1,3.87.77,6,1.1a90.63,90.63,0,0,1,9.19,2.13c6.75,1.78,13.87,2.29,20.55,4.45,4.9,1.59,10.55,2.05,15.38,3.83,4,1.48,7,4,11,7.93s8,13.38,10.57,19.59c2.36,5.8,3.09,11.18,3.72,17.3,1.29,12.31.18,27.19,1.72,35.19s2.19,14,3.36,19.66c.71,3.36,1.74,8.74,2.45,10.14s6.13-.43,8.09,1.39c1.6,1.5,1.48,3.73,2.89,6.4,3,5.67,5.33,10.16,4.85,12.22-.62,2.68-3.38.88-5.38,1.08-4.32.44-9.7-.11-14.77,1.61-10.39,3.51-12.65,8.35-15.77,8.33-1.64,0-3.51-1.2-5.05-1.71a24.46,24.46,0,0,0-7.82-1,60.71,60.71,0,0,0-12.85,1c-1.59.33-3.5.39-4.82,1.43s-1.44,2.82-2.09,4.28c-1.14,2.52-.5,4.25-3.16,4.08-8.82-.56-20.89-2.76-29.55-4.7-2.75-.62-9.19-2.31-12-2.84-7.36-1.41-6.47-.68-14.37-1.47-7.21-.71-27.3,15.81-23.31,27.12,1.69,4.77,6.75,11.63,9.35,14.17s6.62,2.79,6.13,5.79c-.32,2-6.85,2.44-8.41,2.3-4.59-.42-9.58-3.87-13.13-6.82-2.09-1.73-8-4.14-10.89-9.81-1.73-3.36-1-9.35-1.57-10.46-2.31-4.65-3.08-6.3-6.79-13.21-4-7.52-7.7-13.54-11.61-21.16-7.18-14-15-30.07-19.14-45.26-2.58-9.36-5.58-20-4.61-29.83s5.28-21.69,12.63-28.3a44.65,44.65,0,0,1,13.6-8.77c2.78-1.07,1.58-6.57,6.29-8.47C516.52,261.37,520.49,262.35,526.34,261.53Z"/><path fill="#fcd5cb" fill-rule="evenodd" d="M499.88,241c.84-1.07,2.38-.49,3.62-.38a13.71,13.71,0,0,1,7.49,3,4.85,4.85,0,0,1,.92,6.7c-3.31,5.43-8.47-2.29-10.08-4.86C501.08,244.29,498.89,242.3,499.88,241Z"/><path fill="#dfeeeb" fill-rule="evenodd" d="M290.3,273.92c-.15-1.93-7.94,1.46-9.27,2-11.6,4.69-19.29,7.44-27.71,17.09-4,4.61-6.73,9.83-10.17,14.81-2.63,3.79-5.85,9.45-8.19,13.45-5.59,9.52-12.82,18.87-18.66,28.25-3.89,6.26-8,12.49-12,18.68-3.37,5.21-6.9,10.42-10.52,15.46-2,2.74-8.62,12.77-10,15.92-3.94,9.19-1,14.52,4.54,22.62,9.28,13.5,20.48,17.56,34.26,21.8,7,2.14,18.87,1.31,25.7-1.3,1.57-.59,2.49-.52,3.65-1.93,3.27-4-5-10.21-4.67-15,.13-1.67,4.14-7.83,4.26-9.6.28-4.07,1.28-2.93.58-6.57-1.28-6.57-.16-9.62,3.39-15.12s6.82-11.48,10.66-16.74c1.79-2.45,3.33-3.85,4.68-6.54.31-.64.39-2.91,1.5-1.51,2.9,3.68,3.28,11,5.1,16s2.47,9.75,4.73,14.45c1.59,3.3,8,3.78,9.78,7.14,1.06,2-.82,6.42-.32,8.6,1.34,5.8-1,5.8.82,7.66,1.27,1.32,7.3,10.65,9.09,11,6,1.34,8-.45,13.95-1.71,3.22-.68,11.43-.94,14.17-.86,5.21.15,10.64,1.31,15.68,2.36,4.81,1,6.74-1,10.14-2.24s6.21-2.68,9.08-3.91c7.92-3.39,14.37-5.69,22.64-9.31,3.6-1.57,8.06-5.24,11.68-6.63,2.23-.86,5.23-1.71,7.49-3.34s4.92-2.31,6.26-4.21c3.76-5.31,2.7-12.34,4.07-19.7.71-3.75.71-7.57,1.38-11.06.06-.33.26-7.39,1.76-6.16.8.66,3.23,6.93,4.29,9.88,1.57,4.35,3.75,8.47,5.15,12.88a63.37,63.37,0,0,1,1.34,6.23c.1.59-2.25,1.1-2.9,1.33-4.64,1.59-5.6,2.32-10.66,4.59a50.77,50.77,0,0,0-7.74,3.95,111.18,111.18,0,0,1-16,9c-7.92,3.88-6.07,3.5-16.12,6.84-7,2.33-20.86,8.62-22.59,9.49-1.41.7,4.21,9.64,5.33,12.62a42.06,42.06,0,0,1,2.62,8.26c.49,3.1-.15,7.71,1.92,8.88,3.77,2.12,9.77-.32,14.26-.86,3.65-.44,10.26-1.4,13.83-2.28,10.22-2.52,23.9-3.19,34.25-5.11A144.37,144.37,0,0,0,461,442.89c8.28-3.69,14.73-6.83,19.24-13.31,4.13-5.93,5.62-10.76,4.58-17.47-1-6.41-.95-8.28-3.55-13.73-6.32-13.23-13.2-24.62-18.05-38.52-.7-2-2.62-4.86-3.27-6.89-3.05-9.5-7.4-17.52-10.91-26.84-2.55-6.79-4.44-12.65-7.6-22.36-1.19-3.64-4-13.18-6.31-16.24-5.8-7.73-6.66-7.61-12-15.65a15.33,15.33,0,0,0-5.45-5.2c-9.23-5.84-13.13-6.7-20.63-10.54-.71-.37-1.77-1.06-2.55-.86-3,.78,2.4,5.71,5,32.92,1.63,17.2-4.73,42.81-12.41,57.45-1.52,2.89-1.33,6.55-2.32,5-22.82-35.45-16.65-57.54-16.35-58.85,2.15-9.22,4.18-29.31,3.5-28.69-1.13,1-5.14,3.69-4.79,4.61,3.14,8.12-2.93,19.53-5.91,23-1.65,1.93-7.32,7.23-10.46,8a36,36,0,0,1-12.69,1.18c-6.94-.51-15-5.43-20.27-10.33-1.73-1.62,8.95,18.57,9.89,33.43,1.31,20.72-5.58,38.76-6.39,33.94-1.54-9.13-19.09-36-20.11-36.62-2.34-1.38-10.61-22-11.3-34.63C289.8,284.2,290.39,275.21,290.3,273.92Z"/><path fill="#fff" fill-rule="evenodd" d="M272.13,468.76c1.35-.77,1.32-5.43,1.75-6.92,1.4-4.86,2.54-10,3.94-14.71.26-.87,2.36-1.91,3-2.57,2.61-2.79,3.75-5.52,5.75-8.62.4-.62,1.15-2.58,2-2.72,2.59-.46,6.89,2,9.39,2.63,1,.25,2.77.88,3.78.46.47-.2-.21-1-.43-1.31-.8-1.09-2.44-2.7-.51-3.62,3.4-1.6,7.92-1.05,11.54-1.31,5.47-.39,10.77-1.84,16.19-2.6,7.2-1,14.26-1.91,21.49-2.54,2.79-.25,7.29-.34,8.75,2.75,1,2.21-2.08,2.49-3.6,3.21s-1.94,1.81-2.8,2.81c-1.16,1.34-4.12,2.32-5.72,2.79-17.08,5.1-35.29,6.36-52,12.91-3,1.16-6.34,2.63-8.72,4.85-2.7,2.5-4.31,7.94-5.53,11.35-.81,2.27-1.49,4.73-2.18,7.06-.16.54-.11,1.35-.48,1.8-.53.65-1.66.06-2.27-.13-2.32-.69-7.14-1-4.49-4.09C271.24,469.81,271.65,469,272.13,468.76Z"/><path fill="#fff" fill-rule="evenodd" d="M330.16,468.88c3.91-1,7.54-4.07,11.29-5.69,3.91-1.69,7.95-1.95,12.1-2.64,2.72-.46,5.46-1.15,8.22-1.38,2.4-.21,1.63,1.67,3.56,2.63s4.37.43,6.32.16c2.87-.42,5.74-1,8.64-1.26,1.69-.13,3.25-.18,4.38,1.22.49.61,2,2,1.87,2.85-.06.49-1.56.18-1.79.15a56.89,56.89,0,0,0-6.53-.33c-4.72,0-10.77,1.83-15.39,2.8a115.17,115.17,0,0,1-22.36,2.9c-2.25,0-7.12.9-8.65-1.45Z"/><path fill="#fff" fill-rule="evenodd" d="M205.42,437.93c-2.33.6-4.08,4.38-5.84,6.15-5.35,5.38-10.31,11.17-16.3,15.89-3.69,2.93-6.81,7-10.76,9.51-.47.3-3.57,2.41-3.22,3s3.31.59,4,.71a56.47,56.47,0,0,0,13.05.87c7.76-.48,15.6-1,23.29-2,9.84-1.21,20.43-1.65,30.3-2.55a75.46,75.46,0,0,1,22.3,1.21c2.68.59,4.19.38,6.9.74,1,.13,3.14.62,4.12,0,.78-.46.07-2.81.07-3.5,0-3.31,1.46-7.24,2.64-10.26,1.1-2.8,1.62-5.79,2.5-8.64a15.86,15.86,0,0,1,1-2.84c.27-.5,1.32-1.23.82-1.5-.78-.42-2.9,1.36-3.46,1.66a18.65,18.65,0,0,1-8.3,2.05c-1.79,0-5.36.86-6.6-.64-.61-.73-.92-2.69-1.72-3.12s-2.18-.3-3.19-.64-2.17-1.55-3.2-1.73c-1.41-.25-3.19.46-4.53.71a90.56,90.56,0,0,1-10.14.95c-5.11.36-10.21,1.31-15.29.11a117,117,0,0,1-13.61-4.33C208.9,439.27,206.77,437.58,205.42,437.93Z"/><path fill="#fff" fill-rule="evenodd" d="M532.26,436.34c-2.81,1.29-3.25,4.68-4.71,7.4-.28.52-1.95,3-1.38,3.45a60.75,60.75,0,0,0,10,5.46c4.55,2.14,8.78,4.74,13.35,7,3.41,1.66,7.63,3.6,11,5.18,2.83,1.32,5.91,3.53,9,4.22,1.17.26,2.5-.47,3.47-1l7.55-4a71.33,71.33,0,0,1,21.09-7.23c5-.84,11-1.58,16.1-1.08a131.92,131.92,0,0,1,13.86,1.77c5.68,1.18,13.8,4.79,19.57,3.27a46.7,46.7,0,0,0,9.74-3.63c12.44-6.12,12.09-13.93,37.25-20.32,11.47-2.91,22.95-2.05,34.49-1.55,4.07.18,7.74,1.78,11.69,2.44.45.08,2.75.6,2.93-.35.45-2.37-3.74-4.88-5-6.5-.76-1-1.5-3.2-2.69-3.76-.76-.36-2.58.89-3.18,1.17a5.22,5.22,0,0,1-4.37.25c-1.8-.55-4.44-1.53-5.62-3.07-.49-.64-.68-1.92-1.29-2.43s-1.68-.47-2.28-1c-.91-.87-.43-2.19-1-2.78-.69-.76-2.08-1.1-2.86-2.12-.41-.54.26-1.91-.12-2.18s-2.09-.26-2.68-.48c-.88-.34-1.74-2.37-1.72-3.24.05-2.82,6.58-3.08,4.88-4.5-5.54-4.63-10.62-9.58-16.62-13.67-3.17-2.16-6-5.44-9.74-6.59-3-.92-9-.38-12,.05-8.19,1.15-13.68,2.42-20.83,6.86-.61.38-2.27,1.73-2.86,2.14-4.7,3.26,3.4,5.31,4.7,8.48,1,2.44,1.85,5.49,2.63,8.1a3,3,0,0,1-.56,3.06c-.88,1.1-5.15.53-2.51,4,3,3.92,4.11,6.43,6.28,10.94.4.83,2,2.39,1.15,3.13s-3.4-1.24-4.28-1.54c-4.17-1.46-4-1.09-6.92-3.07-1-.67-1.34-1.05-3.22.85a29.05,29.05,0,0,1-3.52,3.28c-2,1.57-3.16,4.26-4.79,6.14s-4.28,2.63-6.42,3.24c-2.82.82-6.64,1.36-9.3-.24-3.49-2.1-3.94-7.38-9.21-6.85-3.08.32-6,1.86-8.92,2.62-11.11,2.93-22.35,6-33.82,7a57.92,57.92,0,0,1-16.77-1.07,43.7,43.7,0,0,0-5-.93c-1.6-.16-3.76,1.82-5.2,2.25a12.2,12.2,0,0,1-5.54,0c-2.72-.62-5.8-2.93-8.1-4.56C536.1,438.93,534.34,435.39,532.26,436.34Z"/><path fill="#c5c4ca" fill-rule="evenodd" d="M656.35,427.73c.88,1.48,3.24,1.73,4.81,2.39,1.73.74,3.4,1.57,5.18,2.18.53.19,1.63.94,2.19.61.4-.23-.09-.85-.21-1.1-.53-1.2-.9-2.46-1.42-3.68-1.57-3.62-3.47-7.69-6.27-10.54-.72-.74-1.71-2.1-2.76-2.37-1.36-.36-.33,3.17-.4,4-.15,1.67-2.56,2.29-2.75,3.56-.09.61.95,1.25,1.23,1.7C656.48,425.37,655.85,426.89,656.35,427.73Z"/><path fill="#c5c4ca" fill-rule="evenodd" d="M647,403.07c0,.74-2.42-.32-3.3-.49a90.78,90.78,0,0,0-10-1.48c-4.72-.39-7.53-3.63-10.84-6.78-2.58-2.46-5.3-4.67-7.86-7.16-3.36-3.28-6.43-7-10-10a96.45,96.45,0,0,1-7.64-6.93c-1.06-1.11-2.34-2.15-2.89-3.63-1.38-3.68,1.59-5.64,4.7-4.2,5.16,2.4,9.58,6.76,13.72,10.56s8.54,7,12.68,10.68c4.87,4.29,10,8.26,14.87,12.51C642.62,398.06,646.8,400,647,403.07Z"/><path fill="#c5c4ca" fill-rule="evenodd" d="M286.27,427.94c0,.56.9,1.16,1.23,1.67.48.76.45,1.91,1,2.56a8,8,0,0,0,1.89.83c2,.92,4.14,1.7,6.22,2.47a22.58,22.58,0,0,0,3.78,1.15s1,.21,1.09,0c.18-.61-.7-1.63-.95-2-1.19-1.88-2.53-3.55-3.89-5.31-1.63-2.11-3-4.42-4.71-6.48-.38-.45-1.38-1.53-2-.91-.85.81-.74,2.71-1.51,3.75C287.82,426.46,286.32,426.93,286.27,427.94Z"/><path fill="#c5c4ca" fill-rule="evenodd" d="M275.24,408.56c-1.12,1.62-4.44-.1-6.47-.16-2.41-.06-5.37.26-7.64-.72-4.24-1.83-8.15-5.38-11.82-8.14-5.49-4.12-11.05-8.13-16.44-12.39-3.5-2.77-7.41-5.92-9.84-9.72-.74-1.16-2.17-3.57-1.2-5.06,1.15-1.75,4,.22,5.25,1a154.37,154.37,0,0,1,14,10c4.49,3.55,9.07,6.83,13.74,10.14,4.95,3.5,9.8,7.22,14.87,10.55C271.09,405,276.27,407.06,275.24,408.56Z"/><path fill="#723f3b" d="M512.18,264.61c-6.39,0-13.14-1.36-18.82-5-6.79-4.36-11.42-11.08-15.41-17.69a135.75,135.75,0,0,1-15.42-36.17,1.33,1.33,0,0,1,2.58-.65,133.22,133.22,0,0,0,15.12,35.45c3.82,6.33,8.23,12.76,14.57,16.83,9,5.79,21.11,5.3,29.4,2.9a46.67,46.67,0,0,0,7.73-3.3c.82-.41,1.65-.82,2.47-1.21,6.64-3.16,10.87-6.49,14.14-11.12,5.09-7.2,6.34-16,7.55-24.51.23-1.65.47-3.3.73-4.94a1.33,1.33,0,1,1,2.62.42c-.25,1.62-.49,3.26-.72,4.9-1.25,8.82-2.55,17.94-8,25.66-3.51,5-8.19,8.67-15.17,12l-2.43,1.19a49.53,49.53,0,0,1-8.18,3.48A46.79,46.79,0,0,1,512.18,264.61Z"/><path fill="#723f3b" d="M545.62,198.75a1.32,1.32,0,0,1-1.33-1.33c0-.58,0-1.15,0-1.72a12.15,12.15,0,0,1,.91-6.44,1.32,1.32,0,0,1,1.78-.6,1.34,1.34,0,0,1,.59,1.79c-.79,1.58-.72,3.22-.63,5.13,0,.61.06,1.22.06,1.84A1.33,1.33,0,0,1,545.62,198.75Z"/><path fill="#723f3b" d="M556.05,213.79a1.33,1.33,0,1,1,0-2.65c.82,0,2.59-.77,5.16-5.92,2.71-5.41,4.84-13.79,1.94-19.58a1.33,1.33,0,1,1,2.38-1.19c3.33,6.66,1.18,15.71-1.95,22C562,209.58,559.5,213.79,556.05,213.79Z"/><path fill="#723f3b" d="M477.92,219.28a2.34,2.34,0,0,1-2-1.18,3,3,0,0,1-.41-1,2.66,2.66,0,0,1-.05-.75,3.38,3.38,0,0,1,.11-.57A2.37,2.37,0,0,1,476,215a2.12,2.12,0,0,1,2.57-.74,2.7,2.7,0,0,1,.31,4.84A2.12,2.12,0,0,1,477.92,219.28Zm-.3-2.57,0,0a.6.6,0,0,0,.34-.12.57.57,0,0,0-.31,0A.15.15,0,0,0,477.62,216.71Z"/><path fill="#723f3b" d="M514.34,203.13a2.35,2.35,0,0,1-1.27-.4,3.42,3.42,0,0,1-1.39-3.06,2.1,2.1,0,0,1,1.39-1.79l.27-.08a2.54,2.54,0,0,1,3,1.28,2.71,2.71,0,0,1,0,3.12,2.06,2.06,0,0,1-1.1.73A2.18,2.18,0,0,1,514.34,203.13Z"/><path fill="#723f3b" d="M499.17,232.71h-.1a4.72,4.72,0,0,1-2-.67l-.31-.16a7.22,7.22,0,0,1-3.24-2.63,5.11,5.11,0,0,1-.29-3c0-.24.05-.47.05-.67a17.76,17.76,0,0,0-.28-4,29.66,29.66,0,0,0-3.32-8.73,1.33,1.33,0,1,1,2.34-1.26,32,32,0,0,1,3.59,9.49,20.47,20.47,0,0,1,.33,4.55c0,.26,0,.57-.07.89a4,4,0,0,0,0,1.46A5.11,5.11,0,0,0,498,229.5l.34.18a2.79,2.79,0,0,0,.92.37,1.33,1.33,0,0,1-.09,2.66Z"/><path fill="#723f3b" d="M509.46,253.25a7.57,7.57,0,0,1-4.71-2.21,13,13,0,0,1-2.43-3,18.39,18.39,0,0,0-1.47-1.9,10.91,10.91,0,0,1-2.6-4.27h0a1.7,1.7,0,0,1,.43-1.64c1.2-1.25,5-.66,7.11-.2a11.17,11.17,0,0,1,8.06,6.94,4.81,4.81,0,0,1-.53,4.05,4.57,4.57,0,0,1-3.23,2.14A4.46,4.46,0,0,1,509.46,253.25Zm-8.26-11.07a13.36,13.36,0,0,0,1.68,2.29,20.82,20.82,0,0,1,1.69,2.19,10.31,10.31,0,0,0,1.9,2.36c1,.85,2.19,1.7,3.26,1.55a1.92,1.92,0,0,0,1.34-.92,2.17,2.17,0,0,0,.25-1.81,8.64,8.64,0,0,0-6.1-5.17A23.49,23.49,0,0,0,501.2,242.18Z"/><path fill="#723f3b" d="M468.81,207.15l-.24,0a1.33,1.33,0,0,1-1.07-1.54,19.63,19.63,0,0,1,5.23-10,1.33,1.33,0,1,1,1.91,1.85,17,17,0,0,0-4.52,8.61A1.34,1.34,0,0,1,468.81,207.15Z"/><path fill="#723f3b" d="M572.19,239.05a1.34,1.34,0,0,1-1.12-.6,81.14,81.14,0,0,1-8.74-18.89c-.18-.54-.39-1.1-.61-1.66a16.11,16.11,0,0,1-1.19-4,1.34,1.34,0,0,1,1.18-1.47,1.32,1.32,0,0,1,1.47,1.17,14.11,14.11,0,0,0,1,3.37c.24.61.48,1.22.67,1.81A78.08,78.08,0,0,0,573.3,237a1.33,1.33,0,0,1-.39,1.84A1.34,1.34,0,0,1,572.19,239.05Z"/><path fill="#723f3b" d="M586.28,312.88a1.32,1.32,0,0,1-.92-.37c-1.86-1.78-2.67-4.08-3.45-6.31a21,21,0,0,0-1.43-3.46,76.16,76.16,0,0,1-5.17-11.67,19.29,19.29,0,0,1-.79-3.46,11,11,0,0,0-1.29-4.34,4.28,4.28,0,0,0-1.81-1c-.28-.11-.54-.21-.78-.32l-3.1-1.37c-2.08-.91-4.23-1.85-6.28-2.86a8.42,8.42,0,0,1-3.85-4.44c-.67-1.35-1.19-2.41-2.4-3-1.77-.79-4-.7-6.26-.6a22.24,22.24,0,0,1-5.41-.2A57.21,57.21,0,0,1,533,266.06c-1.57-.63-3.19-1.29-4.86-1.87a1.33,1.33,0,0,1,.89-2.51c1.71.61,3.37,1.27,5,1.92a55,55,0,0,0,9.88,3.28,20.24,20.24,0,0,0,4.78.14c2.51-.1,5.12-.22,7.47.84,2.07.93,2.93,2.67,3.68,4.21.68,1.37,1.27,2.56,2.63,3.22,2,1,4.13,1.92,6.19,2.82,1,.46,2.09.91,3.12,1.38l.66.27a6.19,6.19,0,0,1,3,2,13,13,0,0,1,1.72,5.41,17.18,17.18,0,0,0,.67,3,72.75,72.75,0,0,0,5,11.26,23,23,0,0,1,1.62,3.89c.71,2,1.38,3.92,2.78,5.26a1.33,1.33,0,0,1-.92,2.29Z"/><path fill="#723f3b" d="M601.33,355.72a1.33,1.33,0,0,1-1.3-1c-1-4.38-2.29-8.81-3.55-13.09s-2.6-8.78-3.6-13.24a1.33,1.33,0,1,1,2.59-.58c1,4.37,2.29,8.79,3.55,13.07s2.61,8.79,3.6,13.26a1.33,1.33,0,0,1-1,1.59Z"/><path fill="#723f3b" d="M549.89,300.88c-1.22,0-2.79-1.05-4.22-2l-.31-.2c-2.86-1.71-4.6-4.3-6.28-6.81a26.36,26.36,0,0,0-3.47-4.49A27.15,27.15,0,0,0,528.9,283c-1.11-.57-2.25-1.16-3.37-1.83a51.13,51.13,0,0,1-12.72-10,1.33,1.33,0,1,1,2-1.77,49.07,49.07,0,0,0,12.1,9.46c1.05.62,2.16,1.2,3.23,1.75a22.93,22.93,0,0,1,11.17,9.75c1.58,2.37,3.08,4.61,5.42,6l.44.29c.54.36,1,.64,1.34.86-.38-1.3-.72-2.5-1-3.75a22.56,22.56,0,0,1,2.67-15.93c1.43-2.48,3.84-4.82,6.33-4a1.34,1.34,0,0,1,.83,1.69,1.33,1.33,0,0,1-1.68.83c-.8-.27-2.27,1.24-3.18,2.8a20,20,0,0,0-2.36,14.1c.25,1.28.61,2.54,1,4l.07.19a3,3,0,0,1,0,2.82A1.57,1.57,0,0,1,549.89,300.88Z"/><path fill="#723f3b" d="M568.44,280.32a1.23,1.23,0,0,1-.42-.07,1.31,1.31,0,0,1-.83-1.68c1.23-3.66.84-7.57.43-11.71-.19-1.94-.39-3.94-.4-5.89a50,50,0,0,1,1.34-10.08c.19-.91.38-1.83.55-2.74.22-1.21.51-2.44.8-3.69,1.1-4.7,2.15-9.14.06-13.35a1.34,1.34,0,0,1,.6-1.78,1.32,1.32,0,0,1,1.78.6c2.51,5.07,1.31,10.19.15,15.14-.28,1.2-.56,2.39-.78,3.57-.17.92-.36,1.85-.55,2.79a47.26,47.26,0,0,0-1.29,9.52c0,1.83.19,3.68.39,5.65.42,4.23.85,8.62-.57,12.82A1.32,1.32,0,0,1,568.44,280.32Z"/><path fill="#723f3b" d="M571.31,272.34a1.23,1.23,0,0,1-.42-.07,1.33,1.33,0,0,1-.84-1.68,10.81,10.81,0,0,0,.15-3.74c-.17-3-.39-6.76,3.23-8.36a4.21,4.21,0,0,1,3.78.69,19.69,19.69,0,0,1,1.89,1.68,6.45,6.45,0,0,0,3.39,2.13c5,1.17,11.55-1.16,16.81-3,1-.36,2-.71,2.9-1,.51-.18,1.06-.33,1.61-.49a11.85,11.85,0,0,0,3.92-1.61l-.09,0-.59-.18a44.67,44.67,0,0,1-5.18-2.35,34.23,34.23,0,0,1-5-3.62c-1.1-.9-2.13-1.75-3.26-2.51a17.12,17.12,0,0,0-2-1.12,20.1,20.1,0,0,1-2.11-1.15c-3.84-2.46-5.75-6.42-7.59-10.25A31.08,31.08,0,0,0,578,229c-1.67-2-4-3.35-6.5-4.77a42.81,42.81,0,0,1-4.43-2.8,1.33,1.33,0,0,1,1.61-2.12,37.74,37.74,0,0,0,4.15,2.61c2.57,1.48,5.23,3,7.21,5.37a34,34,0,0,1,4.2,7.17c1.75,3.65,3.42,7.11,6.63,9.17a18.91,18.91,0,0,0,1.85,1,18.82,18.82,0,0,1,2.34,1.29c1.23.84,2.36,1.77,3.46,2.67a30.78,30.78,0,0,0,4.61,3.34,42,42,0,0,0,4.9,2.22l.28.07c1.75.47,2.49.74,2.81,1.49a1.45,1.45,0,0,1-.06,1.22c-1.43,2.59-4.14,3.36-6.54,4-.51.14-1,.29-1.49.45-.91.3-1.87.64-2.86,1-5.58,2-12.53,4.46-18.31,3.11a9,9,0,0,1-4.64-2.82,17.11,17.11,0,0,0-1.64-1.46,2.1,2.1,0,0,0-1.12-.37c-1.78.79-1.8,2.71-1.62,5.77a13,13,0,0,1-.29,4.74A1.33,1.33,0,0,1,571.31,272.34Zm37.79-15h0Z"/><path fill="#723f3b" d="M481.66,197.83a32.22,32.22,0,0,1-19.42-6.59,1.33,1.33,0,0,1,1.59-2.14c9.57,7.14,21.44,8,32.58,2.4a1.33,1.33,0,1,1,1.2,2.37A35.33,35.33,0,0,1,481.66,197.83Z"/><path fill="#723f3b" d="M502.07,193.63a41.72,41.72,0,0,1-21-5.55,45.58,45.58,0,0,1-8.69-6.11A9.05,9.05,0,0,0,471,180.8a2.17,2.17,0,0,1-.91-1.12,1.38,1.38,0,0,1,.56-1.84,1.27,1.27,0,0,1,1.75.53l.06.12.07.13a13.45,13.45,0,0,1,1.7,1.4,43.07,43.07,0,0,0,8.19,5.75c10.12,5.74,21.35,6.71,34.33,3a72.11,72.11,0,0,0,12.82-4.66c.15-.08.38-.17.66-.29s.57-.24.95-.42l-.13,0c-2.15-.71-4.22-1.46-5.78-2-8-2.93-15.37-8-20.91-12.17a1.33,1.33,0,1,1,1.59-2.13c5.39,4,12.56,9,20.23,11.8,1.55.57,3.59,1.31,5.71,2l.39.09c.9.18,2.25.46,2.52,1.67.45,2-2,3.05-3.55,3.67l-.48.21a76.19,76.19,0,0,1-13.28,4.85A55.51,55.51,0,0,1,502.07,193.63Z"/><path fill="#723f3b" d="M538.2,191.18a38.8,38.8,0,0,1-8.41-1l-1-.18a11.49,11.49,0,0,1-4.39-1.38,1.33,1.33,0,0,1,1.54-2.16,11,11,0,0,0,3.31.92l1.08.2a35.45,35.45,0,0,0,9.62.85c10.37-.52,23.14-2.34,29.94-11.86a1.33,1.33,0,1,1,2.16,1.54c-7.46,10.45-21,12.42-32,13C539.47,191.16,538.84,191.18,538.2,191.18Z"/><path fill="#723f3b" d="M474.14,237.21a1.29,1.29,0,0,1-.51-.1c-3.38-1.42-5.95-4.5-8.22-7.22-.72-.86-1.42-1.7-2.11-2.45-3.6-3.88-5.47-8.43-6.95-12.77-4.53-13.21-5.45-24.18-2.92-34.51,1.6-6.56,3.94-11.62,6.93-15a1.33,1.33,0,1,1,2,1.75c-2.67,3.06-4.87,7.87-6.35,13.92-2.44,10-1.56,20.14,2.85,33,1.39,4.06,3.13,8.31,6.39,11.82.72.78,1.45,1.66,2.2,2.55,2.18,2.61,4.43,5.31,7.2,6.48a1.32,1.32,0,0,1-.51,2.55Z"/><path fill="#723f3b" d="M571.51,178.35a1.33,1.33,0,0,1-1.19-.73,2.23,2.23,0,0,0-.38-.38,6.37,6.37,0,0,1-.59-.57,16.21,16.21,0,0,1-2.46-4.79c-.32-.84-.62-1.64-.95-2.31a109.68,109.68,0,0,0-7-11.79c-.38-.56-.76-1.15-1.13-1.73a36.12,36.12,0,0,0-4.46-6l-.36-.36C548.3,145,534,130.55,504.8,133.85c-22.11,2.49-37.49,23.16-37.92,25.48a1.3,1.3,0,0,1-1.33,1.29,1.36,1.36,0,0,1-1.33-1.37c0-3.65,17.7-25.5,40.29-28,30.4-3.43,45.45,11.67,50.4,16.64l.35.35a38.06,38.06,0,0,1,4.81,6.41l1.11,1.7a110.51,110.51,0,0,1,7.13,12.07c.4.79.74,1.69,1.07,2.55a14.17,14.17,0,0,0,2,4,2.41,2.41,0,0,0,.33.3,4.06,4.06,0,0,1,1,1.19,1.32,1.32,0,0,1-.6,1.78A1.25,1.25,0,0,1,571.51,178.35Z"/><path fill="#723f3b" d="M522.77,419.35a1.34,1.34,0,0,1-.81-.27c-2-1.57-3.18-4.28-4.19-6.68-.37-.87-.72-1.7-1.08-2.39-1.09-2.11-2.17-4.23-3.26-6.35-2.35-4.62-4.79-9.39-7.31-14-5.61-10.28-12.74-23.94-18.09-38.49-5.64-15.35-10.18-29.36-8.51-45.25,1.14-10.79,6-21,12.9-27.23a34.49,34.49,0,0,1,6.15-4.21c.62-.37,1.25-.73,1.88-1.12,3.35-2,6.1-3.17,8.42-3.47a1.33,1.33,0,1,1,.34,2.63,20.33,20.33,0,0,0-7.37,3.11l-1.94,1.14a32.78,32.78,0,0,0-5.7,3.89c-6.47,5.84-11,15.38-12,25.53-1.62,15.33,2.83,29,8.36,44.06,5.29,14.39,12.36,27.94,17.93,38.14,2.53,4.64,5,9.43,7.34,14.06q1.62,3.18,3.25,6.33c.41.79.78,1.67,1.17,2.59.88,2.09,1.88,4.46,3.36,5.6a1.34,1.34,0,0,1,.24,1.87A1.32,1.32,0,0,1,522.77,419.35Z"/><path fill="#723f3b" d="M562.6,380.91a1.3,1.3,0,0,1-1.14-.65c-4.74-8-8.18-16.81-11.5-25.37q-.86-2.2-1.72-4.4c-.63-1.59-1.2-3.33-1.76-5a48.25,48.25,0,0,0-3.81-9.39,1.33,1.33,0,0,1,2.28-1.36,50.76,50.76,0,0,1,4.06,9.91c.57,1.73,1.1,3.35,1.7,4.88s1.15,2.93,1.72,4.41c3.29,8.46,6.69,17.21,11.31,25a1.34,1.34,0,0,1-.46,1.83A1.41,1.41,0,0,1,562.6,380.91Z"/><path fill="#723f3b" d="M550.05,446.27c-4.84,0-8.63-2.16-11.74-4.34l-2.54-1.78c-.16-.12-.34-.24-.51-.38l-.11-.08h0a3.34,3.34,0,0,1-.33-.32c-.69-.48-1.43-1-2.19-1.46-3.08-2-6.57-4.28-8.66-7.21-1.91-2.69-2.08-5.68-2.23-8.57,0-.72-.08-1.44-.15-2.16-.54-5.71-.66-12.29,2.55-17.82a1.32,1.32,0,1,1,2.29,1.33c-2.82,4.87-2.72,10.68-2.19,16.24.07.75.11,1.51.15,2.26.14,2.63.28,5.11,1.75,7.18,1.79,2.52,5.06,4.65,7.94,6.53,1,.64,1.93,1.26,2.8,1.87s1.73,1.22,2.23,1.62l.15.11h0a2.86,2.86,0,0,1,.31.27l.27.19c4.41,3.09,7.79,4.19,11.67,3.78,1.92-.19,3.34-.8,3.82-1.62a1.33,1.33,0,1,1,2.3,1.33c-1.25,2.16-4.2,2.77-5.85,2.94A17,17,0,0,1,550.05,446.27Z"/><path fill="#723f3b" d="M528.29,399.58a1.31,1.31,0,0,1-.92-.38,1.33,1.33,0,0,1,0-1.88c1.11-1.15,2.22-2.37,3.34-3.61,3.46-3.84,7-7.81,11.57-10.31,3.4-1.88,6.89-2.14,10.26-2.4.89-.06,1.79-.13,2.7-.23a35.53,35.53,0,0,0,3.77-.72c4.11-.94,9.23-2.1,12.59,1.26a20.55,20.55,0,0,1,3.06,4.51,9.66,9.66,0,0,1,.78,3.91c0,.32,0,.65.06,1a5.16,5.16,0,0,0,.3,1,4.58,4.58,0,0,1,.42,2.5,1.33,1.33,0,0,1-2.6-.54,4.69,4.69,0,0,0-.31-1,6.47,6.47,0,0,1-.46-1.69c0-.36-.05-.71-.07-1.07a7.15,7.15,0,0,0-.51-2.86,17.7,17.7,0,0,0-2.55-3.81c-2.33-2.33-6.29-1.42-10.12-.55a37.16,37.16,0,0,1-4.08.78c-.94.1-1.87.17-2.79.23-3.22.25-6.27.47-9.16,2.07-4.15,2.29-7.57,6.09-10.89,9.77-1.14,1.26-2.27,2.51-3.4,3.69A1.36,1.36,0,0,1,528.29,399.58Z"/><path fill="#723f3b" d="M574.9,446c-5.19,0-12.2-.46-18.3-3.29-5.16-2.38-9.93-7.83-13.07-11.72a33.13,33.13,0,0,1-3.63-5.69,1.33,1.33,0,0,1,2.39-1.18,30,30,0,0,0,3.31,5.2c3,3.68,7.46,8.83,12.12,11,6.19,2.87,13.58,3.1,18.6,3,14.47-.22,28.66-4.91,42.37-9.44l1.91-.63a1.33,1.33,0,1,1,.84,2.52l-1.91.63c-13.91,4.6-28.29,9.35-43.17,9.57Z"/><path fill="#723f3b" d="M540.26,420.58a1.33,1.33,0,0,1-1.23-.82c-.78-1.87-.08-4.48,2.15-8a56.11,56.11,0,0,1,11-12.39c9.07-7.9,21-5,31.52-2.47,1.89.46,3.74.91,5.52,1.28,2,.4,3.89.85,5.83,1.29,1.71.39,3.43.78,5.15,1.14,3,.63,6.12,1,9.17,1.33a82.15,82.15,0,0,1,11.1,1.76,1.33,1.33,0,0,1-.65,2.57,81,81,0,0,0-10.75-1.69c-3.11-.35-6.33-.71-9.43-1.36-1.73-.37-3.45-.77-5.18-1.16-1.92-.44-3.84-.88-5.78-1.28s-3.68-.83-5.61-1.3c-9.89-2.4-21.11-5.11-29.14,1.89a53.75,53.75,0,0,0-10.53,11.83c-2.31,3.61-2.13,5-1.94,5.49a1.34,1.34,0,0,1-1.22,1.85Z"/><path fill="#723f3b" d="M619.1,426.85a1.33,1.33,0,0,1-1.3-1.08,4.94,4.94,0,0,0-1.11-1.93,9.92,9.92,0,0,1-1.29-2,10.44,10.44,0,0,1-.55-4.45c.14-2.42,1.55-3.92,2.79-5.25a10.59,10.59,0,0,0,1.72-2.16,13,13,0,0,0,1.13-4.53,18.4,18.4,0,0,1,1-4.47,6,6,0,0,1,1.61-2.16,3.84,3.84,0,0,0,.88-1,1.33,1.33,0,1,1,2.39,1.15,6.08,6.08,0,0,1-1.43,1.8,3.49,3.49,0,0,0-1,1.21,15.78,15.78,0,0,0-.81,3.84,15.3,15.3,0,0,1-1.42,5.43,12.84,12.84,0,0,1-2.13,2.74c-1.11,1.19-2,2.13-2.07,3.58a8,8,0,0,0,.32,3.23,7.46,7.46,0,0,0,1,1.46,7.15,7.15,0,0,1,1.62,3,1.33,1.33,0,0,1-1,1.56A1.09,1.09,0,0,1,619.1,426.85Z"/><path fill="#723f3b" d="M637.8,437.33c-1.61,0-3.21-.08-4.8-.16l-.3,0c-.81,0-1.59,0-2.36-.06-3.08,0-6.28-.09-9.45-2.22-1.47-1-2.19-2.9-2.76-4.44-.15-.38-.28-.74-.42-1.06a1.33,1.33,0,0,1,2.43-1.07c.16.36.31.77.47,1.2.45,1.18,1,2.65,1.77,3.17,2.51,1.69,5,1.72,8,1.76.8,0,1.62,0,2.46.07h.3c5.07.26,9.86.51,14.18-1.8l.34-.18c2.46-1.32,6.58-3.52,7.11-6A3.11,3.11,0,0,0,654,424a1.33,1.33,0,1,1,2.1-1.63,5.65,5.65,0,0,1,1.28,4.77c-.78,3.67-5.4,6.14-8.45,7.77l-.33.18A22.2,22.2,0,0,1,637.8,437.33Z"/><path fill="#723f3b" d="M641.13,427.88c-.77,0-1.54,0-2.29-.08s-1.24-.06-1.84-.07l-1.72,0a74.23,74.23,0,0,1-9-.42,1.33,1.33,0,0,1,.34-2.64,74.39,74.39,0,0,0,8.65.41H637c.63,0,1.28,0,1.93.08a20.68,20.68,0,0,0,4.1-.06,30.32,30.32,0,0,0,5.7-1.74l2.08-.77c2.42-.84,5.19-2.36,5.8-3.62a1.49,1.49,0,0,0-.23-1.14,3.19,3.19,0,0,0-1.74-1.56,1.33,1.33,0,0,1-1.15-1.49,1.32,1.32,0,0,1,1.49-1.14,5.54,5.54,0,0,1,3.73,2.93,3.85,3.85,0,0,1,.29,3.56c-1.33,2.77-6.33,4.63-7.32,5l-2,.75a31.61,31.61,0,0,1-6.23,1.87A14.3,14.3,0,0,1,641.13,427.88Z"/><path fill="#723f3b" d="M644.59,416.21a135.17,135.17,0,0,1-17.53-1.46,1.33,1.33,0,0,1,.34-2.64c7.44,1,15.87,2,24.5,1l1-.1a7,7,0,0,0,3.76-1,2,2,0,0,0,.44-.48c-1-1.59-2.87-2.6-4.7-3.57l-.47-.25a46.16,46.16,0,0,0-13.33-4.54,28.33,28.33,0,0,0-4.26-.31,21.58,21.58,0,0,1-6.5-.79,1.33,1.33,0,0,1,.85-2.52,19.77,19.77,0,0,0,5.71.66,28.16,28.16,0,0,1,4.69.35,48.81,48.81,0,0,1,14.09,4.81l.46.24c2.17,1.15,4.63,2.45,5.94,4.9.68,1.27-.16,2.72-1.29,3.6a9.37,9.37,0,0,1-5.14,1.59l-.91.09A65.74,65.74,0,0,1,644.59,416.21Z"/><path fill="#723f3b" d="M632.75,443.64a7.75,7.75,0,0,1-7.56-5c-.08-.16-.19-.35-.3-.55a5.37,5.37,0,0,1-.83-2.35,1.32,1.32,0,0,1,1.29-1.37,1.27,1.27,0,0,1,1.36,1.29,4.37,4.37,0,0,0,.51,1.15c.15.26.29.52.39.74,1.25,2.78,3.19,3.77,6.49,3.33,6.25-.83,12.4-2.41,15.1-8.24a1.33,1.33,0,0,1,2.41,1.12c-3.24,7-10.49,8.86-17.16,9.75A12.59,12.59,0,0,1,632.75,443.64Z"/><path fill="#723f3b" d="M662.46,417.15a11.18,11.18,0,0,1-5.13-1.77,1.33,1.33,0,1,1,1.47-2.21c1.31.86,3.42,1.59,4.19,1.23.07,0,.26-.12.32-.67a8,8,0,0,0-1.13-3.49,16.22,16.22,0,0,1-1.07-2.6,16.9,16.9,0,0,1-.36-1.94,6.75,6.75,0,0,0-.89-3,9.06,9.06,0,0,0-2.71-1.92c-.54-.3-1-.59-1.49-.88-.71-.48-1.42-1-2.15-1.58a17.5,17.5,0,0,0-4.39-2.76c-1.5-.53-3.69-.36-5.61-.2l-1.44.11a20.09,20.09,0,0,1-2.21-.05,17.49,17.49,0,0,0-1.89-.05,1.35,1.35,0,0,1-1.41-1.25,1.32,1.32,0,0,1,1.26-1.4,17.93,17.93,0,0,1,2.21,0,13.49,13.49,0,0,0,1.89,0c.43,0,.89-.06,1.37-.1,2.2-.18,4.69-.38,6.72.35a19.53,19.53,0,0,1,5.12,3.15c.68.52,1.34,1,2,1.47a15.17,15.17,0,0,0,1.31.77,10.68,10.68,0,0,1,3.56,2.69,9,9,0,0,1,1.37,4.14,12.32,12.32,0,0,0,.3,1.64,13.07,13.07,0,0,0,.9,2.14c.73,1.52,1.56,3.25,1.37,4.93a3.24,3.24,0,0,1-1.83,2.79A3.92,3.92,0,0,1,662.46,417.15Z"/><path fill="#723f3b" d="M647.23,404.43a1.31,1.31,0,0,1-1-.48c-5-6-44.72-38.06-48-40.12a2.65,2.65,0,0,0-2-.38,1.41,1.41,0,0,0-.9.87c-.32.72.1,1.78.6,2.81,1.58,3.25,9.46,9.95,17.09,16.42,6.94,5.89,14.12,12,17.9,16.54a1.33,1.33,0,1,1-2.05,1.7c-3.63-4.37-10.72-10.39-17.57-16.21-8.2-7-15.94-13.53-17.76-17.29-.49-1-1.5-3.1-.65-5a4.06,4.06,0,0,1,2.56-2.34,5.29,5.29,0,0,1,4.23.66c4.06,2.53,43.59,34.55,48.67,40.68a1.33,1.33,0,0,1-.17,1.87A1.31,1.31,0,0,1,647.23,404.43Z"/><path fill="#723f3b" d="M668.59,434.34h-.15a64.91,64.91,0,0,1-6.66-2.59c-6.5-2.78-6.51-3-6.55-3.89a1.33,1.33,0,0,1,1.27-1.39,1.37,1.37,0,0,1,1,.4c1,.59,6,2.78,9.09,4-1.66-3.85-5.86-11.54-8.72-14.16a1.33,1.33,0,1,1,1.79-2c3.68,3.36,10.86,16.41,10.24,18.62A1.38,1.38,0,0,1,668.59,434.34Zm-10.7-6.62Zm0,0Zm0,0h0Zm0,0Z"/><path fill="#723f3b" d="M645.47,383.16a1.34,1.34,0,0,1-1.33-1.33c0-2.38-.21-4.85-.42-7.24-.14-1.51-.27-3-.35-4.53-.43-7.74-.39-15.68-.35-23.35q0-3.56,0-7.1c0-1.41,0-2.83.09-4.26a73.37,73.37,0,0,0-.08-8.4c-.32-3.5-.63-7.22-.63-10.87a1.33,1.33,0,0,1,2.66,0c0,3.55.29,7.05.62,10.63a72.33,72.33,0,0,1,.08,8.71c0,1.41-.08,2.81-.08,4.19,0,2.36,0,4.74,0,7.12,0,7.63-.09,15.52.34,23.19.08,1.47.21,3,.34,4.44.22,2.44.44,5,.44,7.47A1.33,1.33,0,0,1,645.47,383.16Z"/><path fill="#723f3b" d="M649.21,261.16a1.35,1.35,0,0,1-1.11-.59,5.29,5.29,0,0,0-2.09-1.46c-.3-.15-.59-.3-.87-.46a36.37,36.37,0,0,0-11.88-4c-11.66-1.94-25.13-4.36-37.44-8.47a1.33,1.33,0,1,1,.83-2.52c12.14,4,25.49,6.44,37,8.37a39,39,0,0,1,12.74,4.35c.25.14.51.27.77.4a7.44,7.44,0,0,1,3.12,2.36,1.33,1.33,0,0,1-1.11,2.07Z"/><path fill="#723f3b" d="M675.7,367a1.33,1.33,0,0,1-1.26-.91,84.09,84.09,0,0,1-3.18-16c-.33-2.65-.91-5.36-1.46-8-.49-2.26-1-4.6-1.33-6.93a133.14,133.14,0,0,1-1.1-14.44c0-1.36-.1-2.72-.17-4.08-.11-2.37-.13-4.84-.15-7.23-.07-6.33-.13-12.87-1.82-18.8a72.87,72.87,0,0,0-5.5-14.69c-.81-1.49-1.79-3-2.73-4.47a63.13,63.13,0,0,1-3.37-5.7,1.33,1.33,0,1,1,2.38-1.18,62.65,62.65,0,0,0,3.23,5.44c1,1.51,2,3.07,2.82,4.64a74.75,74.75,0,0,1,5.72,15.23c1.8,6.27,1.86,13,1.92,19.51,0,2.36,0,4.8.16,7.12.06,1.37.12,2.74.17,4.11a131.68,131.68,0,0,0,1.06,14.15c.34,2.24.83,4.54,1.3,6.77.57,2.68,1.17,5.45,1.51,8.22A81.1,81.1,0,0,0,677,365.21a1.33,1.33,0,0,1-.84,1.68A1.23,1.23,0,0,1,675.7,367Z"/><path fill="#723f3b" d="M656.29,397.68a1.33,1.33,0,0,1-.49-2.56,4.2,4.2,0,0,0,.92-.69,9.55,9.55,0,0,1,1-.78c1.23-.79,2.5-1.51,3.73-2.21l1.33-.76a39.8,39.8,0,0,1,15.68-5.1,76.57,76.57,0,0,1,8.27-.3h.69c.35,0,.71,0,1.06.05,1.07.07,1.66.08,2.11-.35s-.71-2-1.06-2.56a10.2,10.2,0,0,1-.68-1.19,8.16,8.16,0,0,1-.57-2.1,5.19,5.19,0,0,0-.43-1.52c-.22-.4-.47-.77-.71-1.14a11.52,11.52,0,0,1-1.55-2.94c-.21-.69-.38-1.34-.54-2-.69-2.7-1-3.82-4-4-4.21-.27-8.07,1.53-12.33,3.72l-2.8,1.44a92.43,92.43,0,0,0-14.65,8.6,25.59,25.59,0,0,0-2.08,1.88c-.59.57-1.17,1.13-1.78,1.65a1.33,1.33,0,0,1-1.71-2c.57-.47,1.1-1,1.63-1.51a26,26,0,0,1,2.32-2.09c4.68-3.59,10-6.27,15.06-8.86l2.79-1.43c4.45-2.29,8.87-4.31,13.72-4s5.66,3.21,6.38,6c.14.57.3,1.18.5,1.81a9,9,0,0,0,1.22,2.27c.28.42.56.84.81,1.29a7.07,7.07,0,0,1,.73,2.38,6.47,6.47,0,0,0,.38,1.46,9.39,9.39,0,0,0,.51.88c.9,1.42,2.56,4.08.64,5.9a5,5,0,0,1-4.12,1.07c-.29,0-.58,0-.88,0h-.69a73.12,73.12,0,0,0-8,.29A37.08,37.08,0,0,0,664.09,393l-1.35.77c-1.19.68-2.43,1.38-3.59,2.13a6.56,6.56,0,0,0-.68.55,5.81,5.81,0,0,1-1.69,1.16A1.37,1.37,0,0,1,656.29,397.68Z"/><path fill="#723f3b" d="M740.34,429.06a1.54,1.54,0,0,1-.51-.1c-1-.41-5.14-4.35-19.06-18.34-3-3-5.9-5.92-6.27-6.23-1.74-1.45-3.5-3-5.28-4.55-4.58-4-9.32-8.14-14.22-11.16a1.33,1.33,0,0,1,1.4-2.26c5.08,3.13,9.9,7.35,14.56,11.42,1.77,1.55,3.51,3.07,5.24,4.51.44.36,2.51,2.44,6.45,6.4,5.9,5.92,16.88,17,18.25,17.78a1.28,1.28,0,0,1,.7,1.7A1.34,1.34,0,0,1,740.34,429.06Z"/><path fill="#723f3b" d="M653.22,462.08a1.33,1.33,0,0,1-.37-2.61c5.3-1.53,10.16-5.36,14.87-9.07a90.6,90.6,0,0,1,8.13-5.94c7.71-4.77,16.85-7.93,28.78-9.95a96.07,96.07,0,0,1,30.73.13c2.18.35,4.35.73,6.51,1.11l3.53.62-.43-.55-.11-.15a46.4,46.4,0,0,0-4.89-5.62c-.68-.7-1.34-1.39-2-2.08a1.33,1.33,0,1,1,2-1.8c.62.67,1.28,1.35,1.94,2a48.94,48.94,0,0,1,5.18,6c2,2.6,2.12,3.28,2,3.89a1.59,1.59,0,0,1-.67,1c-.35.21-.7.43-3.44-.05l-3.56-.63c-2.14-.38-4.29-.76-6.45-1.1a93.33,93.33,0,0,0-29.87-.14c-11.59,2-20.43,5-27.83,9.59a87,87,0,0,0-7.89,5.77c-4.9,3.86-10,7.86-15.77,9.54A1.64,1.64,0,0,1,653.22,462.08ZM746.47,438h0Z"/><path fill="#723f3b" d="M571.78,469a1.33,1.33,0,0,1-.45-2.58,31.54,31.54,0,0,0,4.52-2.16c1-.54,2-1.11,3.13-1.61,9.32-4.29,19.56-7.19,28.09-8a78.58,78.58,0,0,1,20.25.79c2.68.46,5.33,1.1,7.88,1.73a84.75,84.75,0,0,0,9.93,2,1.33,1.33,0,0,1,1.16,1.48,1.31,1.31,0,0,1-1.48,1.16,86.71,86.71,0,0,1-10.24-2.07c-2.51-.61-5.11-1.25-7.69-1.69a76,76,0,0,0-19.57-.76c-8.24.75-18.16,3.57-27.22,7.74-1,.46-2,1-3,1.53a34.25,34.25,0,0,1-4.88,2.32A1.19,1.19,0,0,1,571.78,469Z"/><path fill="#723f3b" d="M526.23,448.86a1.54,1.54,0,0,1-.42-.07,1.32,1.32,0,0,1-.84-1.68c1.19-3.59,4.14-9.12,6.81-11.8a1.33,1.33,0,1,1,1.88,1.88c-2.29,2.29-5.09,7.51-6.17,10.76A1.35,1.35,0,0,1,526.23,448.86Z"/><path fill="#723f3b" d="M648.57,460.3a1.34,1.34,0,0,1-1-.43,18.88,18.88,0,0,1-2.92-5.13l-.52-1.16a71.26,71.26,0,0,0-3.52-6.4c-1-1.61-2-3.28-2.84-5a1.33,1.33,0,1,1,2.37-1.22c.84,1.63,1.81,3.26,2.75,4.84a69.89,69.89,0,0,1,3.65,6.65q.27.57.54,1.2a17.16,17.16,0,0,0,2.45,4.4,1.33,1.33,0,0,1-.08,1.88A1.36,1.36,0,0,1,648.57,460.3Z"/><path fill="#723f3b" d="M335.73,281c-15.28,0-27.82-12.27-34.17-23.37-5.46-9.55-5.21-20.27-5-30.64v-.37c.09-3.65.19-8.19.68-12.43a1.33,1.33,0,0,1,2.64.3c-.47,4.12-.58,8.6-.66,12.19V227c-.23,10-.46,20.34,4.63,29.25,6.87,12,20.27,23.46,34.67,21.88,9.92-1.08,27-7.64,34-18.87,8.27-13.28,12.66-21.26,17.16-37a1.33,1.33,0,0,1,2.56.73c-4.39,15.33-8.74,23.66-17.47,37.67-7.46,12-25.55,19-36,20.11A29.35,29.35,0,0,1,335.73,281Z"/><path fill="#723f3b" d="M341.67,301.41c-18.53,0-26.19-12.73-31.21-25.45a1.33,1.33,0,1,1,2.47-1c5,12.74,12.86,25.51,32.78,23.57,6.3-.61,21.28-9,21-26.19A1.34,1.34,0,0,1,368,271a1.37,1.37,0,0,1,1.35,1.31c.31,17.69-14.82,28.05-23.38,28.88Q343.73,301.41,341.67,301.41Z"/><path fill="#723f3b" d="M317.76,228.61a2.94,2.94,0,0,1-1.56-.46,3,3,0,0,1-1.05-3.87,3.09,3.09,0,0,1,3.53-2.05,3.44,3.44,0,0,1,2.4,3.44,2.72,2.72,0,0,1-2.22,2.74l-.16,0A2.74,2.74,0,0,1,317.76,228.61Z"/><path fill="#723f3b" d="M364.78,237.57a2.57,2.57,0,0,1-1.89-.82,3.2,3.2,0,0,1-.68-3.23,2.47,2.47,0,0,1,1.51-1.52,2.44,2.44,0,0,1,.83-.32,2.19,2.19,0,0,1,2.1.73,2.57,2.57,0,0,1,.6.63,2.89,2.89,0,0,1,.14,2.94,2.83,2.83,0,0,1-1.15,1.15,2.13,2.13,0,0,1-.6.31A2.9,2.9,0,0,1,364.78,237.57Z"/><path fill="#723f3b" d="M326.12,213.71a1.34,1.34,0,0,1-.81-.27l-.24-.18c-2.91-2.21-5.65-4.3-9.26-4.49-1-.05-2,0-3.09,0l-1.2,0a1.36,1.36,0,0,1-1.34-1.31,1.33,1.33,0,0,1,1.31-1.35l1.17,0c1.12,0,2.17,0,3.29,0,4.43.23,7.63,2.67,10.73,5l.24.19a1.33,1.33,0,0,1-.8,2.38Z"/><path fill="#723f3b" d="M359.9,220.93a1.33,1.33,0,0,1-.58-2.53c4.9-2.36,11.75-2.41,18.32-.11a1.32,1.32,0,1,1-.87,2.5c-5.92-2.06-12-2.06-16.29,0A1.33,1.33,0,0,1,359.9,220.93Z"/><path fill="#723f3b" d="M334,246.18a1.37,1.37,0,0,1-.59-.13,5,5,0,0,1-1.8-1.82c-.1-.15-.2-.3-.3-.43l-.3-.38a5.91,5.91,0,0,1-1.68-3.64,6.58,6.58,0,0,1,1.26-3.24c.13-.2.25-.4.36-.59a20.18,20.18,0,0,0,1.9-4.46,21.26,21.26,0,0,0,.6-4.89,31.52,31.52,0,0,1,.25-3.3,1.33,1.33,0,1,1,2.63.36c-.14,1-.18,2-.23,3.06a23.73,23.73,0,0,1-.69,5.5,23.14,23.14,0,0,1-2.15,5l-.41.68a4.7,4.7,0,0,0-.86,1.9c0,.53.63,1.33,1.1,1.92l.33.43c.13.17.26.35.39.55a3.25,3.25,0,0,0,.78.92,1.33,1.33,0,0,1-.59,2.52Z"/><path fill="#723f3b" d="M339.93,265.66c-7.5,0-15.87-2.77-19.22-9.49a1.33,1.33,0,1,1,2.37-1.19c3.32,6.64,12.72,8.72,20,7.84a1.31,1.31,0,0,1,1.47,1.16,1.33,1.33,0,0,1-1.16,1.48A30.51,30.51,0,0,1,339.93,265.66Z"/><path fill="#723f3b" d="M298.21,244h-.13a3.41,3.41,0,0,1-2.11-1.34l-.17-.19a16.9,16.9,0,0,1-4.24-7.37,1.33,1.33,0,0,1,2.59-.61,14.15,14.15,0,0,0,3.57,6.15l.23.24a3.07,3.07,0,0,0,.52.51,1.26,1.26,0,0,1,1.13,1.43A1.37,1.37,0,0,1,298.21,244Z"/><path fill="#723f3b" d="M386.65,247.05a5.27,5.27,0,0,1-1.75-.29,1.33,1.33,0,1,1,.9-2.5c1.8.65,4.77-1.11,6.77-3,6.42-6.11,10-12.25,10.5-18.25a1.33,1.33,0,1,1,2.65.25c-.61,6.66-4.41,13.36-11.31,19.93C393.64,243.9,390.13,247.05,386.65,247.05Z"/><path fill="#723f3b" d="M293,237.61a1.32,1.32,0,0,1-1.32-1.23c-.37-5.16.82-10.15,2-14.35,3-10.2,8.84-19.2,14.54-27.9,1.29-2,2.58-3.93,3.82-5.89,3.07-4.85,10.25-16.19,20.14-12.09a1.33,1.33,0,1,1-1,2.45c-6.93-2.86-12.66,4.4-16.87,11.06-1.25,2-2.55,4-3.84,5.93-5.59,8.54-11.37,17.36-14.22,27.18-1.15,4-2.28,8.68-1.94,13.42a1.33,1.33,0,0,1-1.23,1.42Z"/><path fill="#723f3b" d="M293.11,238.81a1.31,1.31,0,0,1-.79-.26,11.52,11.52,0,0,1-3.35-5c-.31-.73-.62-1.44-.92-2.16a61.05,61.05,0,0,1-2.53-6.57c-4.64-15.15.22-32.52,13.33-47.64a1.33,1.33,0,0,1,2,1.74c-12.5,14.42-17.16,30.86-12.8,45.13a58.36,58.36,0,0,0,2.43,6.29c.31.73.62,1.45.93,2.2,1,2.42,1.9,3.43,2.48,3.86a1.33,1.33,0,0,1-.79,2.4Z"/><path fill="#723f3b" d="M293,188h-.07a1.32,1.32,0,0,1-1.26-1.39c.54-11.76,7.06-23.65,19.39-35.31,5.22-4.95,10.71-8,16.32-9.21a1.33,1.33,0,0,1,.54,2.61c-5.12,1.06-10.18,3.93-15,8.53-11.8,11.18-18.05,22.45-18.56,33.51A1.32,1.32,0,0,1,293,188Z"/><path fill="#723f3b" d="M293,257.09a1.32,1.32,0,0,1-.6-.14,11,11,0,0,1-3.72-3.86c-.3-.44-.6-.87-.89-1.24a24,24,0,0,1-3.62-7.4A43.09,43.09,0,0,1,281.91,226c.07-.61.11-1.28.16-2,.17-2.61.37-5.58,1.82-7.76a1.33,1.33,0,0,1,2.22,1.47c-1.07,1.59-1.24,4.18-1.39,6.47-.05.74-.1,1.44-.17,2.09a39.9,39.9,0,0,0,2.09,17.29,21.52,21.52,0,0,0,3.19,6.61c.32.41.65.88,1,1.37a9.28,9.28,0,0,0,2.72,3,1.33,1.33,0,0,1-.59,2.52Z"/><path fill="#723f3b" d="M321.34,359.72a1.56,1.56,0,0,1-1.25-.69,8,8,0,0,1-.78-3.43,9.46,9.46,0,0,0-.28-2,78.73,78.73,0,0,0-5.62-11.59c-2-3.61-4.34-7.15-6.6-10.57-1.19-1.81-2.38-3.61-3.54-5.44-10.9-17.27-15.56-32.27-14.66-47.2.05-.69.08-1.41.12-2.15.25-4.93.53-10.51,2.69-14.82a1.33,1.33,0,0,1,2.37,1.19c-1.9,3.81-2.17,9.1-2.41,13.76,0,.75-.07,1.48-.11,2.18-.87,14.35,3.66,28.85,14.25,45.62,1.14,1.81,2.33,3.6,3.51,5.4,2.29,3.46,4.65,7,6.7,10.74a79.78,79.78,0,0,1,5.8,12,7.56,7.56,0,0,1,.33,1.53L322,354c.39-.89.78-1.79,1.18-2.69a38,38,0,0,0,2.55-11c1.28-10.7,1-19.16-.72-25.85a106.88,106.88,0,0,0-4.05-11.65c-1.4-3.57-2.93-7.2-4.41-10.71-2.42-5.76-4.93-11.71-7-17.68-.58-1.65-1-3.37-1.45-5-.39-1.5-.75-2.92-1.22-4.3a1.33,1.33,0,0,1,2.53-.85c.49,1.47.88,3,1.27,4.49s.84,3.26,1.38,4.82c2.06,5.88,4.55,11.8,7,17.52,1.49,3.52,3,7.17,4.44,10.77a109.08,109.08,0,0,1,4.14,11.94c1.85,7,2.11,15.81.79,26.84a40.77,40.77,0,0,1-2.77,11.79l-1.17,2.68-.93,2.13c-.15.34-.3.68-.44,1s-.61,1.39-1.6,1.47Z"/><path fill="#723f3b" d="M399.82,225.82a1.2,1.2,0,0,1-.38,0,26.62,26.62,0,0,0-3.08-.66,22.11,22.11,0,0,1-4.63-1.16,43.89,43.89,0,0,1-18.49-14.66c-2.32-3.13-4.23-6-5.84-8.64a58.19,58.19,0,0,1-3.28-6l-.14-.31c-.8-1.8-1.56-3.51-2.43-5.23a41.51,41.51,0,0,0-3.24-5.38c-4.06-5.75-9.08-12.86-16.4-10.15a7,7,0,0,0-2.45,1.64,18.25,18.25,0,0,1-1.41,1.19,1.33,1.33,0,1,1-1.59-2.13c.47-.35.85-.7,1.22-1a9.36,9.36,0,0,1,3.31-2.16c9.23-3.43,15.39,5.3,19.47,11.08a45.28,45.28,0,0,1,3.47,5.75c.89,1.78,1.7,3.59,2.48,5.34l.14.3a55.3,55.3,0,0,0,3.07,5.62,100.87,100.87,0,0,0,5.75,8.52,41.78,41.78,0,0,0,17.34,13.78,20.42,20.42,0,0,0,4.11,1,28.71,28.71,0,0,1,3.37.73,1.33,1.33,0,0,1-.37,2.6Z"/><path fill="#723f3b" d="M401.91,188.39a1.34,1.34,0,0,1-1.33-1.33c0-14.41-7.55-27.69-22.43-39.47-3.14-2.49-7.84-6-12.48-7.34-8.59-2.58-15.78-4.39-23.63-2.43a12.08,12.08,0,0,0-5.5,2.62l-.34.28a8,8,0,0,0-1.09,1,1.33,1.33,0,0,1-2.64-.19c0-1.12,1-2,2-2.88l.27-.22a14.63,14.63,0,0,1,6.6-3.2c8.51-2.13,16.06-.23,25,2.46,5.08,1.53,10.06,5.18,13.37,7.8,15.55,12.31,23.44,26.3,23.44,41.56A1.34,1.34,0,0,1,401.91,188.39Zm-66.78-46.85Z"/><path fill="#723f3b" d="M402.22,249.19a1.32,1.32,0,0,1-1.1-.59,1.34,1.34,0,0,1,.37-1.85c3.91-2.61,5.73-11.79,6.19-16.8.6-6.59.6-12.44-1.34-19.54-.47-1.72-1-3.23-1.43-4.69-.67-2.06-1.3-4-1.86-6.47l-.27-1.09a17.91,17.91,0,0,1-.72-4.29,1.33,1.33,0,0,1,2.66,0,15.59,15.59,0,0,0,.64,3.64c.09.39.19.77.28,1.14.54,2.35,1.15,4.25,1.8,6.25.48,1.49,1,3,1.47,4.81,2,7.49,2,13.6,1.41,20.48-.22,2.47-1.63,15-7.36,18.78A1.33,1.33,0,0,1,402.22,249.19Z"/><path fill="#723f3b" d="M384.8,352.3l-.21,0a2.26,2.26,0,0,1-1.55-1.43l-.09-.17c-.45-.77-.89-1.55-1.32-2.33s-.81-1.48-1.23-2.2c-3.51-6-7-12.42-9-18.85l-.35-1.12c-1.77-5.7-3.44-11.08-4.14-17a72.58,72.58,0,0,1,.17-19.29c.19-1.29.49-2.57.78-3.82a35.48,35.48,0,0,0,.86-4.5,1.33,1.33,0,0,1,2.65.26,39.15,39.15,0,0,1-.92,4.85c-.28,1.19-.57,2.42-.74,3.61a70.61,70.61,0,0,0-.17,18.58c.68,5.69,2.32,11,4.05,16.54l.35,1.12c1.91,6.17,5.34,12.44,8.76,18.3.43.74.85,1.5,1.27,2.25l.72,1.3c.08-.26.15-.51.22-.73a13.18,13.18,0,0,1,.69-2c1.83-3.76,3.32-7.52,4.89-11.5l.68-1.72c7.25-18.23,8.79-39.11,4.45-60.39a140.09,140.09,0,0,0-4.35-17l-.18-.56c-1-3.29-1.5-4.13-1.71-4.33a1.34,1.34,0,0,1,0-1.88,1.32,1.32,0,0,1,1.86-.05c.88.84,1.61,2.8,2.43,5.48a4.13,4.13,0,0,0,.15.48,144.73,144.73,0,0,1,4.44,17.37c4.43,21.79,2.85,43.19-4.59,61.9l-.68,1.72c-1.52,3.85-3.1,7.83-5,11.68a12.85,12.85,0,0,0-.53,1.57,8.66,8.66,0,0,1-1.57,3.45A1.52,1.52,0,0,1,384.8,352.3Zm.79-2.34h0Z"/><path fill="#723f3b" d="M260.88,286.75a1.33,1.33,0,0,1-.73-2.44c5.38-3.54,11.52-5.76,17.45-7.91,2.3-.83,4.68-1.69,6.93-2.6a1.33,1.33,0,0,1,1,2.46c-2.3.93-4.7,1.8-7,2.64-5.79,2.09-11.78,4.26-16.9,7.63A1.3,1.3,0,0,1,260.88,286.75Z"/><path fill="#723f3b" d="M183.44,404.07l-.27,0a1.34,1.34,0,0,1-1-1.57c1.4-6.78,5.68-12.65,9.12-17.37,4.59-6.3,9.12-12.92,13.46-19.69,3.92-6.12,8.13-12.2,12.19-18.08,4.52-6.53,9.19-13.28,13.49-20.11,2.24-3.56,4.44-7.24,6.57-10.81,5-8.39,10.21-17.07,16.39-24.94a1.34,1.34,0,0,1,1.87-.22,1.33,1.33,0,0,1,.22,1.87c-6.08,7.73-11.22,16.33-16.2,24.66-2.13,3.57-4.34,7.27-6.6,10.86-4.33,6.87-9,13.65-13.55,20.21-4.05,5.85-8.24,11.91-12.15,18-4.37,6.81-8.92,13.48-13.54,19.81-3.46,4.75-7.38,10.13-8.66,16.35A1.33,1.33,0,0,1,183.44,404.07Z"/><path fill="#723f3b" d="M233.39,446.2c-13.58,0-28.82-6-39.82-15.75a43.88,43.88,0,0,1-10.16-13.64c-.14-.28-.32-.6-.51-.95-1-1.7-2.13-3.83-1.7-5.66a1.33,1.33,0,0,1,2.59.62c-.2.83.82,2.65,1.43,3.75.21.38.41.74.57,1.05a41.32,41.32,0,0,0,9.54,12.84c10.53,9.32,25.1,15.09,38.06,15.09h.18a71.53,71.53,0,0,0,12.37-1.49c2.6-.47,5.3-.95,8-1.25a1.33,1.33,0,1,1,.29,2.64c-2.63.29-5.28.76-7.84,1.22a73.32,73.32,0,0,1-12.83,1.53Z"/><path fill="#723f3b" d="M261.83,445.09a17.91,17.91,0,0,1-6.73-1.18c-2.52-1-3.86-4.44-4.83-6.93-.13-.32-.24-.61-.35-.87a1.33,1.33,0,1,1,2.45-1c.12.27.24.58.37.91.71,1.82,1.9,4.85,3.37,5.45,3.32,1.37,7.73,1.11,10.74.41a22.52,22.52,0,0,1,2.63-.38c.66-.07,1.33-.14,2-.27a25,25,0,0,0,7.91-3.38l.87-.53c2.13-1.3,5.69-3.46,6-5.57a2.55,2.55,0,0,0-.78-2.07,1.33,1.33,0,0,1,2-1.75,5.17,5.17,0,0,1,1.4,4.23c-.53,3.33-4.59,5.8-7.27,7.43l-.84.51a27.7,27.7,0,0,1-8.8,3.74c-.74.15-1.49.22-2.22.3a17.52,17.52,0,0,0-2.29.33A25.2,25.2,0,0,1,261.83,445.09Z"/><path fill="#723f3b" d="M266,434.84a47.55,47.55,0,0,1-7.71-.63,1.33,1.33,0,0,1,.44-2.63,44.08,44.08,0,0,0,13.41.16,23.06,23.06,0,0,0,6.51-2.6c1.14-.59,2.31-1.2,3.44-1.67,1.44-.6,5.21-2.16,5.74-3.9a1.53,1.53,0,0,0-.32-1.37,8.26,8.26,0,0,0-1.53-1.55l.77-1.09.87-1a11.35,11.35,0,0,1,2.1,2.17,4.17,4.17,0,0,1,.65,3.62c-.89,2.94-5,4.65-7.24,5.58-1.05.43-2.12,1-3.26,1.58a24.53,24.53,0,0,1-7.33,2.86A44.06,44.06,0,0,1,266,434.84Z"/><path fill="#723f3b" d="M266.68,449.75c-3.82,0-7.86-1.37-8.89-5.36a1.33,1.33,0,1,1,2.57-.67c.85,3.29,5.49,3.59,8.11,3.26,8.51-1.11,13.78-4.87,16.08-11.5a1.33,1.33,0,1,1,2.51.88c-2.67,7.67-8.64,12-18.25,13.25A16.45,16.45,0,0,1,266.68,449.75Z"/><path fill="#723f3b" d="M249.53,432.32a1.34,1.34,0,0,1-.86-.31c-4.32-3.65-2-7.64-.33-10.56.44-.77.86-1.5,1.19-2.22a1.33,1.33,0,1,1,2.41,1.12c-.38.83-.85,1.64-1.3,2.42-1.89,3.28-2.76,5.09-.25,7.2a1.33,1.33,0,0,1-.86,2.35Z"/><path fill="#723f3b" d="M266.46,421.92a67,67,0,0,1-8.72-.44,1.33,1.33,0,1,1,.36-2.63,72.65,72.65,0,0,0,9.7.41h1.68c4.16,0,8.09,0,12.23-1.05,2.31-.59,5-1.89,5.49-3.14.09-.23.14-.56-.25-1.12-.8-1.15-3-1.63-4.74-2-.7-.15-1.36-.3-1.93-.47-5.17-1.57-10.81-1.67-16.26-1.78h-.27c-.85,0-1.75-.1-2.67-.17a15.56,15.56,0,0,0-5.94.21c-1.42.46-1.81,1.61-2.11,3.87a24.19,24.19,0,0,1-.5,2.67,1.33,1.33,0,1,1-2.56-.74,20.87,20.87,0,0,0,.43-2.28c.24-1.86.66-5,3.91-6.05a17.93,17.93,0,0,1,7-.33c.86.07,1.7.14,2.5.16h.27c5.63.11,11.46.22,17,1.9.5.15,1.09.28,1.72.42,2.21.47,5,1.07,6.35,3.09a3.7,3.7,0,0,1,.56,3.56c-1.14,3.06-6.3,4.52-7.32,4.78-4.47,1.15-8.56,1.14-12.89,1.14h-3Z"/><path fill="#723f3b" d="M291.35,423.13a2.06,2.06,0,0,1-1.48-.68,1.34,1.34,0,0,1,0-1.88,1.43,1.43,0,0,1,1-.4,8.53,8.53,0,0,0,.12-1.35,8.93,8.93,0,0,0-.18-1.46,9.48,9.48,0,0,1-.19-2.43c0-.44.09-.91.14-1.4.24-2.15.54-4.81-.36-6.44-.34-.61-1.88-1.21-2.9-1.62a15.06,15.06,0,0,1-1.68-.73c-.85-.46-1.69-1-2.49-1.51a16.21,16.21,0,0,0-5.42-2.62,21.14,21.14,0,0,0-6.13.14,38.68,38.68,0,0,1-4,.32h0a1.33,1.33,0,1,1,0-2.65,36.08,36.08,0,0,0,3.72-.31,22.75,22.75,0,0,1,6.94-.11,18.19,18.19,0,0,1,6.35,3c.8.51,1.56,1,2.33,1.41a13.3,13.3,0,0,0,1.38.6c1.62.64,3.46,1.36,4.26,2.81,1.3,2.37.95,5.49.67,8-.05.47-.1.92-.14,1.34a7.44,7.44,0,0,0,.17,1.75,12.41,12.41,0,0,1,.22,1.88c0,1.31-.18,3.6-1.59,4.2A1.74,1.74,0,0,1,291.35,423.13Z"/><path fill="#723f3b" d="M252.33,410.67a1.39,1.39,0,0,1-.44-.07c-4.47-1.59-8.53-4.26-12.46-6.85-1.88-1.24-3.82-2.53-5.74-3.63a40.6,40.6,0,0,0-9.2-3.49l-.84-.25a63.18,63.18,0,0,0-14.13-2.88,24.46,24.46,0,0,0-3.79.2c-.75.07-1.5.15-2.27.19a1.35,1.35,0,0,1-1.4-1.26,1.33,1.33,0,0,1,1.26-1.39c.72,0,1.43-.12,2.14-.19a26.23,26.23,0,0,1,4.2-.2,64.8,64.8,0,0,1,14.73,3l.84.25a42.7,42.7,0,0,1,9.79,3.74c2,1.14,4,2.45,5.88,3.71,3.79,2.5,7.71,5.09,11.88,6.56a1.33,1.33,0,0,1-.45,2.58Z"/><path fill="#723f3b" d="M275.83,409.93a1.34,1.34,0,0,1-.78-.25c-4.85-3.48-12.2-8.91-20-14.65-12.36-9.12-26.36-19.45-28.45-20.52l-.5-.26c-1.15-.6-2.58-1.36-3.42-.83a5.15,5.15,0,0,0,.43,2.22,23.82,23.82,0,0,0,5.25,7.1c1.58,1.55,14.45,10.66,23.85,17.3,3.53,2.5,6.72,4.76,9,6.36a1.32,1.32,0,0,1,.31,1.85,1.33,1.33,0,0,1-1.86.31c-2.23-1.6-5.41-3.86-8.94-6.35-12.71-9-22.57-16-24.17-17.57s-4.52-4.71-5.85-8c-.28-.68-1.54-4.12.61-5.47s4.52-.1,6.09.73l.46.24c2.13,1.09,12.79,8.92,28.81,20.75,7.79,5.74,15.14,11.16,20,14.63a1.33,1.33,0,0,1,.31,1.85A1.34,1.34,0,0,1,275.83,409.93Z"/><path fill="#723f3b" d="M301.68,438.09c-.74,0-2.09-.46-6.47-2-2.65-1-5.65-2-7.25-2.44a1.33,1.33,0,0,1,.65-2.58c1.73.44,4.66,1.49,7.5,2.52l2.73,1c-2.26-3.42-6.29-9-8.3-10.77a1.33,1.33,0,1,1,1.73-2c1.51,1.3,11.29,13.61,10.7,15.42a1.34,1.34,0,0,1-1.17.92Z"/><path fill="#723f3b" d="M256.13,395.41H256a1.32,1.32,0,0,1-1.14-1.49,14.43,14.43,0,0,1,2.28-5.27c.31-.52.61-1,.87-1.51a87.56,87.56,0,0,1,6.43-9.8,92.36,92.36,0,0,0,5.74-8.59,1.33,1.33,0,1,1,2.31,1.3,92.57,92.57,0,0,1-5.9,8.85,86.13,86.13,0,0,0-6.23,9.49c-.28.53-.61,1.07-.94,1.63a12.3,12.3,0,0,0-1.93,4.25A1.31,1.31,0,0,1,256.13,395.41Z"/><path fill="#723f3b" d="M282.36,401.73A1.34,1.34,0,0,1,281,400.4a5.89,5.89,0,0,0-.58-1.76,13.51,13.51,0,0,1-.5-1.29c-.32-1-.64-2-1-3-.52-1.63-1.05-3.26-1.54-4.9l-.69-2.29c-2.92-9.65-5.93-19.64-5.93-29.67a1.33,1.33,0,0,1,2.66,0c0,9.64,2.95,19.44,5.82,28.91l.69,2.29c.48,1.62,1,3.23,1.52,4.85.33,1,.66,2,1,3.06.1.31.26.66.41,1a7.36,7.36,0,0,1,.8,2.82A1.33,1.33,0,0,1,282.36,401.73Z"/><path fill="#723f3b" d="M426.77,280.82a1.33,1.33,0,0,1-1.24-.85l-.26-.67a27,27,0,0,0-3.29-6.65c-5.57-7.11-14.23-10-22.61-12.72l-.37-.12a1.33,1.33,0,0,1,.83-2.53l.37.13c8.76,2.88,17.8,5.86,23.87,13.6a28.48,28.48,0,0,1,3.68,7.33l.26.66a1.34,1.34,0,0,1-.76,1.73A1.36,1.36,0,0,1,426.77,280.82Z"/><path fill="#723f3b" d="M484.49,419.81h-.12a1.32,1.32,0,0,1-1.2-1.44c1-11.67-4.57-22.84-10-33.64-1.63-3.24-3.31-6.6-4.74-9.85s-2.77-6.25-4.16-9.36c-6.25-14-12.71-28.54-18.08-43.35l-1.4-3.85c-2-5.5-4.1-11.18-5.86-16.87l-.63-2a63.34,63.34,0,0,0-3.32-9.24,1.33,1.33,0,1,1,2.39-1.16,65.55,65.55,0,0,1,3.48,9.63l.61,2c1.75,5.62,3.82,11.28,5.82,16.75l1.41,3.85c5.34,14.72,11.78,29.19,18,43.18q2.08,4.68,4.16,9.37c1.4,3.19,3,6.36,4.69,9.72,5.59,11.14,11.38,22.66,10.27,35.07A1.34,1.34,0,0,1,484.49,419.81Z"/><path fill="#723f3b" d="M430.09,393.85a1.33,1.33,0,0,1-1.23-.82,30.13,30.13,0,0,1-1.16-3.56,25.78,25.78,0,0,0-1.16-3.51c-.89-2-1.74-4-2.59-6-1.61-3.81-3.27-7.75-5.19-11.48a1.33,1.33,0,0,1,2.37-1.22c2,3.83,3.64,7.81,5.27,11.66.84,2,1.68,4,2.56,6a28.64,28.64,0,0,1,1.3,3.89,27.32,27.32,0,0,0,1.05,3.24,1.32,1.32,0,0,1-.71,1.74A1.34,1.34,0,0,1,430.09,393.85Z"/><path fill="#723f3b" d="M368.28,463.81a6.91,6.91,0,0,1-4.69-1.46c-1.33-1.18-1.37-3.17-1.4-4.76a9.27,9.27,0,0,0-.09-1.43,51.68,51.68,0,0,0-2.47-9.67c-.79-1.95-1.79-3.88-2.76-5.75-.67-1.3-1.34-2.59-2-3.91a7.86,7.86,0,0,0-.44-.72c-.75-1.17-1.79-2.77-1.12-4.24.8-1.76,3.44-2.59,6.54-3.42a14.91,14.91,0,0,0,1.48-.43c2.89-1.08,5.77-2.41,8.56-3.7a105.31,105.31,0,0,1,10.8-4.51,75.72,75.72,0,0,0,10.66-4.89c1.23-.65,2.45-1.28,3.67-1.89,3.07-1.53,6.12-3.13,9.16-4.72,5.52-2.87,11.22-5.85,17-8.44,7.7-3.45,15.82-5,24.87-6.45a39.18,39.18,0,0,1,9.86-.65,1.34,1.34,0,0,1,1.19,1.46,1.36,1.36,0,0,1-1.46,1.19,36.84,36.84,0,0,0-9.16.62c-8.86,1.46-16.8,2.93-24.22,6.26-5.71,2.55-11.38,5.51-16.86,8.37-3.06,1.6-6.12,3.2-9.21,4.74-1.2.6-2.4,1.23-3.61,1.86a77.89,77.89,0,0,1-11.06,5.06A105.44,105.44,0,0,0,371,426.74c-2.83,1.3-5.75,2.65-8.73,3.77-.39.15-1,.31-1.73.51-1.1.29-4.46,1.19-4.81,2a7.93,7.93,0,0,0,.93,1.69,10.69,10.69,0,0,1,.62,1c.6,1.28,1.25,2.54,1.91,3.8,1,1.93,2,3.92,2.86,6a53.66,53.66,0,0,1,2.63,10.19,13.2,13.2,0,0,1,.13,1.85c0,1,0,2.42.5,2.83,1.61,1.41,5.47.6,8,.06l1.72-.34q4.65-.78,9.28-1.61c6.08-1.07,12.36-2.17,18.6-3.1,3.23-.47,6.46-.89,9.68-1.31,8.5-1.09,17.29-2.23,25.73-4.51,9.31-2.51,22.65-7,33.38-14.35a38.6,38.6,0,0,0,7.64-6.38c.49-.6.91-1.23,1.41-1.95s.95-1.4,1.56-2.21a1.33,1.33,0,0,1,2.12,1.61c-.59.76-1.05,1.45-1.48,2.09a25.72,25.72,0,0,1-1.57,2.15,39.93,39.93,0,0,1-8.19,6.88c-11,7.53-24.67,12.16-34.17,14.73-8.63,2.32-17.5,3.47-26.09,4.58-3.2.41-6.42.83-9.63,1.3-6.2.92-12.47,2-18.53,3.09-3.09.54-6.19,1.09-9.29,1.61-.48.08-1,.2-1.62.32A28.09,28.09,0,0,1,368.28,463.81Z"/><path fill="#723f3b" d="M336.63,441a1.33,1.33,0,0,1-.33-2.61,100.38,100.38,0,0,0,10.91-3.78c2.08-.81,4.23-1.64,6.38-2.39a1.33,1.33,0,1,1,.86,2.52c-2.1.72-4.22,1.55-6.27,2.35A103.45,103.45,0,0,1,337,441,1.32,1.32,0,0,1,336.63,441Z"/><path fill="#723f3b" d="M279.4,474h0a1.33,1.33,0,0,1-1.31-1.35c0-2.7,1.09-5.44,2-7.85l.35-.9q.36-.93.72-1.92a44.9,44.9,0,0,1,4.18-9.14,6.43,6.43,0,0,1,2.29-1.79c.24-.13.46-.26.65-.38a28.32,28.32,0,0,1,9.84-3.87c4.05-.9,8.15-2,12.11-3.13,3.34-.92,6.79-1.88,10.23-2.7a26.54,26.54,0,0,1,2.8-.45c1.77-.22,3.79-.47,4.85-1.16a1.33,1.33,0,1,1,1.45,2.23c-1.57,1-3.91,1.31-6,1.57a24.4,24.4,0,0,0-2.52.4c-3.39.8-6.82,1.75-10.13,2.67-4,1.11-8.13,2.25-12.25,3.17a25.26,25.26,0,0,0-9,3.5c-.23.15-.51.31-.8.47a5.32,5.32,0,0,0-1.38.94,42.74,42.74,0,0,0-3.9,8.59c-.24.67-.48,1.32-.73,1.95l-.35.91c-.86,2.21-1.83,4.71-1.85,6.92A1.34,1.34,0,0,1,279.4,474Z"/><path fill="#723f3b" d="M276,487.71a2.56,2.56,0,0,1-1.8-.82,4.4,4.4,0,0,1-1.31-3.14,15.43,15.43,0,0,1,2.36-5.93c.37-.65.73-1.29,1-1.91a60,60,0,0,1,5.49-8.61l.63-.88c1.09-1.51,2.23-3.24,3.49-5.3a6.94,6.94,0,0,0,.4-.78,6.87,6.87,0,0,1,1.33-2.15,61.32,61.32,0,0,1,7.6-6.25,1.33,1.33,0,1,1,1.45,2.23,56.85,56.85,0,0,0-7.2,5.94,6.16,6.16,0,0,0-.78,1.36c-.19.4-.37.77-.53,1-1.3,2.11-2.48,3.9-3.6,5.46l-.63.88a57.38,57.38,0,0,0-5.26,8.23c-.32.66-.71,1.35-1.11,2.05a13.49,13.49,0,0,0-2,4.88,2.12,2.12,0,0,0,.59,1,1.32,1.32,0,0,1,1.29,1.17,1.34,1.34,0,0,1-1.17,1.48Zm.17-2.63h0Z"/><path fill="#723f3b" d="M279.11,490.65a3,3,0,0,1-2-.75,3.61,3.61,0,0,1-.8-4.25,30.84,30.84,0,0,1,4.61-6.53c.53-.63,1.05-1.26,1.54-1.87,1.76-2.21,3.39-4.63,5-7s3.26-4.85,5.09-7.15a15.79,15.79,0,0,1,4.34-3.34c.45-.27.89-.53,1.29-.79s.7-.48,1.05-.73a12.38,12.38,0,0,1,3.18-1.85,1.33,1.33,0,0,1,.87,2.52,9.94,9.94,0,0,0-2.49,1.48c-.39.28-.77.56-1.15.81l-1.38.84a13.83,13.83,0,0,0-3.63,2.72c-1.76,2.21-3.39,4.63-5,7s-3.26,4.84-5.09,7.14c-.5.63-1,1.27-1.59,1.92a29.28,29.28,0,0,0-4.23,5.94,1,1,0,0,0,.13,1.12c.07.06.23.2.62-.05a1.33,1.33,0,0,1,1.45,2.23A3.46,3.46,0,0,1,279.11,490.65Z"/><path fill="#723f3b" d="M283.06,492.47a3.19,3.19,0,0,1-.94-.13,2.71,2.71,0,0,1-2.06-2c-.46-2.07,1.8-4.36,4-6.34l.4-.37c1.95-1.91,3.83-4,5.64-6.08,3.64-4.1,7.4-8.34,12.13-11.42a1.33,1.33,0,1,1,1.45,2.22c-4.43,2.89-8.07,7-11.59,11-1.85,2.08-3.76,4.24-5.77,6.21l-.47.43c-2.61,2.39-3.08,3.36-3.14,3.72a1.08,1.08,0,0,0,.23.1c.53.16,2-.43,4.48-1.77l.74-.4a57.68,57.68,0,0,0,7.71-5.13,61.52,61.52,0,0,1,7.56-5.07,65.1,65.1,0,0,1,12-4.54c2.32-.7,4.72-1.43,6.95-2.28,4.22-1.6,8.36-3.64,12.36-5.61,2.79-1.37,5.68-2.79,8.58-4.06a12,12,0,0,1,3.44-.77c.55-.07,1.08-.13,1.6-.24,2-.44,4.16-.76,6.21-1.06a77.12,77.12,0,0,0,7.85-1.46,1.33,1.33,0,1,1,.68,2.57,75.64,75.64,0,0,1-8.14,1.51c-2,.31-4.08.62-6.05,1-.59.12-1.2.2-1.82.27a10,10,0,0,0-2.7.58c-2.85,1.24-5.71,2.65-8.47,4-4.06,2-8.25,4.06-12.6,5.71-2.31.88-4.75,1.62-7.12,2.34a62.76,62.76,0,0,0-11.54,4.33,57.87,57.87,0,0,0-7.23,4.86,58.37,58.37,0,0,1-8.08,5.36l-.68.37C286.62,491.48,284.66,492.47,283.06,492.47Zm-.4-2.67h0Z"/><path fill="#723f3b" d="M272.51,469.33h-.15a1.33,1.33,0,0,1-1.17-1.47,50,50,0,0,1,2.33-9.56,49.68,49.68,0,0,0,2.25-9.19,1.33,1.33,0,0,1,2.65.28,50.7,50.7,0,0,1-2.37,9.7,48.4,48.4,0,0,0-2.22,9.06A1.33,1.33,0,0,1,272.51,469.33Z"/><path fill="#723f3b" d="M185.53,475.74a109.45,109.45,0,0,1-11.8-.75l-.32,0c-3.28-.2-5.59-.47-5.62-2.24,0-1.07,1-1.78,2.35-2.66l.23-.15A84,84,0,0,0,179,462.6c2.21-2.17,4.53-4.34,6.78-6.43,4-3.73,8.14-7.58,11.81-11.63.75-.82,1.54-1.59,2.32-2.33a23.78,23.78,0,0,0,3.65-4.08,1.33,1.33,0,0,1,1.84-.4,1.35,1.35,0,0,1,.4,1.84,26.35,26.35,0,0,1-4.05,4.55c-.77.75-1.51,1.45-2.19,2.2-3.75,4.14-7.93,8-12,11.8-2.23,2.08-4.54,4.23-6.73,6.38a88.42,88.42,0,0,1-8.89,7.56l-.17.11c.46.05,1.05.1,1.78.14l.45,0a85.27,85.27,0,0,0,18.14.4l8.38-.89c8.67-.92,17.63-1.87,26.55-2.58l4.91-.44a111.43,111.43,0,0,1,17.48-.7c3.93.26,8.16.57,12.43,1.17l1.44.16a12.93,12.93,0,0,1,5.81,1.56,1.32,1.32,0,1,1-1.43,2.23,10.85,10.85,0,0,0-4.65-1.14c-.52-.06-1-.11-1.54-.18-4.18-.58-8.35-.9-12.23-1.14a109.09,109.09,0,0,0-17.06.69l-5,.44c-8.88.7-17.83,1.66-26.48,2.58l-8.39.88A67.94,67.94,0,0,1,185.53,475.74Z"/><path fill="#723f3b" d="M341.41,472a33.58,33.58,0,0,1-6.45-.82,35,35,0,0,0-5.68-.77,1.33,1.33,0,0,1,0-2.65h0a36.46,36.46,0,0,1,6.13.81,29.08,29.08,0,0,0,6.37.77c6.77-.2,13.09-1.65,19.78-3.18,2.5-.58,5.08-1.17,7.66-1.68a52.15,52.15,0,0,1,12.83-1.19,6.3,6.3,0,0,1,.89.12c.26,0,.76.12,1.22.17-.25-.4-.59-.84-.78-1.09s-.41-.56-.55-.77a1.33,1.33,0,1,1,2.24-1.43c.11.17.26.37.43.6.8,1,1.89,2.5,1.58,3.93-.42,1.88-2.91,1.48-4.56,1.21L382,466a50.4,50.4,0,0,0-12.18,1.15c-2.55.5-5.11,1.09-7.58,1.66-6.53,1.49-13.28,3-20.3,3.24Z"/><path fill="#723f3b" d="M299.87,433.15a1.33,1.33,0,0,1-.47-2.57,28.93,28.93,0,0,1,9-1.43c1.59-.07,3.09-.15,4.57-.36,3.43-.49,6.94-1.07,10.33-1.63,6.4-1.05,13-2.15,19.55-2.72.93-.08,1.87-.18,2.81-.29,1.8-.2,3.67-.41,5.51-.45l.62,0a6.8,6.8,0,0,1,3.93.55,15.4,15.4,0,0,1,4.41,4.6,1.33,1.33,0,1,1-2.18,1.52,13,13,0,0,0-3.65-3.87,5.86,5.86,0,0,0-2.35-.14l-.72,0c-1.73,0-3.53.24-5.28.44-1,.1-1.92.21-2.87.29-6.44.56-13,1.65-19.35,2.69-3.4.57-6.92,1.15-10.39,1.64-1.59.23-3.23.31-4.81.39a26.34,26.34,0,0,0-8.21,1.26A1.61,1.61,0,0,1,299.87,433.15Z"/><path fill="#723f3b" d="M397.57,537.13a3.58,3.58,0,0,1-.85-.1,7,7,0,0,1-3.14-2.34c-.23-.26-.45-.5-.66-.7l-1.26-1.19c-2.05-1.95-4.18-4-6.34-5.85-6.64-5.74-14.71-10.47-22.52-15-1.9-1.12-3.79-2.22-5.63-3.33-.87-.52-1.88-1.21-3.05-2-3.74-2.55-9.4-6.4-12.61-5.66a1.35,1.35,0,0,1-1.6-1,1.33,1.33,0,0,1,1-1.59c4.36-1,10.1,2.91,14.71,6.05,1.13.77,2.11,1.44,2.91,1.92,1.84,1.1,3.72,2.2,5.61,3.31,7.91,4.63,16.09,9.42,22.92,15.32,2.21,1.91,4.36,4,6.44,5.93l1.25,1.19c.25.24.51.53.8.84.55.6,1.3,1.43,1.8,1.55,1,.26,2.77-1.41,4-2.62a13.16,13.16,0,0,1,3-2.32,149,149,0,0,1,24.75-9.57,216.58,216.58,0,0,1,60.7-7.37,45.19,45.19,0,0,1,6.9.84c1.55.27,3,.52,4.53.67a1.33,1.33,0,0,1-.26,2.64c-1.61-.15-3.19-.43-4.73-.7a43,43,0,0,0-6.49-.79,213.83,213.83,0,0,0-59.95,7.28,145.74,145.74,0,0,0-24.31,9.4,12.41,12.41,0,0,0-2.28,1.86C401.53,535.36,399.63,537.13,397.57,537.13Z"/><path fill="#723f3b" d="M353.16,493.42a1.33,1.33,0,0,1-.63-2.5l.53-.29c13.1-7.1,26.64-14.44,42.1-16.89,7.34-1.17,14.68-.9,21.78-.66,1.85.07,3.71.14,5.57.18a88.19,88.19,0,0,1,16.71,2.47c1.89.41,3.8.82,5.74,1.19.38.08.8.15,1.22.22a13.76,13.76,0,0,1,5.73,1.8,1.33,1.33,0,0,1-1.52,2.18,12.18,12.18,0,0,0-4.64-1.36l-1.29-.22c-2-.38-3.89-.8-5.81-1.21-5.46-1.18-10.62-2.29-16.2-2.42-1.87,0-3.74-.1-5.61-.17-7.29-.26-14.18-.5-21.26.62-15,2.38-27.76,9.29-41.25,16.61l-.54.29A1.31,1.31,0,0,1,353.16,493.42Z"/><path fill="#723f3b" d="M500.29,512.66a1.29,1.29,0,0,1-.74-.23c-1.83-1.23-3.85-2.31-5.8-3.36-1.66-.89-3.38-1.81-5-2.82-3-1.9-6-3.91-8.88-5.85-2.11-1.41-4.22-2.83-6.35-4.21a73.17,73.17,0,0,1-7-5.45c-3.11-2.61-6.33-5.3-9.78-7a1.33,1.33,0,1,1,1.16-2.39c3.75,1.82,7.09,4.62,10.33,7.34A72.5,72.5,0,0,0,475,494c2.14,1.39,4.26,2.81,6.38,4.24,2.87,1.92,5.84,3.92,8.82,5.8,1.53,1,3.13,1.82,4.82,2.73a68.37,68.37,0,0,1,6,3.5,1.33,1.33,0,0,1-.75,2.43Z"/><path fill="#723f3b" d="M506.51,515.3a1.36,1.36,0,0,1-.95-.4,1.34,1.34,0,0,1,0-1.88c15.88-15.6,39.83-24.51,64.1-23.8a215,215,0,0,1,24.45,2.17c.79.11,1.6.29,2.42.47a18.49,18.49,0,0,0,3.45.55l.36,0h.14a8,8,0,0,0-.59-.59l-.31-.3c-2.93-3-6.09-6.05-9.67-7.94a1.34,1.34,0,0,1-.56-1.8,1.31,1.31,0,0,1,1.79-.55c3.93,2.06,7.26,5.29,10.34,8.43l.24.23c.85.8,2.62,2.48,1.59,4.25-.62,1.08-2.08,1-3.15.91l-.23,0a19.86,19.86,0,0,1-4-.61c-.75-.16-1.5-.33-2.22-.43a214.29,214.29,0,0,0-24.16-2.14c-23.54-.66-46.78,7.93-62.16,23A1.3,1.3,0,0,1,506.51,515.3Z"/><path fill="#723f3b" d="M454.16,479.5a1.33,1.33,0,0,1-.88-2.32,16,16,0,0,0,2.58-3.39,28.61,28.61,0,0,1,1.9-2.75,60.74,60.74,0,0,1,16.38-13.77c8.81-5,18.86-8.56,31.64-11.33,6.06-1.32,10.93-1.61,14.46-.87,7.48,1.57,14.63,5.25,21.54,8.82,2.07,1.07,4.12,2.13,6.14,3.11,2.2,1.06,4.49,2,6.71,3,3.25,1.39,6.61,2.82,9.82,4.58l3.64,2c3.73,2.06,7.59,4.2,11.42,6.22.76.4,1.5.85,2.25,1.31a20.76,20.76,0,0,0,3.87,2,1.33,1.33,0,1,1-.86,2.52,23.72,23.72,0,0,1-4.4-2.26c-.7-.43-1.39-.86-2.09-1.23-3.86-2-7.74-4.18-11.48-6.25l-3.63-2c-3.09-1.7-6.39-3.1-9.58-4.46-2.25-1-4.57-1.95-6.83-3-2-1-4.11-2.06-6.2-3.14-6.75-3.48-13.74-7.09-20.86-8.58-3.17-.66-7.66-.37-13.36.87-12.51,2.71-22.32,6.23-30.89,11a57.66,57.66,0,0,0-15.64,13.15,23.66,23.66,0,0,0-1.71,2.47,17.66,17.66,0,0,1-3.07,4A1.31,1.31,0,0,1,454.16,479.5Z"/><path fill="#723f3b" d="M405.46,557a4.39,4.39,0,0,1-1.53-.26c-2-.73-2.63-2.45-3.18-3.83-.08-.22-.17-.44-.26-.65a46,46,0,0,1-2.05-6.56c-.42-1.66-.86-3.37-1.45-5a1.33,1.33,0,0,1,2.5-.9c.63,1.74,1.09,3.52,1.53,5.24a41.21,41.21,0,0,0,1.92,6.18c.1.23.19.47.29.71.49,1.24.83,2,1.63,2.32,1.7.63,5.18-1.76,7.27-3.19.75-.51,1.41-1,1.95-1.27,6.76-3.92,15.8-8.85,25.68-12.16,3.9-1.31,7.89-2.5,11.75-3.65,3-.9,6-1.8,9-2.76,1.44-.46,2.88-.94,4.31-1.41a117.09,117.09,0,0,1,18.26-4.95A67.05,67.05,0,0,1,496,523.66c1,0,1.94.13,2.93.22a23,23,0,0,0,6.94-.06c2.57-.58,5-2.4,7.31-4.15,1-.76,2-1.54,3.06-2.2a72.23,72.23,0,0,1,16.25-7.54c10.77-3.62,24.93-7.72,38.93-7.39,5.07.12,10.26.62,15.27,1.11l5.4.5c.89.08,1.83.19,2.79.31,3.37.4,7.18.86,10.07-.19.18-.06.31-.3.39-.7.43-2-.92-5.79-1.7-6.54a1.33,1.33,0,1,1,1.83-1.92c1.56,1.48,3.07,6.21,2.47,9a3.27,3.27,0,0,1-2.09,2.65c-3.49,1.26-7.63.76-11.29.32-.93-.11-1.83-.22-2.7-.29l-5.43-.51c-5-.48-10.09-1-15.08-1.09-13.56-.31-27.45,3.7-38,7.25a69.71,69.71,0,0,0-15.65,7.25c-.94.61-1.9,1.33-2.9,2.09-2.56,1.93-5.2,3.92-8.32,4.62a24.73,24.73,0,0,1-7.77.12c-.94-.09-1.88-.17-2.8-.21a64.33,64.33,0,0,0-12.38,1.14,114.43,114.43,0,0,0-17.85,4.85c-1.44.48-2.88,1-4.33,1.42-3,1-6.06,1.87-9.09,2.78-3.84,1.14-7.81,2.32-11.67,3.62-9.65,3.24-18.53,8.08-25.19,11.94-.49.28-1.1.7-1.78,1.17C411.26,554.86,408.16,557,405.46,557Z"/><path fill="#723f3b" d="M398.81,553.29a1.38,1.38,0,0,1-.62-.15,9.64,9.64,0,0,1-3.12-3.07c-.2-.28-.41-.55-.61-.81a43.66,43.66,0,0,0-7.94-7.32c-5.36-3.91-11.2-7.48-16.85-10.94l-3.58-2.2a130.52,130.52,0,0,1-10.75-7.69c-1.72-1.32-3.43-2.63-5.16-3.9a96.91,96.91,0,0,1-7.68-6.08l-.41-.31c-1.22-.92-1.81-1.44-2.07-2a21.6,21.6,0,0,1-1.21-5.11l-.09-.55a1.33,1.33,0,0,1,2.63-.41l.08.56a20.44,20.44,0,0,0,1,4.47c.11.12.88.7,1.22.95s.47.36.58.46a93.09,93.09,0,0,0,7.48,5.91c1.75,1.28,3.48,2.61,5.21,3.94a128.17,128.17,0,0,0,10.52,7.54l3.57,2.19c5.7,3.49,11.59,7.09,17,11.06a45.9,45.9,0,0,1,8.45,7.81c.23.29.46.59.68.9a7.52,7.52,0,0,0,2.23,2.29,1.33,1.33,0,0,1-.63,2.5Z"/><path fill="#723f3b" d="M407.14,558.7c-6,0-10.82-3.52-16.13-7.43l-1.55-1.13c-4.34-3.16-9-6.14-13.46-9-2.88-1.85-5.86-3.76-8.73-5.71-3.36-2.28-6.56-4.9-9.66-7.43-1.74-1.43-3.54-2.91-5.33-4.29L350.06,522c-3.72-2.79-7.94-6-10.67-9.7a25.42,25.42,0,0,0-2-2.49c-1.12-1.21-1.22-1.71-.69-3.35l.1-.31a1.33,1.33,0,0,1,2.53.8l-.1.33-.15.45.26.28a29.62,29.62,0,0,1,2.24,2.72c2.49,3.42,6.54,6.46,10.12,9.15.77.58,1.52,1.14,2.24,1.7,1.82,1.4,3.64,2.89,5.4,4.33,3.05,2.5,6.2,5.08,9.46,7.29,2.85,1.93,5.81,3.83,8.68,5.68,4.51,2.9,9.18,5.9,13.59,9.11l1.55,1.14c6.91,5.09,12.37,9.11,20.89,5.5a1.33,1.33,0,1,1,1,2.44A18.76,18.76,0,0,1,407.14,558.7Z"/><path fill="#723f3b" d="M420.83,553.89a1.34,1.34,0,0,1-1.31-1.12,1.32,1.32,0,0,1,1.1-1.52c1.67-.28,3.5-1.5,5.27-2.68a26.92,26.92,0,0,1,3.87-2.29A319.36,319.36,0,0,1,459.6,534.8c9.27-3.07,20.54-5.39,34.44-7.08,2.21-.27,4.48-.43,6.67-.58a69.62,69.62,0,0,0,12-1.55,115.89,115.89,0,0,0,15-5.27,125.28,125.28,0,0,1,14.43-5.17c17.43-4.68,32.62-7,46.43-7h.29c1.85,0,3.71.2,5.51.39a45.36,45.36,0,0,0,5.58.36,8.91,8.91,0,0,1,1.54.14,4.17,4.17,0,0,0,1.41.07.73.73,0,0,0,.1-.22,1.33,1.33,0,0,1,2.54.79c-.79,2.54-3.16,2.18-4.44,2a7.14,7.14,0,0,0-1.09-.11,44.88,44.88,0,0,1-5.91-.38,51.86,51.86,0,0,0-5.25-.37h-.28c-13.57,0-28.54,2.25-45.74,6.87a124.12,124.12,0,0,0-14.12,5.06,116,116,0,0,1-15.31,5.39,71.6,71.6,0,0,1-12.46,1.62c-2.16.15-4.4.31-6.54.57-13.72,1.67-24.82,3.95-33.93,7a315.08,315.08,0,0,0-29.59,11.39,24.33,24.33,0,0,0-3.47,2.07c-2,1.34-4.08,2.72-6.32,3.09Z"/><path fill="#723f3b" d="M398.89,543.14a1.33,1.33,0,0,1-.26-2.64,11.76,11.76,0,0,0,4.12-2.15c.55-.39,1.1-.77,1.65-1.11a96.35,96.35,0,0,1,11.16-5.66,163.68,163.68,0,0,1,33.89-10.38,1.32,1.32,0,0,1,1.56,1,1.33,1.33,0,0,1-1,1.57A160.71,160.71,0,0,0,416.64,534a93.92,93.92,0,0,0-10.85,5.49c-.51.32-1,.67-1.53,1a13.94,13.94,0,0,1-5.11,2.58Z"/><path fill="#723f3b" d="M457.44,523a1.33,1.33,0,0,1-.26-2.63c12-2.41,24.28-3.15,39.91-2.43a1.33,1.33,0,0,1,1.26,1.39,1.37,1.37,0,0,1-1.39,1.27c-15.4-.73-27.51,0-39.25,2.37A1.24,1.24,0,0,1,457.44,523Z"/><path fill="#723f3b" d="M401.16,548.57a1.33,1.33,0,0,1-.66-2.48,26.6,26.6,0,0,1,3.73-1.64,23.87,23.87,0,0,0,3.39-1.47c19.59-11.23,40.52-15.37,62.67-19.76l6.25-1.24a1.33,1.33,0,0,1,.52,2.61l-6.25,1.24c-21.94,4.34-42.65,8.44-61.87,19.45a25,25,0,0,1-3.77,1.66,22.84,22.84,0,0,0-3.35,1.46A1.3,1.3,0,0,1,401.16,548.57Z"/><path fill="#723f3b" d="M512.3,513.8a1.33,1.33,0,0,1-.93-2.28c3.79-3.7,9.25-6.08,14.07-8.18,1.19-.52,2.35-1,3.47-1.54,13.07-6,28.64-9,49-9.22,7.35-.05,15,1.79,22.33,3.62,1.81.44,3.59.88,5.33,1.28a1.33,1.33,0,1,1-.59,2.59c-1.76-.4-3.55-.84-5.37-1.29C592.42,497,585,495.12,578,495.24c-20,.25-35.22,3.1-47.93,9-1.14.53-2.32,1-3.53,1.57-4.83,2.1-9.83,4.28-13.26,7.64A1.36,1.36,0,0,1,512.3,513.8Z"/><path fill="#723f3b" d="M519.45,514.82a1.33,1.33,0,0,1-.83-2.37c6.45-5.14,13.86-7.67,20.89-9.81,9.86-3,22.77-6.39,35.26-5.87,7,.3,13.77,1.82,20.32,3.28,3.52.79,7.16,1.6,10.78,2.21a1.33,1.33,0,0,1-.44,2.63c-3.69-.63-7.36-1.45-10.92-2.24-6.43-1.44-13.09-2.93-19.86-3.22-12.06-.53-24.7,2.8-34.36,5.75-6.79,2.07-13.93,4.5-20,9.35A1.29,1.29,0,0,1,519.45,514.82Z"/><path fill="#723f3b" d="M397.64,543.14l-.24,0c-2.24-.4-4.43-2.27-6.18-3.76l-.69-.59c-3-2.51-6.56-5.49-10.11-8.59a145.22,145.22,0,0,0-16.19-11.7,161.63,161.63,0,0,1-15.08-10.73,1.33,1.33,0,1,1,1.7-2,159.62,159.62,0,0,0,14.84,10.55,148,148,0,0,1,16.48,11.92c3.53,3.08,7.06,6.05,10.06,8.55l.72.61c1.43,1.22,3.38,2.89,4.92,3.16a1.33,1.33,0,0,1-.23,2.64Z"/><path fill="#723f3b" d="M144.75,432.42a1.33,1.33,0,0,1,0-2.66l45.1,0h0a1.33,1.33,0,1,1,0,2.66H185.9l-41.15,0Z"/><path fill="#723f3b" d="M495,432.16a1.33,1.33,0,1,1,0-2.66l21,0a1.33,1.33,0,1,1,0,2.66l-21,0Z"/><path fill="#723f3b" d="M747.06,432a1.33,1.33,0,1,1,0-2.66l37.83,0h0a1.33,1.33,0,0,1,0,2.66l-37.84,0Z"/><path fill="#723f3b" d="M562.46,215.89a1.33,1.33,0,0,1-1.09-2.09c6.84-9.9,9.82-23.05,7.76-34.31a1.34,1.34,0,0,1,1.07-1.55,1.33,1.33,0,0,1,1.54,1.07c2.18,11.93-1,25.84-8.19,36.3A1.31,1.31,0,0,1,562.46,215.89Z"/><path fill="#723f3b" d="M412.71,405.72a1.39,1.39,0,0,1-.4-.06,1.32,1.32,0,0,1-.86-1.67,81.12,81.12,0,0,0,2.43-11.55c.22-1.37.43-2.73.67-4.08,2.88-16.18,4-32.55,3.76-53.07a1.33,1.33,0,0,1,1.32-1.35,1.31,1.31,0,0,1,1.34,1.31c.28,20.7-.9,37.22-3.8,53.58-.24,1.33-.45,2.68-.67,4A81.31,81.31,0,0,1,414,404.8,1.33,1.33,0,0,1,412.71,405.72Z"/><g opacity=".2"><path fill="#723f3b" d="M227.62,325.26h0a1.33,1.33,0,0,1-1.33-1.34l1.09-283.73a1.26,1.26,0,0,1,1.33-1.32A1.32,1.32,0,0,1,230,40.2L229,323.94A1.33,1.33,0,0,1,227.62,325.26Z"/><path fill="#723f3b" d="M393.09,140.26a1.32,1.32,0,0,1-1.33-1.33V31.51a1.33,1.33,0,1,1,2.66,0V138.93A1.33,1.33,0,0,1,393.09,140.26Z"/><path fill="#723f3b" d="M745.11,395.25a1.33,1.33,0,0,1-1.33-1.33v-361a1.33,1.33,0,0,1,2.66,0v361A1.34,1.34,0,0,1,745.11,395.25Z"/><path fill="#723f3b" d="M771.1,393.51a1.33,1.33,0,0,1-1.33-1.32L768.62,23.64a1.32,1.32,0,0,1,1.32-1.33h0a1.33,1.33,0,0,1,1.33,1.32l1.15,368.55a1.33,1.33,0,0,1-1.33,1.33Z"/><path fill="#723f3b" d="M797.67,392.36a1.34,1.34,0,0,1-1.33-1.33V31.15a1.33,1.33,0,0,1,2.66,0V391A1.33,1.33,0,0,1,797.67,392.36Z"/><path fill="#723f3b" d="M210.88,235.93c-2.1,0-4.07-2.83-5.32-4.62-.19-.27-.34-.49-.44-.62-3.27-4.08-3.76-12-3.76-16.43,0-2.65,0-5.3-.06-8a229.11,229.11,0,0,1,.64-25.09c0-.16,0-.47,0-.88.13-4.68.6-9.74,3.07-11.7a3.68,3.68,0,0,1,3.1-.73c2.2.44,3.41,2.81,3.81,3.59h0c2.68,5.23,2.41,9.26,2.1,13.94-.11,1.62-.22,3.29-.22,5.15v27.73c0,.25,0,.81.12,1.59.74,8.75.66,14.44-2,15.77A2.37,2.37,0,0,1,210.88,235.93Zm-3.54-65.45a.93.93,0,0,0-.63.23c-1.22,1-1.92,4.23-2.07,9.7,0,.5,0,.87,0,1.06a225.87,225.87,0,0,0-.63,24.8c0,2.67.06,5.33.06,8,0,6.77,1.18,12.29,3.17,14.77.13.16.32.43.55.76,1.94,2.78,2.79,3.42,3.16,3.47.33-.26,1.34-2.13.41-13.13-.08-.89-.13-1.54-.13-1.82V190.58c0-2,.12-3.67.23-5.33.3-4.46.53-8-1.82-12.55h0c-.85-1.65-1.53-2.1-2-2.19Z"/><path fill="#723f3b" d="M251.27,235.47a2.74,2.74,0,0,1-2.32-1.41c-2.12-3.18-2.61-8.55-3-12.46l-.13-1.43c-.12-1.15-.25-2.32-.38-3.49-.32-2.87-.64-5.84-.78-8.71-.09-1.81-.31-4.06-.57-6.66-1-10-2.3-23.61,2.23-30.52h0a3.89,3.89,0,0,1,4.1-1.7,2.9,2.9,0,0,1,2.09,3.71,2.13,2.13,0,0,0-.06.62,58.1,58.1,0,0,1,2.36,12.39l.21,1.83c1.44,12.9,3.07,27.52,1.53,40.64-.09.75-2,6.45-4.75,7.12A2.57,2.57,0,0,1,251.27,235.47Zm.11-2.63h0Zm-1.79-61.22a1.52,1.52,0,0,0-1,.63h0c-4,6.12-2.74,19.23-1.8,28.81.26,2.63.48,4.9.57,6.79.14,2.78.46,5.71.77,8.54.13,1.18.26,2.36.38,3.52l.14,1.45c.33,3.63.78,8.61,2.53,11.23a.77.77,0,0,0,.15.18c.86-.46,2.44-3.74,2.63-4.82,1.5-12.79-.11-27.26-1.53-40l-.21-1.82A55.05,55.05,0,0,0,250,174.25a3.85,3.85,0,0,1,0-1.87,3.25,3.25,0,0,0,.07-.63h0s-.12-.06-.31-.12Zm-2.13-.1h0Z"/></g></svg>